<?xml version="1.0" standalone="no"?>
<!DOCTYPE svg PUBLIC "-//W3C//DTD SVG 20010904//EN"
 "http://www.w3.org/TR/2001/REC-SVG-20010904/DTD/svg10.dtd">
<svg version="1.0" xmlns="http://www.w3.org/2000/svg"
 width="1000.000000pt" height="1000.000000pt" viewBox="0 0 1000.000000 1000.000000"
 preserveAspectRatio="xMidYMid meet">
<metadata>
Created by potrace 1.14, written by Peter Selinger 2001-2017
</metadata>
<g transform="translate(0.000000,1000.000000) scale(0.100000,-0.100000)"
fill="#000000" stroke="none">
<path d="M5980 9793 c-8 -3 -55 -25 -105 -48 -49 -23 -130 -59 -180 -79 -224
-92 -285 -124 -296 -154 -10 -25 -8 -67 7 -152 13 -75 6 -418 -10 -507 -2 -10
-7 -38 -11 -63 -4 -25 -8 -52 -10 -60 -1 -8 -6 -37 -10 -65 -25 -178 -118
-437 -197 -553 -54 -79 -102 -119 -140 -116 -18 2 -62 5 -98 9 -291 26 -918
26 -1071 0 -13 -2 -59 -9 -102 -14 -177 -24 -457 -104 -637 -181 -110 -47
-307 -151 -392 -206 -68 -45 -260 -185 -284 -208 -6 -6 -36 -32 -66 -58 -133
-115 -318 -314 -413 -443 -16 -22 -33 -44 -37 -50 -44 -57 -59 -78 -94 -130
-39 -57 -106 -164 -144 -230 -70 -122 -94 -166 -145 -271 -90 -186 -161 -362
-230 -569 -51 -152 -121 -399 -140 -495 -2 -8 -8 -35 -14 -60 -10 -45 -45
-234 -55 -300 -3 -19 -8 -46 -10 -60 -4 -25 -20 -152 -31 -260 -4 -30 -8 -69
-10 -87 -23 -197 -23 -790 1 -973 3 -19 7 -57 9 -85 9 -101 20 -185 41 -305 2
-14 7 -41 10 -60 81 -508 284 -1061 543 -1480 55 -88 172 -255 213 -302 13
-15 39 -46 58 -70 40 -48 225 -236 285 -288 327 -287 776 -497 1220 -569 119
-20 162 -24 365 -39 142 -10 1059 -9 1295 1 306 14 518 26 556 32 13 2 71 6
129 9 531 31 942 133 1325 329 197 101 393 230 552 362 120 101 373 363 433
449 8 12 23 30 33 41 24 26 217 315 253 380 111 199 225 448 304 665 32 89
106 328 114 370 2 14 18 81 34 150 16 69 37 166 46 215 8 50 18 104 21 120 13
73 24 155 30 218 3 37 8 76 10 85 5 31 14 145 21 277 14 265 5 617 -21 835 -2
19 -7 62 -10 95 -3 33 -8 71 -10 85 -21 148 -23 158 -30 199 -3 19 -7 37 -9
40 -2 3 -7 29 -10 56 -4 28 -12 68 -18 90 -5 22 -11 47 -13 55 -49 249 -181
644 -301 896 -252 532 -614 941 -1016 1147 -119 61 -169 81 -330 131 -79 24
-179 56 -223 71 -111 36 -582 161 -675 179 -44 8 -225 48 -228 51 -1 1 5 22
13 46 35 99 105 424 121 564 3 33 9 69 11 80 2 11 6 119 8 240 3 233 -4 343
-30 485 -3 14 -7 41 -10 60 -12 79 -62 297 -91 397 -22 76 -50 96 -104 76z"/>
</g>
</svg>
