<?xml version="1.0" encoding="UTF-8" standalone="no"?>
<!DOCTYPE svg PUBLIC "-//W3C//DTD SVG 1.1//EN" "http://www.w3.org/Graphics/SVG/1.1/DTD/svg11.dtd">
<svg width="100%" height="100%" viewBox="0 0 2000 1500" version="1.1" xmlns="http://www.w3.org/2000/svg" xmlns:xlink="http://www.w3.org/1999/xlink" xml:space="preserve" xmlns:serif="http://www.serif.com/" style="fill-rule:evenodd;clip-rule:evenodd;stroke-linejoin:round;stroke-miterlimit:2;">
    <g transform="matrix(1,0,0,1,0,-1820)">
        <g transform="matrix(1,0,0,1,0,1820)">
            <rect id="gpc-logo-text-only" x="0" y="0" width="2000" height="1500" style="fill:none;"/>
            <g id="gpc-logo-text-only1" serif:id="gpc-logo-text-only">
                <g transform="matrix(2.29824,0,0,2.29824,-1844.24,-454.693)">
                    <g id="Logo">
                        <g id="Text">
                            <g transform="matrix(1,0,0,1,149.945,64.2071)">
                                <path d="M907.692,281.73C911.495,281.895 914.913,281.179 917.944,279.691C920.975,278.258 923.511,276.218 925.605,273.628C927.645,271.037 929.188,268.171 930.18,264.974C930.786,263.101 931.172,261.006 931.337,258.691C931.503,256.376 931.337,254.172 930.786,252.022C930.235,249.873 929.188,248.054 927.7,246.676C926.156,245.243 924.007,244.416 921.251,244.306C919.046,244.251 917.007,244.692 915.133,245.684C913.259,246.621 911.991,247.999 911.275,249.762C910.889,250.81 910.889,251.857 911.33,252.794C911.716,253.731 912.377,254.447 913.259,254.943C914.141,255.439 915.133,255.55 916.125,255.274C917.448,254.833 918.275,254.778 918.771,255.109C919.212,255.439 919.432,256.266 919.377,257.479C919.322,259.463 918.661,261.612 917.393,263.872C916.07,266.132 914.527,267.896 912.708,269.218C910.889,270.486 909.236,270.651 907.748,269.715C906.259,268.778 905.047,267.124 904.165,264.644C903.338,262.219 902.952,259.242 903.007,255.88C903.118,252.628 903.504,248.936 904.22,244.692C904.937,240.448 905.984,236.204 907.472,232.015C908.905,227.771 910.779,224.078 913.094,220.936C914.196,219.448 915.354,218.236 916.511,217.188C917.724,216.196 918.826,215.535 919.818,215.314C920.81,215.094 921.582,215.425 922.133,216.307C922.684,217.188 922.905,218.842 922.684,221.212C922.629,222.369 923.125,223.306 924.117,224.023C925.164,224.684 926.377,225.07 927.81,225.07C929.243,225.07 930.566,224.684 931.833,223.858C933.101,223.031 933.928,221.708 934.424,219.889C934.865,218.07 934.589,215.645 933.597,212.669C932.55,209.748 930.786,207.598 928.361,206.165C925.881,204.787 923.07,204.126 919.818,204.346C915.409,204.677 911.33,206.275 907.692,209.141C904,212.007 900.858,215.7 898.157,220.275C895.512,224.795 893.362,229.755 891.819,235.156C890.276,240.503 889.394,245.904 889.118,251.25C888.898,256.597 889.339,261.557 890.551,266.077C891.764,270.596 893.748,274.234 896.614,277.1C899.425,279.911 903.118,281.454 907.692,281.73Z" style="fill:rgb(73,145,67);fill-rule:nonzero;"/>
                                <path d="M954.486,227.165C953.108,227.55 951.786,228.432 950.408,229.81C949.085,231.188 947.817,233.172 946.66,235.763L946.715,233.062C946.825,230.637 946.384,228.928 945.337,227.771C944.235,226.668 942.967,226.228 941.479,226.448C939.991,226.668 938.668,227.605 937.566,229.204C936.739,230.637 935.967,233.117 935.416,236.7C934.81,240.282 934.369,244.251 934.038,248.55C933.763,252.904 933.652,256.872 933.707,260.51C933.763,264.203 933.983,266.793 934.369,268.392C934.92,270.045 935.747,271.313 936.959,272.14C938.117,273.021 939.329,273.462 940.652,273.573C941.975,273.683 943.132,273.462 944.069,272.966C945.061,272.47 945.557,271.699 945.668,270.651C945.778,267.951 945.998,264.974 946.274,261.833C946.605,258.636 947.156,255.494 947.872,252.408C948.644,249.266 949.746,246.566 951.234,244.14C952.171,242.597 953.108,241.495 953.935,240.833C954.762,240.172 955.699,239.566 956.746,239.07C957.518,238.684 958.344,238.243 959.281,237.637C960.715,236.7 961.596,235.597 961.927,234.219C962.258,232.842 962.203,231.574 961.651,230.306C961.1,229.039 960.218,228.046 958.951,227.44C957.738,226.779 956.195,226.668 954.486,227.165Z" style="fill:rgb(73,145,67);fill-rule:nonzero;"/>
                                <path d="M980.942,252.849C983.037,251.747 984.856,250.369 986.454,248.605C988.107,246.896 989.375,244.857 990.257,242.432C991.139,240.282 991.525,238.133 991.525,235.983C991.47,233.889 990.643,231.849 989.1,229.975C987.942,228.653 986.509,227.716 984.911,227.109C982.761,226.393 980.391,226.283 977.911,226.724C974.604,227.33 971.738,228.708 969.258,230.747C966.777,232.786 964.683,235.267 963.029,238.188C961.321,241.329 960.053,244.747 959.337,248.329C958.565,251.912 958.4,255.384 958.73,258.691C959.006,261.061 959.502,263.211 960.218,264.974C960.99,266.793 961.872,268.281 962.974,269.494C965.014,271.809 967.494,273.077 970.305,273.462C972.95,273.738 975.541,273.242 978.021,272.029C980.501,270.762 982.43,268.998 983.808,266.683C984.856,264.644 985.296,262.99 985.021,261.612C984.745,260.234 984.139,259.242 983.092,258.581C982.1,257.92 980.942,257.699 979.73,257.809C978.517,257.975 977.47,258.581 976.588,259.573C974.714,261.888 973.226,263.045 972.013,263.045C971.021,263.045 970.305,262.494 969.809,261.392C969.258,259.959 969.037,258.195 969.147,255.99C971.132,255.935 973.116,255.605 975.155,255.109C977.139,254.613 979.123,253.841 980.942,252.849ZM980.116,235.708C981.108,235.763 981.493,236.259 981.273,237.251C981.052,238.243 980.501,239.29 979.619,240.448C978.517,241.77 977.249,242.818 975.872,243.534C974.604,244.251 973.226,244.747 971.738,245.022C972.124,243.81 972.785,242.542 973.612,241.109C974.439,239.676 975.375,238.463 976.533,237.416C977.635,236.369 978.848,235.818 980.116,235.708Z" style="fill:rgb(73,145,67);fill-rule:nonzero;"/>
                                <path d="M1017.93,228.267C1016.16,227.385 1014.34,226.779 1012.52,226.558C1009.16,226.172 1005.97,226.724 1002.99,228.212C1000.95,229.259 999.076,231.023 997.422,233.448C995.713,235.873 994.28,238.684 993.123,241.936C991.966,245.188 991.139,248.495 990.698,251.967C990.257,255.384 990.257,258.636 990.698,261.667C991.304,265.691 992.462,268.612 994.115,270.376C995.824,272.195 997.753,273.132 1000.01,273.187C1002.33,273.242 1004.64,272.636 1007.12,271.368C1009.55,270.045 1011.86,268.281 1014.07,266.077C1014.18,266.738 1014.29,267.344 1014.45,267.841C1015.12,269.935 1016.05,271.423 1017.26,272.305C1018.48,273.132 1019.69,273.518 1020.96,273.462C1022,273.462 1022.89,273.242 1023.6,272.801C1024.37,272.305 1024.82,271.644 1024.92,270.707C1025.64,259.683 1026.41,248.77 1027.24,237.912C1027.4,236.038 1027.52,234.164 1027.68,232.29C1027.79,229.81 1027.52,228.046 1026.74,226.889C1026.03,225.676 1025.09,225.07 1023.93,224.905C1022.78,224.795 1021.62,225.015 1020.52,225.621C1019.41,226.283 1018.53,227.165 1017.93,228.267ZM1001.06,256.321C1001.23,253.951 1001.56,251.416 1002.16,248.605C1002.77,245.794 1003.65,243.259 1004.81,240.944C1005.97,238.684 1007.4,237.086 1009.22,236.204C1010.37,235.708 1011.37,235.652 1012.3,236.149C1013.24,236.645 1014.18,237.582 1015.06,239.015C1014.84,240.282 1014.34,242.046 1013.52,244.196C1012.75,246.4 1011.75,248.715 1010.6,251.14C1009.49,253.62 1008.34,255.825 1007.12,257.809C1005.91,259.849 1004.81,261.337 1003.82,262.219C1002.82,263.156 1002.11,263.211 1001.56,262.384C1001,261.557 1000.84,259.518 1001.06,256.321Z" style="fill:rgb(73,145,67);fill-rule:nonzero;"/>
                                <path d="M1037.49,208.204C1036.56,209.968 1035.73,212.118 1034.96,214.763C1032.15,215.039 1029.94,215.48 1028.4,216.086C1027.18,216.637 1026.36,217.299 1025.92,218.125C1025.48,218.952 1025.26,219.724 1025.37,220.551C1025.42,221.157 1025.59,221.708 1025.86,222.204C1026.19,222.645 1026.58,222.865 1027.13,222.865L1032.92,222.755C1031.87,227.881 1031.15,232.235 1030.77,235.763C1030.05,242.211 1029.66,248.384 1029.61,254.227C1029.56,260.124 1030,264.754 1030.88,268.116C1031.54,270.211 1032.48,271.699 1033.69,272.525C1034.9,273.407 1036.17,273.793 1037.38,273.738C1038.48,273.738 1039.37,273.462 1040.14,272.911C1040.85,272.415 1041.3,271.644 1041.35,270.596C1041.74,264.754 1042.07,259.738 1042.34,255.605C1042.73,249.432 1043.11,244.03 1043.44,239.235C1043.78,234.44 1044.22,228.873 1044.77,222.535L1050.5,222.425C1051.93,222.369 1053.04,221.984 1053.75,221.322C1054.41,220.661 1054.74,219.889 1054.63,218.952C1054.52,218.015 1053.97,217.188 1052.98,216.417C1051.99,215.645 1050.5,215.094 1048.57,214.818C1047.63,214.708 1046.59,214.598 1045.48,214.543L1045.92,209.197C1046.14,206.551 1045.76,204.787 1044.88,203.96C1043.94,203.079 1042.78,203.024 1041.4,203.795C1040.03,204.567 1038.7,206 1037.49,208.204Z" style="fill:rgb(73,145,67);fill-rule:nonzero;"/>
                            </g>
                            <g transform="matrix(2.3315,0,0,2.3315,-1446.99,-1234.56)">
                                <path d="M1234.73,844.961C1233.52,844.694 1232.36,844.712 1231.27,845.015C1230.37,845.3 1229.65,845.745 1229.1,846.368C1228.53,846.991 1228.17,847.703 1228.03,848.504C1227.91,849.252 1227.96,849.84 1228.17,850.285C1228.39,850.73 1228.67,851.015 1229.05,851.175C1229.4,851.318 1229.74,851.318 1230.08,851.157C1230.4,850.997 1230.61,850.677 1230.72,850.196C1230.86,849.448 1231.15,848.896 1231.54,848.54C1231.95,848.184 1232.38,848.024 1232.84,848.059C1233.29,848.113 1233.68,848.344 1233.96,848.789C1234.26,849.252 1234.39,849.893 1234.32,850.748C1234.17,851.976 1233.75,853.418 1233.05,855.056C1232.34,856.712 1231.5,858.404 1230.54,860.113C1229.58,861.84 1228.64,863.407 1227.71,864.849C1226.79,866.273 1226.06,867.377 1225.49,868.16C1225.13,868.499 1224.93,868.872 1224.9,869.264C1224.86,869.674 1224.99,870.012 1225.26,870.297C1225.54,870.582 1225.95,870.742 1226.5,870.742C1229.56,870.724 1232.64,870.724 1235.76,870.724C1235.97,870.724 1236.15,870.617 1236.26,870.404C1236.38,870.19 1236.45,869.941 1236.47,869.656C1236.51,869.282 1236.44,868.926 1236.26,868.552C1236.08,868.178 1235.76,867.875 1235.28,867.644C1234.37,867.217 1233.11,867.021 1231.5,867.056C1232.41,865.864 1233.34,864.475 1234.26,862.89C1235.19,861.306 1236.03,859.65 1236.77,857.887C1237.5,856.142 1238.04,854.398 1238.38,852.671C1238.52,851.923 1238.57,851.157 1238.52,850.338C1238.48,849.537 1238.32,848.772 1238.06,848.024C1237.79,847.294 1237.38,846.653 1236.83,846.101C1236.29,845.567 1235.58,845.175 1234.73,844.961Z" style="fill:rgb(73,145,67);fill-rule:nonzero;"/>
                                <path d="M1254.55,859.383C1254.98,856.677 1255.07,854.344 1254.8,852.386C1254.53,850.427 1254.02,848.861 1253.27,847.668C1252.5,846.493 1251.6,845.691 1250.54,845.264C1249.49,844.855 1248.41,844.819 1247.27,845.175C1246.11,845.531 1245.03,846.279 1244.01,847.418C1242.98,848.558 1242.11,850.089 1241.39,852.012C1240.66,853.935 1240.22,856.249 1240.02,858.955C1239.91,860.344 1239.95,861.697 1240.11,862.979C1240.29,864.279 1240.59,865.472 1241.04,866.522C1241.5,867.591 1242.09,868.481 1242.85,869.175C1243.6,869.869 1244.53,870.315 1245.6,870.51C1247.09,870.76 1248.42,870.457 1249.64,869.62C1250.83,868.783 1251.84,867.501 1252.68,865.757C1253.52,863.994 1254.14,861.875 1254.55,859.383ZM1246.2,867.234C1245.72,867.11 1245.35,866.682 1245.08,865.917C1244.83,865.169 1244.67,864.208 1244.63,863.033C1244.58,861.858 1244.62,860.593 1244.74,859.223C1244.87,857.869 1245.08,856.552 1245.36,855.234C1245.63,853.935 1245.97,852.76 1246.38,851.745C1246.86,850.588 1247.41,849.804 1248,849.43C1248.6,849.039 1249.14,849.074 1249.62,849.537C1250.12,849.982 1250.44,850.872 1250.6,852.226C1250.78,853.757 1250.7,855.84 1250.4,858.51C1250.17,860.398 1249.81,862.018 1249.33,863.335C1248.85,864.671 1248.34,865.668 1247.79,866.344C1247.23,867.003 1246.7,867.306 1246.2,867.234Z" style="fill:rgb(73,145,67);fill-rule:nonzero;"/>
                                <path d="M1264.17,844.961C1262.96,844.694 1261.81,844.712 1260.72,845.015C1259.81,845.3 1259.1,845.745 1258.55,846.368C1257.98,846.991 1257.62,847.703 1257.48,848.504C1257.35,849.252 1257.41,849.84 1257.62,850.285C1257.84,850.73 1258.12,851.015 1258.49,851.175C1258.85,851.318 1259.19,851.318 1259.53,851.157C1259.85,850.997 1260.06,850.677 1260.17,850.196C1260.31,849.448 1260.59,848.896 1260.99,848.54C1261.39,848.184 1261.82,848.024 1262.29,848.059C1262.73,848.113 1263.12,848.344 1263.41,848.789C1263.71,849.252 1263.84,849.893 1263.76,850.748C1263.62,851.976 1263.19,853.418 1262.5,855.056C1261.79,856.712 1260.95,858.404 1259.99,860.113C1259.03,861.84 1258.08,863.407 1257.16,864.849C1256.23,866.273 1255.5,867.377 1254.93,868.16C1254.58,868.499 1254.38,868.872 1254.35,869.264C1254.31,869.674 1254.43,870.012 1254.7,870.297C1254.99,870.582 1255.39,870.742 1255.95,870.742C1259.01,870.724 1262.09,870.724 1265.21,870.724C1265.42,870.724 1265.6,870.617 1265.7,870.404C1265.83,870.19 1265.9,869.941 1265.92,869.656C1265.95,869.282 1265.88,868.926 1265.7,868.552C1265.53,868.178 1265.21,867.875 1264.73,867.644C1263.82,867.217 1262.55,867.021 1260.95,867.056C1261.86,865.864 1262.78,864.475 1263.71,862.89C1264.64,861.306 1265.47,859.65 1266.22,857.887C1266.95,856.142 1267.48,854.398 1267.82,852.671C1267.96,851.923 1268.02,851.157 1267.96,850.338C1267.93,849.537 1267.77,848.772 1267.5,848.024C1267.24,847.294 1266.83,846.653 1266.27,846.101C1265.74,845.567 1265.03,845.175 1264.17,844.961Z" style="fill:rgb(73,145,67);fill-rule:nonzero;"/>
                                <path d="M1273.2,870.671C1274.71,870.706 1276.05,870.421 1277.19,869.834C1278.33,869.246 1279.27,868.445 1280,867.43C1280.75,866.398 1281.26,865.276 1281.55,864.03C1281.73,863.335 1281.82,862.57 1281.83,861.769C1281.85,860.967 1281.74,860.166 1281.53,859.401C1281.34,858.617 1280.98,857.941 1280.46,857.353C1279.96,856.766 1279.27,856.338 1278.4,856.089C1279.18,855.395 1279.82,854.611 1280.28,853.739C1280.77,852.849 1281.07,851.941 1281.19,851.015C1281.32,850.089 1281.26,849.217 1281.01,848.38C1280.73,847.418 1280.16,846.617 1279.32,845.994C1278.5,845.371 1277.36,845.05 1275.94,845.015C1275.37,844.997 1274.78,845.068 1274.19,845.193C1273.61,845.335 1273.07,845.549 1272.56,845.869C1271.76,846.368 1271.13,846.991 1270.69,847.685C1270.26,848.398 1270.05,849.074 1270.05,849.715C1270.07,850.356 1270.31,850.819 1270.85,851.139C1271.26,851.353 1271.68,851.371 1272.13,851.228C1272.58,851.086 1272.91,850.748 1273.11,850.231C1273.34,849.626 1273.66,849.181 1274.09,848.896C1274.52,848.629 1274.96,848.504 1275.42,848.522C1275.89,848.54 1276.28,848.682 1276.6,848.967C1276.92,849.252 1277.1,849.644 1277.12,850.16C1277.13,850.677 1276.92,851.282 1276.47,851.976C1275.87,852.831 1275.16,853.632 1274.3,854.326C1273.45,855.039 1272.72,855.537 1272.09,855.786C1271.53,856.036 1271.13,856.392 1270.92,856.837C1270.72,857.282 1270.67,857.745 1270.78,858.19C1270.88,858.653 1271.13,859.009 1271.51,859.276C1271.88,859.543 1272.36,859.632 1272.95,859.525C1273.06,859.507 1273.2,859.472 1273.34,859.436C1273.75,859.329 1274.19,859.24 1274.69,859.169C1275.23,859.098 1275.67,859.151 1276.05,859.347C1276.4,859.525 1276.71,859.81 1276.9,860.166C1277.12,860.522 1277.22,860.914 1277.26,861.341C1277.29,861.858 1277.24,862.392 1277.12,862.944C1276.99,863.496 1276.8,864.047 1276.55,864.564C1276.24,865.223 1275.89,865.792 1275.48,866.255C1275.05,866.736 1274.62,867.056 1274.18,867.217C1273.73,867.377 1273.31,867.288 1272.9,866.967C1272.49,866.647 1272.11,866.006 1271.79,865.062C1271.74,864.884 1271.67,864.706 1271.6,864.546C1271.51,864.404 1271.4,864.261 1271.26,864.154C1270.94,863.941 1270.55,863.905 1270.12,864.03C1269.69,864.172 1269.32,864.421 1268.98,864.813C1268.66,865.205 1268.46,865.668 1268.41,866.202C1268.39,867.003 1268.59,867.751 1269.01,868.409C1269.44,869.068 1270.01,869.602 1270.76,869.994C1271.49,870.404 1272.31,870.635 1273.2,870.671Z" style="fill:rgb(73,145,67);fill-rule:nonzero;"/>
                            </g>
                            <g id="Pumpkin-Text" serif:id="Pumpkin Text" transform="matrix(1.91396,0,0,1.91396,-507.249,-303.865)">
                                <path d="M719.409,433.603C721.164,433.515 722.568,433.164 723.709,432.462C724.937,431.672 725.639,430.619 725.727,429.127C726.693,416.577 727.57,404.642 728.536,393.321C737.75,391.215 745.648,387.88 752.23,383.317C758.812,378.666 764.166,373.312 768.115,367.257C772.152,361.114 774.872,354.883 776.364,348.477C777.856,342.07 778.119,335.927 777.066,330.311C776.101,324.606 773.819,319.78 770.396,315.918C766.974,312.145 762.41,309.775 756.618,308.81C750.826,307.932 743.893,309.073 735.732,312.145C735.381,309.073 734.152,307.406 732.046,306.967C730.027,306.616 727.658,307.406 725.113,309.424C722.656,311.355 720.549,314.251 718.882,318.112C716.337,324.431 714.231,332.68 712.476,342.86C710.633,353.04 709.229,363.747 708.351,374.98C707.386,386.125 706.947,396.305 707.035,405.432C707.035,414.647 707.737,421.316 709.053,425.617C710.106,428.6 711.598,430.707 713.529,431.847C715.459,433.076 717.39,433.69 719.409,433.603ZM733.889,332.68C740.471,328.731 745.561,326.713 749.247,326.625C752.932,326.625 755.39,327.941 756.706,330.662C757.935,333.382 758.11,336.893 757.32,341.105C756.531,345.317 754.863,349.618 752.318,354.005C749.861,358.481 746.702,362.43 742.928,365.765C739.154,369.188 734.942,371.469 730.203,372.523C731.344,359.71 732.572,346.37 733.889,332.68Z" style="fill:rgb(255,171,45);fill-rule:nonzero;"/>
                                <g transform="matrix(0.282266,0,0,0.282266,629.361,269.266)">
                                    <path d="M511.058,429.292C512.42,408.899 515.428,387.961 519.553,366.745C524.217,344.359 529.502,324.772 535.72,307.983C539.762,297.723 544.737,289.95 550.955,284.976C556.862,280.001 562.769,277.203 568.677,276.581C574.584,275.96 579.558,277.514 583.289,280.934C587.331,284.354 589.197,289.329 588.886,296.169C588.264,303.009 586.398,317.31 582.978,338.452C580.18,357.106 577.071,377.315 574.273,398.457C573.018,408.079 571.951,417.076 571.099,425.475C551.294,423.608 530.791,425.137 511.058,429.292ZM600.363,430.95C601.654,427.719 602.907,424.553 604.12,421.464C607.54,413.381 609.716,407.784 611.271,404.675C617.489,367.677 624.64,337.519 632.724,314.201C637.387,301.765 642.984,292.127 649.513,285.287C655.731,278.447 662.26,274.716 668.167,273.783C674.385,272.85 679.049,275.338 682.78,280.934C686.511,286.53 687.754,295.858 686.821,308.294C681.199,368.867 676.206,427.13 671.671,482.736C668.64,478.115 665.285,473.646 661.602,469.378L661.596,469.371C644.956,450.11 623.719,437.692 600.363,430.95Z" style="fill:rgb(255,171,45);fill-rule:nonzero;"/>
                                </g>
                                <g transform="matrix(0.282266,0,0,0.282266,629.361,269.266)">
                                    <path d="M691.862,480.202C691.712,478.196 691.586,476.13 691.485,474.008L691.485,473.386C690.863,451 691.796,426.439 694.594,399.701C697.392,372.963 701.123,349.023 705.787,327.57C710.14,309.538 715.736,295.858 723.198,286.841C730.348,277.825 737.81,272.85 745.583,271.607C753.045,270.363 759.263,272.54 764.237,278.136C769.212,283.732 771.388,292.127 770.766,303.319L770.766,303.63C781.026,291.505 792.53,282.178 804.966,275.96C817.092,269.741 829.217,268.498 841.032,271.918C852.535,275.338 862.795,285.287 871.5,302.076C879.584,291.194 888.911,282.8 899.482,277.514C910.364,271.918 921.246,269.431 932.749,269.741C944.564,270.363 955.135,273.161 963.84,279.069C972.856,284.665 980.007,292.127 985.293,301.143C990.889,310.47 994.309,320.73 996.174,331.612C998.351,346.846 998.972,363.325 998.351,381.668C997.729,400.012 996.485,417.733 994.309,435.455C992.132,453.177 989.956,468.411 987.469,481.469C986.225,488.309 984.36,495.771 981.873,503.855C979.385,511.938 975.654,519.089 970.68,525.307C966.016,531.215 959.487,534.634 951.404,534.945C943.009,535.256 935.547,533.08 929.018,528.727C922.489,524.375 919.069,518.156 919.38,510.073C920.624,489.553 922.178,469.966 924.044,451C925.598,432.346 927.153,413.381 928.396,394.726C929.64,376.072 929.951,356.485 929.951,336.276C929.951,330.368 929.329,326.948 928.086,326.327C926.842,325.705 924.355,328.503 920.624,335.343C914.095,348.09 907.255,366.434 900.415,389.752C893.575,413.07 887.357,436.699 881.139,460.639C876.475,478.671 872.433,493.906 868.702,506.653C864.971,519.4 862.173,527.173 859.997,529.66C855.022,534.013 848.804,535.567 841.342,534.945C833.881,534.013 827.041,531.525 821.444,526.862C815.537,522.198 812.428,516.291 812.428,509.451C813.672,484.889 814.915,461.571 815.848,439.497C816.781,417.422 817.713,398.768 818.335,383.534C819.268,367.988 820.201,358.039 820.823,353.375C821.755,336.586 820.823,327.881 818.335,326.637C815.537,325.705 811.806,330.368 806.832,340.317C802.168,350.266 796.883,363.635 790.975,380.424C789.102,385.94 787.229,391.559 785.368,397.283C777.659,393.893 768.883,393.359 758.727,396.119C747.684,399.016 736.966,405.09 726.363,414.729C716.272,423.903 708.394,435.315 702.431,449.076C702.344,449.277 702.261,449.48 702.182,449.684C698.626,458.93 695.167,469.09 691.862,480.202Z" style="fill:rgb(255,171,45);fill-rule:nonzero;"/>
                                </g>
                                <g transform="matrix(0.282266,0,0,0.282266,629.361,269.266)">
                                    <path d="M1006.09,613.254C1005.21,603.485 1004.61,592.829 1004.26,581.271C1003.64,550.491 1004.57,517.224 1007.68,482.091C1010.48,446.648 1014.83,413.07 1020.43,381.357C1026.33,349.334 1033.17,323.528 1041.26,303.319C1045.3,293.992 1050.58,286.22 1057.42,280.001C1064.26,273.783 1071.1,269.741 1077.94,267.876C1085.09,266.011 1090.69,266.943 1095.04,270.674C1099.71,274.405 1101.57,281.245 1100.64,291.816L1099.4,307.361L1101.26,305.185C1111.52,294.303 1123.65,285.598 1137.33,278.758C1151.32,272.229 1165.62,269.12 1180.23,269.741C1194.53,270.363 1207.9,275.96 1220.34,286.841C1229.98,296.169 1237.13,308.916 1241.48,325.705C1245.83,342.494 1246.45,363.325 1243.04,387.886C1240.55,406.541 1235.26,424.884 1227.18,443.228C1219.1,461.26 1208.84,477.428 1196.71,491.729C1184.58,505.72 1170.59,516.602 1155.36,524.375C1138.57,532.769 1120.54,535.878 1101.57,533.702C1095.04,532.769 1088.83,531.215 1082.3,529.038C1080.71,550.18 1079.25,569.43 1077.92,586.789C1059.46,587.656 1041.74,592.308 1024.91,600.725C1024.86,600.75 1024.81,600.776 1024.76,600.802C1018.34,604.097 1012.1,608.25 1006.09,613.254ZM1177.74,326.948C1171.84,322.285 1165.31,322.907 1157.85,328.503C1150.38,334.099 1142.92,342.805 1135.15,354.619C1127.38,366.434 1120.23,379.181 1113.39,393.483C1106.55,407.473 1100.64,420.842 1095.98,433.59C1091.31,446.337 1088.51,456.286 1087.27,463.748C1092.25,471.52 1097.53,476.806 1102.82,479.604C1108.1,482.402 1114.01,482.402 1120.23,479.293C1132.04,473.697 1142.61,464.059 1151.94,449.757C1161.27,435.766 1168.73,420.531 1174.63,403.432C1180.23,386.643 1183.65,371.097 1184.58,357.106C1185.83,342.183 1183.34,332.234 1177.74,326.948Z" style="fill:rgb(255,171,45);fill-rule:nonzero;"/>
                                </g>
                                <g transform="matrix(0.282266,0,0,0.282266,629.361,269.266)">
                                    <path d="M1292,558.607C1290.01,558.127 1288.1,557.502 1286.25,556.709C1281.9,554.533 1277.55,551.113 1273.82,546.449C1270.08,541.785 1266.98,535.567 1264.8,528.105C1259.51,509.762 1256.71,484.889 1256.09,454.109C1255.16,423.33 1256.4,390.063 1259.2,354.619C1262,319.487 1266.35,285.909 1272.26,253.885C1278.17,222.173 1285.01,196.367 1293.09,176.158C1296.82,166.831 1302.42,159.058 1308.95,152.84C1315.79,146.622 1322.63,142.58 1329.78,140.715C1336.62,138.849 1342.21,139.782 1346.88,143.513C1351.23,146.933 1353.1,154.084 1352.47,164.655C1351.54,174.915 1349.99,193.258 1347.81,219.374C1345.94,245.18 1343.46,275.027 1340.97,308.916C1348.43,301.765 1355.58,295.236 1362.73,289.329C1375.48,279.069 1386.67,273.161 1396.62,271.296C1406.57,269.741 1414.66,270.674 1420.56,274.716C1426.47,278.758 1429.89,284.665 1430.2,291.816C1430.82,299.278 1427.71,306.739 1421.5,314.823C1392.89,348.401 1368.02,378.559 1345.94,404.675C1366.78,404.364 1383.57,405.297 1396.31,407.162C1403.15,408.717 1409.06,411.204 1413.72,415.557C1418.7,419.91 1422.12,424.573 1423.98,429.548C1425.85,434.522 1425.85,439.186 1423.98,443.228C1421.81,446.959 1417.45,449.446 1410.3,450.068C1383.25,451.933 1356.52,454.109 1329.78,456.286C1327.29,489.553 1325.11,515.047 1323.87,533.391C1323.25,538.987 1322.63,543.962 1321.69,548.004C1320.69,551.276 1319.07,553.733 1316.67,555.705C1308.22,555.784 1300.03,556.777 1292,558.607Z" style="fill:rgb(255,171,45);fill-rule:nonzero;"/>
                                </g>
                                <path d="M1038.5,364.8C1037.18,369.627 1036.04,374.98 1035.25,380.772C1034.37,386.652 1033.94,392.444 1033.85,397.973C1033.76,403.589 1034.29,408.328 1035.34,412.189C1036.13,414.91 1037.45,416.928 1039.2,418.245C1040.87,419.561 1042.71,420.351 1044.55,420.527C1046.49,420.702 1048.15,420.351 1049.56,419.561C1050.96,418.684 1051.66,417.455 1051.84,415.875C1052.54,405.608 1053.15,396.656 1053.68,388.933C1054.3,381.298 1054.91,372.523 1055.7,362.43C1055.79,359.798 1055.26,357.604 1053.94,356.024C1052.63,354.357 1051.05,353.567 1049.03,353.391C1047.1,353.303 1045.08,354.181 1043.15,355.936C1041.22,357.779 1039.64,360.675 1038.5,364.8Z" style="fill:rgb(255,171,45);fill-rule:nonzero;"/>
                                <g transform="matrix(0.197835,0,0,0.197835,665.822,264.035)">
                                    <path d="M1996.01,364.583C2003.55,334.419 2004.88,310.908 1999.55,294.495C1994.23,277.638 1985.8,267.879 1974.27,264.774C1962.29,261.669 1950.32,265.661 1938.34,275.864C1926.36,286.067 1917.05,302.923 1910.39,326.434C1904.62,352.606 1904.18,373.011 1909.95,387.65C1915.72,402.289 1924.14,411.161 1935.68,414.709C1946.77,417.815 1958.3,415.153 1969.83,407.168C1981.37,398.74 1990.24,384.545 1996.01,364.583Z" style="fill:rgb(255,171,45);fill-rule:nonzero;"/>
                                </g>
                                <path d="M1107.21,419.298C1109.41,417.631 1111.16,414.296 1112.57,409.206C1113.97,404.203 1114.94,398.411 1115.55,392.005C1116.17,385.599 1116.34,379.456 1116.17,373.663C1115.99,367.959 1115.46,363.483 1114.59,360.412C1112.92,355.322 1110.29,351.46 1106.78,348.915C1103.27,346.37 1099.23,345.317 1094.66,345.668C1090.1,346.107 1085.45,348.126 1080.62,351.812C1080.18,349.705 1079.22,348.213 1077.82,347.16C1076.41,346.107 1074.83,345.668 1072.99,345.932C1071.23,346.107 1069.48,347.16 1067.72,349.003C1066.06,350.758 1064.74,353.567 1063.69,357.253C1062.37,362.079 1061.23,368.135 1060.26,375.155C1059.21,382.264 1058.68,389.197 1058.51,396.042C1058.33,402.799 1058.77,408.24 1059.82,412.189C1060.61,414.91 1061.93,416.928 1063.6,418.245C1065.35,419.561 1067.11,420.351 1069.04,420.527C1070.97,420.702 1072.64,420.351 1073.95,419.561C1075.36,418.684 1076.15,417.455 1076.32,415.875C1076.5,414.032 1076.94,410.961 1077.82,406.748C1078.69,402.536 1079.75,397.797 1081.06,392.532C1082.38,387.266 1083.78,382.176 1085.36,377.174C1086.85,372.259 1088.35,368.135 1089.84,364.888C1091.33,361.553 1092.65,359.798 1093.88,359.534C1095.02,359.271 1095.98,361.114 1096.6,365.239C1097.12,369.275 1097.21,374.98 1096.86,382.176C1096.51,389.46 1096.07,396.568 1095.54,403.414C1095.19,407.538 1094.93,411.136 1094.84,413.945C1094.75,416.314 1095.45,417.982 1096.77,418.859C1098.09,419.737 1099.67,420.176 1101.42,420.263C1104.06,420.527 1105.99,420.176 1107.21,419.298Z" style="fill:rgb(255,171,45);fill-rule:nonzero;"/>
                            </g>
                            <g id="Chaes-Text" serif:id="Chaes Text" transform="matrix(2.37698,0,0,2.37698,-818.783,-284.052)">
                                <path d="M785.491,317.498C774.346,304.597 752.757,307.318 740.032,315.392C701.243,340.227 693.608,425.266 740.558,432.901C756.355,435.446 772.941,426.231 776.452,410.785C779.436,397.183 762.937,393.936 757.584,401.658C753.196,407.977 750.212,412.628 746.789,412.014C732.134,409.644 730.554,384.546 735.995,362.957C740.207,346.458 748.632,332.943 757.32,328.204C765.745,323.553 769.958,331.803 768.641,339.35C766.886,348.74 776.891,352.514 783.911,349.705C793.652,345.756 794.881,328.38 785.491,317.498Z" style="fill:rgb(242,125,15);fill-rule:nonzero;"/>
                                <path d="M828.054,414.296C828.054,416.051 828.668,417.367 830.072,418.42C831.389,419.561 833.056,420.176 834.987,420.263C837.093,420.439 839.111,419.824 841.042,418.508C843.061,417.104 844.552,414.559 845.781,410.873C846.922,406.748 847.887,401.395 848.589,394.813C849.379,388.231 849.642,381.649 849.467,375.068C849.379,368.486 848.589,363.045 847.097,358.832C845.342,354.093 842.797,350.583 839.375,348.301C835.952,346.107 832.091,345.23 827.703,345.756C823.315,346.283 818.839,348.389 814.188,352.075C814.89,341.983 815.592,333.031 816.206,325.133C816.821,317.322 817.26,311.794 817.523,308.722C817.786,305.738 817.26,303.72 816.031,302.754C814.715,301.701 813.135,301.438 811.204,301.965C809.186,302.491 807.255,303.632 805.324,305.387C803.394,307.142 801.902,309.336 800.761,311.969C798.567,317.673 796.548,324.957 794.969,333.997C793.301,342.948 792.073,352.426 791.283,362.343C790.493,372.347 790.142,381.737 790.318,390.425C790.581,399.113 791.371,406.134 792.775,411.312C793.477,413.506 794.355,415.173 795.408,416.49C796.461,417.806 797.689,418.771 798.918,419.386C800.147,419.912 801.463,420.176 802.955,420.263C804.447,420.351 805.851,420.088 806.992,419.473C807.343,419.298 807.606,419.035 807.869,418.771C808.922,417.894 809.449,416.753 809.625,415.261C810.063,409.469 811.467,402.185 813.837,393.409C816.206,384.633 818.751,377.086 821.56,370.68C822.35,368.837 823.315,367.257 824.368,365.765C825.509,364.273 826.562,363.22 827.615,362.606C828.756,361.992 829.633,362.167 830.248,363.045C830.95,363.922 831.301,365.765 831.213,368.749C831.038,373.576 830.687,379.28 830.248,386.037C829.721,392.707 829.282,398.85 828.844,404.379C828.405,409.381 828.142,412.716 828.054,414.296Z" style="fill:rgb(242,125,15);fill-rule:nonzero;"/>
                                <path d="M896.155,348.301C893.346,346.897 890.45,345.932 887.554,345.581C882.201,344.966 877.111,345.844 872.372,348.213C869.125,349.881 866.141,352.689 863.508,356.55C860.788,360.412 858.506,364.888 856.663,370.065C854.82,375.243 853.504,380.509 852.802,386.037C852.1,391.478 852.1,396.656 852.802,401.483C853.767,407.889 855.61,412.541 858.243,415.349C860.963,418.245 864.035,419.737 867.633,419.824C871.319,419.912 875.005,418.947 878.954,416.928C882.815,414.822 886.501,412.014 890.011,408.504C890.187,409.557 890.362,410.522 890.626,411.312C891.679,414.647 893.171,417.016 895.101,418.42C897.032,419.737 898.963,420.351 900.981,420.263C902.649,420.263 904.053,419.912 905.194,419.21C906.422,418.42 907.124,417.367 907.3,415.875C908.441,398.324 909.669,380.947 910.986,363.659C911.249,360.675 911.425,357.691 911.688,354.708C911.863,350.758 911.425,347.95 910.196,346.107C909.055,344.177 907.563,343.211 905.72,342.948C903.877,342.772 902.034,343.123 900.279,344.089C898.524,345.142 897.12,346.546 896.155,348.301ZM869.3,392.97C869.564,389.197 870.09,385.16 871.056,380.684C872.021,376.208 873.425,372.172 875.268,368.486C877.111,364.888 879.393,362.343 882.289,360.938C884.132,360.149 885.711,360.061 887.203,360.851C888.695,361.64 890.187,363.132 891.591,365.414C891.24,367.433 890.45,370.241 889.134,373.663C887.905,377.174 886.326,380.86 884.483,384.721C882.727,388.67 880.885,392.181 878.954,395.34C877.023,398.587 875.268,400.956 873.688,402.361C872.109,403.852 870.968,403.94 870.09,402.624C869.213,401.307 868.949,398.06 869.3,392.97Z" style="fill:rgb(242,125,15);fill-rule:nonzero;"/>
                                <path d="M912.302,394.901C910.986,400.167 911.249,404.818 913.004,409.03C914.847,413.33 917.743,416.665 921.605,419.122C925.466,421.58 929.766,422.721 934.505,422.633C939.156,422.545 943.808,420.702 948.195,417.279C951.706,414.383 954.075,410.785 955.392,406.573C956.708,402.448 956.971,398.148 956.181,393.76C955.392,389.372 953.636,385.511 950.74,382.088C949.336,380.509 947.493,378.753 945.124,376.647C942.93,374.629 940.736,372.523 938.63,370.329C936.436,368.135 934.681,365.941 933.364,363.747C931.872,360.938 931.521,358.744 932.223,356.989C933.013,355.234 934.242,354.181 935.997,353.742C937.752,353.391 939.42,353.742 940.999,354.971C942.491,356.112 943.369,358.218 943.544,361.377C943.544,362.781 943.456,364.537 943.105,366.555C942.842,368.837 943.544,370.416 945.124,371.469C946.704,372.523 948.634,372.786 951.004,372.435C953.285,371.996 955.304,370.68 957.059,368.486C958.814,366.379 959.692,363.132 959.692,359.008C959.604,354.62 958.551,350.934 956.533,347.95C954.514,344.879 951.881,342.597 948.722,340.929C945.475,339.35 942.052,338.472 938.454,338.384C934.768,338.209 931.346,338.911 928.011,340.315C924.15,342.07 921.166,344.44 919.06,347.599C916.866,350.671 915.549,354.093 915.023,357.867C914.584,361.64 914.935,365.414 916.164,369.1C917.304,372.786 919.411,376.121 922.307,379.017C923.623,380.333 925.203,381.737 927.046,383.229C929.942,385.599 932.662,388.144 935.207,390.864C936.26,392.093 937.226,393.497 938.103,394.989C938.893,396.481 939.332,398.148 939.332,399.816C939.244,401.746 938.542,403.238 937.313,404.203C936.085,405.257 934.768,405.695 933.189,405.608C931.872,405.52 930.731,404.993 929.678,404.028C928.625,403.063 928.011,401.658 927.748,399.816C927.484,397.885 927.835,395.603 928.801,392.883C929.591,390.162 929.503,388.056 928.362,386.564C927.221,385.072 925.641,384.282 923.535,384.194C921.429,384.194 919.323,384.984 917.217,386.739C915.11,388.407 913.443,391.127 912.302,394.901Z" style="fill:rgb(242,125,15);fill-rule:nonzero;"/>
                                <path d="M995.761,387.442C999.095,385.686 1001.99,383.492 1004.54,380.684C1007.17,377.964 1009.19,374.717 1010.59,370.855C1012,367.433 1012.61,364.01 1012.61,360.587C1012.52,357.253 1011.21,354.005 1008.75,351.022C1006.91,348.915 1004.62,347.424 1002.08,346.458C998.657,345.317 994.883,345.142 990.934,345.844C985.668,346.809 981.105,349.003 977.156,352.25C973.207,355.497 969.872,359.447 967.239,364.098C964.519,369.1 962.5,374.541 961.359,380.245C960.131,385.95 959.867,391.478 960.394,396.744C960.833,400.518 961.623,403.94 962.763,406.748C963.992,409.644 965.396,412.014 967.151,413.945C970.398,417.631 974.348,419.649 978.823,420.263C983.036,420.702 987.16,419.912 991.109,417.982C995.059,415.963 998.13,413.155 1000.32,409.469C1001.99,406.222 1002.69,403.589 1002.25,401.395C1001.82,399.201 1000.85,397.622 999.183,396.568C997.604,395.515 995.761,395.164 993.83,395.34C991.899,395.603 990.232,396.568 988.828,398.148C985.844,401.834 983.474,403.677 981.544,403.677C979.964,403.677 978.823,402.799 978.033,401.044C977.156,398.762 976.805,395.954 976.98,392.444C980.14,392.356 983.299,391.829 986.546,391.04C989.705,390.25 992.865,389.021 995.761,387.442ZM994.444,360.149C996.024,360.236 996.638,361.026 996.287,362.606C995.936,364.185 995.059,365.853 993.654,367.696C991.899,369.802 989.881,371.469 987.687,372.61C985.668,373.751 983.474,374.541 981.105,374.98C981.719,373.049 982.772,371.031 984.089,368.749C985.405,366.467 986.897,364.537 988.74,362.869C990.495,361.202 992.426,360.324 994.444,360.149Z" style="fill:rgb(242,125,15);fill-rule:nonzero;"/>
                            </g>
                        </g>
                    </g>
                </g>
            </g>
        </g>
    </g>
</svg>
