<?xml version="1.0" encoding="UTF-8" standalone="no"?>
<!DOCTYPE svg PUBLIC "-//W3C//DTD SVG 1.1//EN" "http://www.w3.org/Graphics/SVG/1.1/DTD/svg11.dtd">
<svg width="100%" height="100%" viewBox="0 0 2000 1700" version="1.1" xmlns="http://www.w3.org/2000/svg" xmlns:xlink="http://www.w3.org/1999/xlink" xml:space="preserve" xmlns:serif="http://www.serif.com/" style="fill-rule:evenodd;clip-rule:evenodd;stroke-linejoin:round;stroke-miterlimit:1.5;">
    <g transform="matrix(1,0,0,1,-2500,0)">
        <g id="gpc-logo-reversed" transform="matrix(1,0,0,1.13333,2500,0)">
            <rect x="0" y="0" width="2000" height="1500" style="fill:none;"/>
            <g id="Truck" transform="matrix(1.44521,0,0,1.44521,-351.801,-340.272)">
                <g id="Pumpkin" transform="matrix(0.618963,-0.166601,0.188814,0.546144,343.385,865.445)">
                    <clipPath id="_clip1">
                        <path d="M1018.64,335.548L900.641,722.375L137.574,489.602L255.576,102.775L1018.64,335.548Z"/>
                    </clipPath>
                    <g clip-path="url(#_clip1)">
                        <g transform="matrix(0.974683,-0.223591,0.223591,0.974683,-118.234,213.163)">
                            <g id="Stem">
                                <path d="M662.889,331.125C664,320 622.231,339.221 614.031,319.108C629.034,310.686 631.681,265.033 626.745,247.443C625.022,241.302 627.485,240.678 630.051,239.202C634.748,236.5 646.287,231.196 652.367,227.379C657.302,224.281 657.98,227.27 659.397,231.059C670.841,261.665 673.374,290.622 662.889,331.125Z" style="fill:rgb(73,145,67);"/>
                            </g>
                        </g>
                        <g id="Main-Part" serif:id="Main Part" transform="matrix(1,0,0,1,50.945,60.2071)">
                            <g transform="matrix(1,0,0,1,-120.462,-4)">
                                <path d="M563.99,696C387.563,675.66 404.234,325.543 586.569,315.395C631.254,312.908 687.063,320.585 745.219,339.761C860.987,377.932 868.366,675.945 683.68,694C657.804,696.53 595.39,699.62 563.99,696Z" style="fill:rgb(242,125,15);"/>
                            </g>
                            <g>
                                <clipPath id="_clip2">
                                    <path d="M443.529,692C267.101,671.66 283.772,321.543 466.108,311.395C510.792,308.908 566.602,316.585 624.757,335.761C740.525,373.932 747.904,671.945 563.218,690C537.342,692.53 474.928,695.62 443.529,692Z"/>
                                </clipPath>
                                <g clip-path="url(#_clip2)">
                                    <path d="M434,693.653C384.207,641.315 337.038,428.283 436,318.552C545.302,197.357 504,310.941 504,310.941L499.304,753C499.304,753 484.146,746.362 434,693.653Z" style="fill:rgb(248,144,41);"/>
                                    <g transform="matrix(1.27498,0,-2.22045e-16,1,-137.27,2.27374e-13)">
                                        <path d="M557,693.653C494.11,764.322 499.304,749 499.304,749L526,292C526,292 550.278,296.675 572.218,324C628.443,394.026 625.525,616.651 557,693.653Z" style="fill:rgb(248,144,41);"/>
                                    </g>
                                    <path d="M480,693.653C454.285,657.318 435.92,413.331 504,310.941C565.125,219.01 529.893,310.941 529.893,310.941C529.893,310.941 527.887,284.315 544.832,311.235C591.782,385.821 565.239,635.885 517.519,697.024C475.757,750.532 494.809,714.578 480,693.653Z" style="fill:rgb(252,158,65);"/>
                                </g>
                            </g>
                        </g>
                    </g>
                </g>
                <g id="Pumpkin1" serif:id="Pumpkin" transform="matrix(-0.174025,0.0368023,0.0417093,0.153551,534.932,1018.09)">
                    <g transform="matrix(0.974683,-0.223591,0.223591,0.974683,-118.234,213.163)">
                        <g id="Stem1" serif:id="Stem">
                            <path d="M662.889,331.125C664,320 622.231,339.221 614.031,319.108C629.034,310.686 631.681,265.033 626.745,247.443C625.022,241.302 627.485,240.678 630.051,239.202C634.748,236.5 646.287,231.196 652.367,227.379C657.302,224.281 657.98,227.27 659.397,231.059C670.841,261.665 673.374,290.622 662.889,331.125Z" style="fill:rgb(73,145,67);"/>
                        </g>
                    </g>
                    <g id="Main-Part1" serif:id="Main Part" transform="matrix(1,0,0,1,50.945,60.2071)">
                        <g transform="matrix(1,0,0,1,-120.462,-4)">
                            <path d="M563.99,696C387.563,675.66 404.234,325.543 586.569,315.395C631.254,312.908 687.063,320.585 745.219,339.761C860.987,377.932 868.366,675.945 683.68,694C657.804,696.53 595.39,699.62 563.99,696Z" style="fill:rgb(242,125,15);"/>
                        </g>
                        <g>
                            <clipPath id="_clip3">
                                <path d="M443.529,692C267.101,671.66 283.772,321.543 466.108,311.395C510.792,308.908 566.602,316.585 624.757,335.761C740.525,373.932 747.904,671.945 563.218,690C537.342,692.53 474.928,695.62 443.529,692Z"/>
                            </clipPath>
                            <g clip-path="url(#_clip3)">
                                <path d="M434,693.653C384.207,641.315 337.038,428.283 436,318.552C545.302,197.357 504,310.941 504,310.941L499.304,753C499.304,753 484.146,746.362 434,693.653Z" style="fill:rgb(248,144,41);"/>
                                <g transform="matrix(1.27498,0,-2.22045e-16,1,-137.27,2.27374e-13)">
                                    <path d="M557,693.653C494.11,764.322 499.304,749 499.304,749L526,292C526,292 550.278,296.675 572.218,324C628.443,394.026 625.525,616.651 557,693.653Z" style="fill:rgb(248,144,41);"/>
                                </g>
                                <path d="M480,693.653C454.285,657.318 435.92,413.331 504,310.941C565.125,219.01 529.893,310.941 529.893,310.941C529.893,310.941 527.887,284.315 544.832,311.235C591.782,385.821 565.239,635.885 517.519,697.024C475.757,750.532 494.809,714.578 480,693.653Z" style="fill:rgb(252,158,65);"/>
                            </g>
                        </g>
                    </g>
                </g>
                <g id="Pumpkin2" serif:id="Pumpkin" transform="matrix(-0.173427,-0.0389378,-0.0441295,0.153024,1040.12,997.908)">
                    <g transform="matrix(0.974683,-0.223591,0.223591,0.974683,-118.234,213.163)">
                        <g id="Stem2" serif:id="Stem">
                            <path d="M662.889,331.125C664,320 622.231,339.221 614.031,319.108C629.034,310.686 631.681,265.033 626.745,247.443C625.022,241.302 627.485,240.678 630.051,239.202C634.748,236.5 646.287,231.196 652.367,227.379C657.302,224.281 657.98,227.27 659.397,231.059C670.841,261.665 673.374,290.622 662.889,331.125Z" style="fill:rgb(73,145,67);"/>
                        </g>
                    </g>
                    <g id="Main-Part2" serif:id="Main Part" transform="matrix(1,0,0,1,50.945,60.2071)">
                        <g transform="matrix(1,0,0,1,-120.462,-4)">
                            <path d="M563.99,696C387.563,675.66 404.234,325.543 586.569,315.395C631.254,312.908 687.063,320.585 745.219,339.761C860.987,377.932 868.366,675.945 683.68,694C657.804,696.53 595.39,699.62 563.99,696Z" style="fill:rgb(242,125,15);"/>
                        </g>
                        <g>
                            <clipPath id="_clip4">
                                <path d="M443.529,692C267.101,671.66 283.772,321.543 466.108,311.395C510.792,308.908 566.602,316.585 624.757,335.761C740.525,373.932 747.904,671.945 563.218,690C537.342,692.53 474.928,695.62 443.529,692Z"/>
                            </clipPath>
                            <g clip-path="url(#_clip4)">
                                <path d="M434,693.653C384.207,641.315 337.038,428.283 436,318.552C545.302,197.357 504,310.941 504,310.941L499.304,753C499.304,753 484.146,746.362 434,693.653Z" style="fill:rgb(248,144,41);"/>
                                <g transform="matrix(1.27498,0,-2.22045e-16,1,-137.27,2.27374e-13)">
                                    <path d="M557,693.653C494.11,764.322 499.304,749 499.304,749L526,292C526,292 550.278,296.675 572.218,324C628.443,394.026 625.525,616.651 557,693.653Z" style="fill:rgb(248,144,41);"/>
                                </g>
                                <path d="M480,693.653C454.285,657.318 435.92,413.331 504,310.941C565.125,219.01 529.893,310.941 529.893,310.941C529.893,310.941 527.887,284.315 544.832,311.235C591.782,385.821 565.239,635.885 517.519,697.024C475.757,750.532 494.809,714.578 480,693.653Z" style="fill:rgb(252,158,65);"/>
                            </g>
                        </g>
                    </g>
                </g>
                <g id="Wheel-Wells" serif:id="Wheel Wells" transform="matrix(-1,0,0,1,2007.55,6.94393)">
                    <g transform="matrix(1,0,0,0.882353,0,-44.1866)">
                        <path d="M1139.76,1382.76L1306.93,1378.26L1289.33,1291.77L1176.1,1284.26L1133.48,1306.08L1139.76,1382.76Z" style="fill:rgb(17,24,39);"/>
                    </g>
                    <g transform="matrix(1,0,0,0.882353,0,-44.1866)">
                        <path d="M647.284,1373.81L806.577,1384.94L824.936,1326.44L740.729,1275.22L662.245,1285.73L647.284,1373.81Z" style="fill:rgb(17,24,39);"/>
                    </g>
                </g>
                <g id="Wheels" transform="matrix(-1,0,0,1,2007.55,6.94393)">
                    <g transform="matrix(1,0,0,0.882353,0,-44.1866)">
                        <circle cx="725.402" cy="1356.4" r="50.323" style="fill:rgb(209,213,219);stroke:rgb(17,24,39);stroke-width:16px;"/>
                    </g>
                    <g transform="matrix(1,0,0,0.882353,493.478,-44.1866)">
                        <circle cx="725.402" cy="1356.4" r="50.323" style="fill:rgb(209,213,219);stroke:rgb(17,24,39);stroke-width:16px;"/>
                    </g>
                </g>
                <g id="Body" transform="matrix(-1,0,0,0.882353,2007.55,-37.2426)">
                    <path d="M641.021,1233.51L676.006,1225.28L738.779,1219.67L804.438,1216.63L841.144,1214.99C842.196,1214.94 843.172,1214.43 843.808,1213.59L864.996,1185.66C865.058,1185.58 865.117,1185.49 865.172,1185.4L900.541,1129.17L913.644,1124.76L957.745,1121.03L1008,1124.25L1024.42,1127.69L1029.72,1144.15L1038.67,1195.64L1041.76,1234.62C1041.9,1236.47 1043.45,1237.89 1045.3,1237.88L1375.6,1236.44C1375.6,1236.44 1378.53,1332.92 1378.53,1332.92L1350.88,1334.98C1349.22,1335.11 1347.87,1336.37 1347.63,1338.02L1345.34,1354.19L1334.83,1370.03L1302.69,1374.93L1298.08,1349.89L1289.91,1327.24C1289.78,1326.8 1289.57,1326.4 1289.29,1326.04L1275.01,1307.93C1274.83,1307.69 1264.47,1302.08 1252.57,1298.73C1237.28,1294.42 1223.21,1294.06 1223.21,1294.06C1223.11,1294.06 1207.08,1293.59 1193.83,1297.92C1188.46,1299.67 1176.56,1303.91 1168.56,1312.91C1158.02,1324.76 1150.23,1339.53 1150.22,1339.57L1141.39,1372.32C1141.39,1372.41 1141.39,1372.5 1141.39,1372.6L1141.56,1378.02L806.19,1384.94C806.19,1384.94 802.881,1361.14 802.881,1361.14C802.851,1360.92 802.802,1360.71 802.734,1360.51L795.806,1339.67C795.728,1339.43 795.625,1339.21 795.5,1338.99L785.017,1321.13C784.771,1320.71 784.441,1320.35 784.049,1320.06L770.058,1309.85C769.665,1309.57 769.216,1309.36 768.741,1309.26L744.448,1301.27C738.355,1298.36 708.737,1300.5 708.51,1300.55L681.964,1308.5C681.548,1308.58 681.15,1308.74 680.788,1308.96L665.851,1318.16C665.326,1318.49 664.895,1318.94 664.599,1319.48L657.014,1333.37C656.837,1333.69 656.712,1334.04 656.643,1334.4L651.955,1358.97C651.914,1359.19 651.893,1359.41 651.892,1359.63L651.875,1372.7C651.875,1372.7 636.126,1369.97 636.126,1369.97C634.053,1369.61 632.371,1368.09 631.8,1366.07L624.476,1340.11L621.176,1318.1L621.176,1289.32L624.468,1265.08L633.718,1238.73L641.021,1233.51ZM1000.71,1144.68L925.236,1144.68C922.936,1144.68 920.838,1146 919.836,1148.07L894.997,1199.36C894.097,1201.22 894.216,1203.41 895.313,1205.17C896.411,1206.92 898.331,1207.98 900.397,1207.98L1000.71,1207.98C1002.3,1207.98 1003.83,1207.35 1004.96,1206.22C1006.08,1205.1 1006.71,1203.57 1006.71,1201.98L1006.71,1150.68C1006.71,1149.09 1006.08,1147.57 1004.96,1146.44C1003.83,1145.32 1002.3,1144.68 1000.71,1144.68Z" style="fill:rgb(248,200,27);"/>
                </g>
                <g id="Outline" transform="matrix(-1,0,0,0.882353,2007.55,-37.2426)">
                    <path d="M655.432,1374.75C654.812,1364.52 654.594,1331.88 675.08,1314.82C692.055,1300.67 751.125,1295.79 774.591,1316.8C798.806,1338.48 801.443,1375.79 801.702,1385.94C801.708,1386.63 801.989,1387.29 802.483,1387.78C802.977,1388.26 803.644,1388.53 804.336,1388.52C833.898,1388.21 1105.28,1385.37 1142.31,1384.98C1143.38,1384.96 1144.39,1384.51 1145.11,1383.73C1145.83,1382.94 1146.19,1381.89 1146.11,1380.83C1145.5,1370.07 1146.43,1340.26 1171.65,1316.64C1199.5,1290.56 1254.36,1298.05 1271.86,1314.62C1292.27,1333.96 1295.87,1365.27 1296.5,1376.76C1296.54,1377.88 1297.06,1378.92 1297.93,1379.63C1298.79,1380.34 1299.92,1380.64 1301.02,1380.46L1334.85,1375C1343.03,1373.67 1349.1,1366.7 1349.28,1358.41L1349.63,1342.12C1349.68,1340 1351.37,1338.28 1353.5,1338.2L1377.07,1337.34C1379.91,1337.23 1382.16,1334.88 1382.13,1332.04L1381.33,1234.58C1381.32,1233.29 1380.79,1232.06 1379.87,1231.16C1378.95,1230.25 1377.7,1229.76 1376.41,1229.78L1044.93,1234.5C1043.39,1201.72 1042.27,1168.03 1029.79,1130.04C1028.33,1125.63 1024.61,1122.35 1020.05,1121.45C1010.09,1119.88 990.017,1117.48 960.479,1117.48C930.017,1117.48 912.403,1120.69 904.493,1122.64C901.33,1123.44 898.559,1125.35 896.679,1128.02C885.679,1143.62 845.037,1201.28 837.693,1211.7C836.975,1212.72 835.816,1213.34 834.57,1213.37C737.735,1215.49 654.026,1213.79 635.326,1236.5C631.729,1240.87 629.663,1249.98 626.028,1257.91C623.217,1264.05 618.464,1268.48 617.633,1275.78C616.998,1281.36 618.451,1284.76 618.544,1290.77C618.928,1315.5 623.407,1344.9 628.932,1366.86C629.967,1370.8 633.189,1373.78 637.196,1374.52C642.154,1375.42 648.748,1376.63 652.575,1377.32C653.316,1377.46 654.077,1377.24 654.637,1376.74C655.196,1376.24 655.49,1375.5 655.432,1374.75ZM1374.11,1329.44L1353.2,1330.21L1350.89,1330.52L1348.73,1331.25L1346.78,1332.35L1345.09,1333.78L1343.68,1335.5L1342.61,1337.46L1341.91,1339.64L1341.63,1341.95L1341.28,1358.24C1341.18,1362.67 1337.94,1366.39 1333.57,1367.1L1304.15,1371.85C1302.75,1357.01 1297.3,1327.7 1277.36,1308.81C1267.59,1299.57 1247.55,1292.4 1225.92,1291.64C1204.43,1290.88 1181.62,1296.35 1166.19,1310.8C1141.33,1334.08 1137.95,1362.83 1138,1377.02C1090.41,1377.53 855.346,1379.99 809.428,1380.47C808.289,1365.11 802.996,1331.49 779.927,1310.84C766.93,1299.2 744.214,1294.22 722.255,1294.63C700.29,1295.03 679.364,1300.83 669.96,1308.67C650.707,1324.71 647.424,1352.94 647.283,1368.23C644.38,1367.7 641.275,1367.13 638.634,1366.65C637.692,1366.47 636.932,1365.78 636.676,1364.85C631.29,1343.42 626.917,1314.76 626.543,1290.65C626.456,1285.04 624.99,1281.88 625.582,1276.68C625.933,1273.6 627.441,1271.3 628.89,1268.98C630.437,1266.49 632.032,1264.01 633.301,1261.24C635.201,1257.09 636.704,1252.65 638.188,1248.66C639.25,1245.81 640.158,1243.22 641.502,1241.59C643.787,1238.81 647.447,1236.67 652.112,1234.76C660.756,1231.22 672.498,1228.84 686.629,1227.1C723.87,1222.5 776.959,1222.63 834.745,1221.37L837.518,1220.98L840.09,1219.97L842.361,1218.4L844.232,1216.31C851.576,1205.89 892.218,1148.23 903.218,1132.63C903.994,1131.53 905.136,1130.74 906.459,1130.39C914.123,1128.51 931.128,1125.48 960.479,1125.48C989.218,1125.48 1008.81,1127.79 1018.62,1129.33C1020.3,1129.7 1021.65,1130.92 1022.2,1132.55C1034.41,1169.76 1035.43,1202.77 1036.94,1234.88C1037.15,1239.19 1040.73,1242.56 1045.05,1242.5L1373.35,1237.82L1374.11,1329.44Z" style="fill:rgb(248,200,27);"/>
                </g>
                <g id="Darker-Strokes" serif:id="Darker Strokes" transform="matrix(-1,0,0,1,2007.55,6.94393)">
                    <g transform="matrix(1,0,0,0.882353,0,-44.1866)">
                        <path d="M860.018,1360.17L860.169,1368.17C920.015,1366.62 949.832,1366 1037.83,1363.23C1040.48,1363.14 1043.13,1363.07 1045.79,1362.97C1046.8,1362.93 1047.96,1362.06 1047.93,1360.67C1047.18,1318.84 1046.4,1277.01 1045.65,1235.19L1044.64,1235.19L1043.49,1358.48C991.944,1358.81 991.947,1358.72 943.137,1359.22L860.018,1360.17Z" style="fill:rgb(209,161,31);"/>
                    </g>
                    <g transform="matrix(1,0,0,0.882353,0,-44.1866)">
                        <path d="M620.943,1267.84L621.409,1268.67C628.425,1264.74 630.233,1261.44 644.007,1259.54C659.392,1257.41 687.39,1257.54 733.954,1260.05C824.623,1264.92 841.619,1279.31 848.387,1314.94C851.128,1329.38 851.085,1340.82 854.915,1361.64C855.621,1365.48 856.219,1368.18 856.344,1368.75L864.125,1366.89C860.313,1351.35 858.131,1332.5 857.729,1329.57C852.529,1291.78 844.016,1271.32 797.614,1262.27C775.881,1258.04 748.482,1256.62 711.39,1255.91C632.194,1254.4 632.533,1260.68 622.061,1267.17C621.647,1267.43 621.647,1267.42 620.943,1267.84Z" style="fill:rgb(209,161,31);"/>
                    </g>
                    <g transform="matrix(1,0,0,0.882353,0,-44.1866)">
                        <path d="M1116.38,1372.64L1117.52,1372.35C1113.73,1354.91 1106.78,1308.83 1123.01,1290.14C1126.7,1285.89 1130.65,1284.25 1135.15,1282.66C1149.56,1277.6 1174.61,1273.44 1195.41,1271.21C1195.93,1271.15 1225.81,1267.35 1257.8,1268.06C1275.49,1268.46 1305.06,1270.42 1321.77,1281.25C1327.12,1284.72 1329.27,1287.86 1331.84,1291.77C1333.08,1293.67 1344.65,1310.25 1347.99,1335.57C1348.76,1341.41 1348.73,1345.1 1348.73,1345.33C1348.96,1342.16 1349.85,1324.79 1342.39,1304.52C1338.67,1294.42 1333.83,1286.31 1331.24,1283.15C1324.96,1275.5 1314.62,1270.52 1302.6,1267.1C1291.88,1264.05 1266.05,1258.52 1221.55,1261.21C1204.65,1262.23 1193.11,1263.81 1190.65,1264.14C1154.45,1269.09 1132.67,1276.41 1125.77,1280.82C1119.52,1284.82 1106.18,1296.28 1110.07,1337.85C1111.17,1349.66 1113.76,1363.03 1116.38,1372.64Z" style="fill:rgb(209,161,31);"/>
                    </g>
                </g>
                <g id="Front-Light" serif:id="Front Light" transform="matrix(-2.39853,-0.16046,-0.072809,0.847321,2945.71,133.226)">
                    <ellipse cx="610.98" cy="1280.78" rx="2.842" ry="19.555" style="fill:rgb(209,161,31);"/>
                </g>
                <g transform="matrix(1,0,0,0.882353,163.794,-30.6443)">
                    <path d="M833.819,1296.37C837.09,1294.52 840.095,1292.4 842.833,1290C845.57,1287.6 847.748,1285.12 849.366,1282.56C850.984,1280 851.793,1277.58 851.793,1275.3C851.793,1273.35 851.206,1271.79 850.033,1270.64C848.859,1269.48 847.188,1268.9 845.019,1268.9C842.993,1268.9 841.25,1269.3 839.793,1270.1C838.335,1270.9 836.984,1271.89 835.739,1273.06L834.033,1270.66C835.277,1269.21 837.055,1267.88 839.366,1266.69C841.677,1265.5 844.148,1264.9 846.779,1264.9C849.268,1264.9 851.366,1265.36 853.073,1266.26C854.779,1267.17 856.042,1268.35 856.859,1269.81C857.677,1271.27 858.086,1272.87 858.086,1274.61C858.086,1278.13 856.397,1281.75 853.019,1285.46C849.642,1289.18 845.41,1292.51 840.326,1295.46L856.859,1294.24L858.726,1289.65L861.446,1290.18L860.059,1298.61L834.619,1298.61L833.819,1296.37Z" style="fill-rule:nonzero;"/>
                    <path d="M880.113,1299.09C875.562,1299.09 872.157,1297.52 869.899,1294.37C867.642,1291.22 866.513,1287.16 866.513,1282.18C866.513,1278.7 867.153,1275.65 868.433,1273.04C869.713,1270.42 871.455,1268.42 873.659,1267.04C875.864,1265.65 878.282,1264.96 880.913,1264.96C885.535,1264.96 888.913,1266.44 891.046,1269.41C893.179,1272.38 894.246,1276.44 894.246,1281.6C894.246,1285.05 893.633,1288.1 892.406,1290.74C891.179,1293.39 889.49,1295.45 887.339,1296.9C885.188,1298.36 882.779,1299.09 880.113,1299.09ZM880.326,1296.37C885.624,1296.37 888.273,1291.62 888.273,1282.13C888.273,1277.51 887.677,1273.95 886.486,1271.46C885.295,1268.98 883.295,1267.73 880.486,1267.73C877.748,1267.73 875.722,1268.91 874.406,1271.28C873.09,1273.64 872.433,1277.03 872.433,1281.44C872.433,1285.95 873.064,1289.57 874.326,1292.29C875.588,1295.01 877.588,1296.37 880.326,1296.37Z" style="fill-rule:nonzero;"/>
                    <path d="M900.006,1296.37C903.277,1294.52 906.282,1292.4 909.019,1290C911.757,1287.6 913.935,1285.12 915.553,1282.56C917.17,1280 917.979,1277.58 917.979,1275.3C917.979,1273.35 917.393,1271.79 916.219,1270.64C915.046,1269.48 913.375,1268.9 911.206,1268.9C909.179,1268.9 907.437,1269.3 905.979,1270.1C904.522,1270.9 903.17,1271.89 901.926,1273.06L900.219,1270.66C901.464,1269.21 903.242,1267.88 905.553,1266.69C907.864,1265.5 910.335,1264.9 912.966,1264.9C915.455,1264.9 917.553,1265.36 919.259,1266.26C920.966,1267.17 922.228,1268.35 923.046,1269.81C923.864,1271.27 924.273,1272.87 924.273,1274.61C924.273,1278.13 922.584,1281.75 919.206,1285.46C915.828,1289.18 911.597,1292.51 906.513,1295.46L923.046,1294.24L924.913,1289.65L927.633,1290.18L926.246,1298.61L900.806,1298.61L900.006,1296.37Z" style="fill-rule:nonzero;"/>
                    <path d="M950.459,1298.61L932.753,1298.61L931.366,1296.21C933.464,1292.23 936.042,1286.96 939.099,1280.4C942.157,1273.84 944.895,1267.82 947.313,1262.34L948.699,1262.34L952.966,1264.64L938.566,1292.37L936.433,1295.62L950.459,1294.88L950.673,1284.48L955.206,1284.1L955.206,1294.61L962.726,1294.24L962.726,1298.61L955.206,1298.61L955.206,1307.2L950.459,1307.2L950.459,1298.61Z" style="fill-rule:nonzero;"/>
                </g>
                <g id="Bounce" transform="matrix(0.691942,0,0,0.610537,237.891,235.449)">
                    <path d="M439.085,1377.11C439.905,1350.52 444.887,1303.39 469.838,1267.5C501.874,1221.42 554.244,1213.55 602.405,1257.13C603.428,1258.06 603.521,1258.01 604.095,1259.27C604.228,1259.56 604.996,1261.25 604.246,1263.28C603.471,1265.39 601.734,1266.18 601.433,1266.32C599.458,1267.21 597.718,1266.58 597.417,1266.47C596.14,1266 596.182,1265.91 595.189,1264.98C523.099,1197.45 443.737,1261.33 444.947,1395.44C444.949,1395.67 445.203,1397.41 443.976,1398.51C442.525,1399.8 439.851,1399.43 439.17,1397.01C438.453,1394.46 432.712,1365.06 415.917,1349.74C391.854,1327.79 361.164,1347.02 351.35,1377.11C349.243,1383.56 348.73,1388.64 348.692,1388.7C348.491,1389.05 348.405,1389.5 348.086,1389.75C348.073,1389.76 346.909,1390.08 346.902,1390.07C346.552,1389.87 346.103,1389.78 345.857,1389.46C345.61,1389.15 345.587,1388.7 345.533,1388.3C345.5,1388.06 345.939,1385.4 345.981,1385.15C354.106,1336.05 412.332,1308.05 439.085,1377.11Z" style="fill:white;"/>
                </g>
            </g>
            <g id="Text" transform="matrix(1.44521,0,0,1.44521,-445.208,-321.144)">
                <g transform="matrix(1.46151,0,0,1.28957,-589.581,25.4874)">
                    <path d="M907.692,281.73C911.495,281.895 914.913,281.179 917.944,279.691C920.975,278.258 923.511,276.218 925.605,273.628C927.645,271.037 929.188,268.171 930.18,264.974C930.786,263.101 931.172,261.006 931.337,258.691C931.503,256.376 931.337,254.172 930.786,252.022C930.235,249.873 929.188,248.054 927.7,246.676C926.156,245.243 924.007,244.416 921.251,244.306C919.046,244.251 917.007,244.692 915.133,245.684C913.259,246.621 911.991,247.999 911.275,249.762C910.889,250.81 910.889,251.857 911.33,252.794C911.716,253.731 912.377,254.447 913.259,254.943C914.141,255.439 915.133,255.55 916.125,255.274C917.448,254.833 918.275,254.778 918.771,255.109C919.212,255.439 919.432,256.266 919.377,257.479C919.322,259.463 918.661,261.612 917.393,263.872C916.07,266.132 914.527,267.896 912.708,269.218C910.889,270.486 909.236,270.651 907.748,269.715C906.259,268.778 905.047,267.124 904.165,264.644C903.338,262.219 902.952,259.242 903.007,255.88C903.118,252.628 903.504,248.936 904.22,244.692C904.937,240.448 905.984,236.204 907.472,232.015C908.905,227.771 910.779,224.078 913.094,220.936C914.196,219.448 915.354,218.236 916.511,217.188C917.724,216.196 918.826,215.535 919.818,215.314C920.81,215.094 921.582,215.425 922.133,216.307C922.684,217.188 922.905,218.842 922.684,221.212C922.629,222.369 923.125,223.306 924.117,224.023C925.164,224.684 926.377,225.07 927.81,225.07C929.243,225.07 930.566,224.684 931.833,223.858C933.101,223.031 933.928,221.708 934.424,219.889C934.865,218.07 934.589,215.645 933.597,212.669C932.55,209.748 930.786,207.598 928.361,206.165C925.881,204.787 923.07,204.126 919.818,204.346C915.409,204.677 911.33,206.275 907.692,209.141C904,212.007 900.858,215.7 898.157,220.275C895.512,224.795 893.362,229.755 891.819,235.156C890.276,240.503 889.394,245.904 889.118,251.25C888.898,256.597 889.339,261.557 890.551,266.077C891.764,270.596 893.748,274.234 896.614,277.1C899.425,279.911 903.118,281.454 907.692,281.73Z" style="fill:rgb(24,164,223);fill-rule:nonzero;"/>
                    <path d="M954.486,227.165C953.108,227.55 951.786,228.432 950.408,229.81C949.085,231.188 947.817,233.172 946.66,235.763L946.715,233.062C946.825,230.637 946.384,228.928 945.337,227.771C944.235,226.668 942.967,226.228 941.479,226.448C939.991,226.668 938.668,227.605 937.566,229.204C936.739,230.637 935.967,233.117 935.416,236.7C934.81,240.282 934.369,244.251 934.038,248.55C933.763,252.904 933.652,256.872 933.707,260.51C933.763,264.203 933.983,266.793 934.369,268.392C934.92,270.045 935.747,271.313 936.959,272.14C938.117,273.021 939.329,273.462 940.652,273.573C941.975,273.683 943.132,273.462 944.069,272.966C945.061,272.47 945.557,271.699 945.668,270.651C945.778,267.951 945.998,264.974 946.274,261.833C946.605,258.636 947.156,255.494 947.872,252.408C948.644,249.266 949.746,246.566 951.234,244.14C952.171,242.597 953.108,241.495 953.935,240.833C954.762,240.172 955.699,239.566 956.746,239.07C957.518,238.684 958.344,238.243 959.281,237.637C960.715,236.7 961.596,235.597 961.927,234.219C962.258,232.842 962.203,231.574 961.651,230.306C961.1,229.039 960.218,228.046 958.951,227.44C957.738,226.779 956.195,226.668 954.486,227.165Z" style="fill:rgb(24,164,223);fill-rule:nonzero;"/>
                    <path d="M980.942,252.849C983.037,251.747 984.856,250.369 986.454,248.605C988.107,246.896 989.375,244.857 990.257,242.432C991.139,240.282 991.525,238.133 991.525,235.983C991.47,233.889 990.643,231.849 989.1,229.975C987.942,228.653 986.509,227.716 984.911,227.109C982.761,226.393 980.391,226.283 977.911,226.724C974.604,227.33 971.738,228.708 969.258,230.747C966.777,232.786 964.683,235.267 963.029,238.188C961.321,241.329 960.053,244.747 959.337,248.329C958.565,251.912 958.4,255.384 958.73,258.691C959.006,261.061 959.502,263.211 960.218,264.974C960.99,266.793 961.872,268.281 962.974,269.494C965.014,271.809 967.494,273.077 970.305,273.462C972.95,273.738 975.541,273.242 978.021,272.029C980.501,270.762 982.43,268.998 983.808,266.683C984.856,264.644 985.296,262.99 985.021,261.612C984.745,260.234 984.139,259.242 983.092,258.581C982.1,257.92 980.942,257.699 979.73,257.809C978.517,257.975 977.47,258.581 976.588,259.573C974.714,261.888 973.226,263.045 972.013,263.045C971.021,263.045 970.305,262.494 969.809,261.392C969.258,259.959 969.037,258.195 969.147,255.99C971.132,255.935 973.116,255.605 975.155,255.109C977.139,254.613 979.123,253.841 980.942,252.849ZM980.116,235.708C981.108,235.763 981.493,236.259 981.273,237.251C981.052,238.243 980.501,239.29 979.619,240.448C978.517,241.77 977.249,242.818 975.872,243.534C974.604,244.251 973.226,244.747 971.738,245.022C972.124,243.81 972.785,242.542 973.612,241.109C974.439,239.676 975.375,238.463 976.533,237.416C977.635,236.369 978.848,235.818 980.116,235.708Z" style="fill:rgb(24,164,223);fill-rule:nonzero;"/>
                    <path d="M1017.93,228.267C1016.16,227.385 1014.34,226.779 1012.52,226.558C1009.16,226.172 1005.97,226.724 1002.99,228.212C1000.95,229.259 999.076,231.023 997.422,233.448C995.713,235.873 994.28,238.684 993.123,241.936C991.966,245.188 991.139,248.495 990.698,251.967C990.257,255.384 990.257,258.636 990.698,261.667C991.304,265.691 992.462,268.612 994.115,270.376C995.824,272.195 997.753,273.132 1000.01,273.187C1002.33,273.242 1004.64,272.636 1007.12,271.368C1009.55,270.045 1011.86,268.281 1014.07,266.077C1014.18,266.738 1014.29,267.344 1014.45,267.841C1015.12,269.935 1016.05,271.423 1017.26,272.305C1018.48,273.132 1019.69,273.518 1020.96,273.462C1022,273.462 1022.89,273.242 1023.6,272.801C1024.37,272.305 1024.82,271.644 1024.92,270.707C1025.64,259.683 1026.41,248.77 1027.24,237.912C1027.4,236.038 1027.52,234.164 1027.68,232.29C1027.79,229.81 1027.52,228.046 1026.74,226.889C1026.03,225.676 1025.09,225.07 1023.93,224.905C1022.78,224.795 1021.62,225.015 1020.52,225.621C1019.41,226.283 1018.53,227.165 1017.93,228.267ZM1001.06,256.321C1001.23,253.951 1001.56,251.416 1002.16,248.605C1002.77,245.794 1003.65,243.259 1004.81,240.944C1005.97,238.684 1007.4,237.086 1009.22,236.204C1010.37,235.708 1011.37,235.652 1012.3,236.149C1013.24,236.645 1014.18,237.582 1015.06,239.015C1014.84,240.282 1014.34,242.046 1013.52,244.196C1012.75,246.4 1011.75,248.715 1010.6,251.14C1009.49,253.62 1008.34,255.825 1007.12,257.809C1005.91,259.849 1004.81,261.337 1003.82,262.219C1002.82,263.156 1002.11,263.211 1001.56,262.384C1001,261.557 1000.84,259.518 1001.06,256.321Z" style="fill:rgb(24,164,223);fill-rule:nonzero;"/>
                    <path d="M1037.49,208.204C1036.56,209.968 1035.73,212.118 1034.96,214.763C1032.15,215.039 1029.94,215.48 1028.4,216.086C1027.18,216.637 1026.36,217.299 1025.92,218.125C1025.48,218.952 1025.26,219.724 1025.37,220.551C1025.42,221.157 1025.59,221.708 1025.86,222.204C1026.19,222.645 1026.58,222.865 1027.13,222.865L1032.92,222.755C1031.87,227.881 1031.15,232.235 1030.77,235.763C1030.05,242.211 1029.66,248.384 1029.61,254.227C1029.56,260.124 1030,264.754 1030.88,268.116C1031.54,270.211 1032.48,271.699 1033.69,272.525C1034.9,273.407 1036.17,273.793 1037.38,273.738C1038.48,273.738 1039.37,273.462 1040.14,272.911C1040.85,272.415 1041.3,271.644 1041.35,270.596C1041.74,264.754 1042.07,259.738 1042.34,255.605C1042.73,249.432 1043.11,244.03 1043.44,239.235C1043.78,234.44 1044.22,228.873 1044.77,222.535L1050.5,222.425C1051.93,222.369 1053.04,221.984 1053.75,221.322C1054.41,220.661 1054.74,219.889 1054.63,218.952C1054.52,218.015 1053.97,217.188 1052.98,216.417C1051.99,215.645 1050.5,215.094 1048.57,214.818C1047.63,214.708 1046.59,214.598 1045.48,214.543L1045.92,209.197C1046.14,206.551 1045.76,204.787 1044.88,203.96C1043.94,203.079 1042.78,203.024 1041.4,203.795C1040.03,204.567 1038.7,206 1037.49,208.204Z" style="fill:rgb(24,164,223);fill-rule:nonzero;"/>
                </g>
                <g id="Pumpkin-Text" serif:id="Pumpkin Text" transform="matrix(2.79728,0,0,2.46819,-1550.08,-449.167)">
                    <path d="M723.983,432.275C723.895,432.339 723.803,432.401 723.709,432.462C722.568,433.164 721.164,433.515 719.409,433.603C717.39,433.69 715.459,433.076 713.529,431.847C711.598,430.707 710.106,428.6 709.053,425.617C707.737,421.316 707.035,414.647 707.035,405.432C706.947,396.305 707.386,386.125 708.351,374.98C709.229,363.747 710.633,353.04 712.476,342.86C714.231,332.68 716.337,324.431 718.882,318.112C720.549,314.251 722.656,311.355 725.113,309.424C727.658,307.406 730.027,306.616 732.046,306.967C734.152,307.406 735.381,309.073 735.732,312.145C743.893,309.073 750.826,307.932 756.618,308.81C762.41,309.775 766.974,312.145 770.396,315.918C773.819,319.78 776.101,324.606 777.066,330.311C778.119,335.927 777.856,342.07 776.364,348.477C774.872,354.883 772.152,361.114 768.115,367.257C764.166,373.312 758.812,378.666 752.23,383.317C745.648,387.88 737.75,391.215 728.536,393.321C727.578,404.555 726.706,416.393 725.75,428.837C725.143,429.969 724.554,431.115 723.983,432.275ZM733.889,332.68C732.572,346.37 731.344,359.71 730.203,372.523C734.942,371.469 739.154,369.188 742.928,365.765C746.702,362.43 749.861,358.481 752.318,354.005C754.863,349.618 756.531,345.317 757.32,341.105C758.11,336.893 757.935,333.382 756.706,330.662C755.39,327.941 752.932,326.625 749.247,326.625C745.561,326.713 740.471,328.731 733.889,332.68Z" style="fill:rgb(24,164,223);"/>
                    <g transform="matrix(0.282266,0,0,0.282266,629.361,269.266)">
                        <path d="M511.319,425.631C512.783,406.396 515.674,386.693 519.553,366.745C524.217,344.359 529.502,324.772 535.72,307.983C539.762,297.723 544.737,289.95 550.955,284.976C556.862,280.001 562.769,277.203 568.677,276.581C574.584,275.96 579.558,277.514 583.289,280.934C587.331,284.354 589.197,289.329 588.886,296.169C588.264,303.009 586.398,317.31 582.978,338.452C580.18,357.106 577.071,377.315 574.273,398.457C573.192,406.747 572.25,414.573 571.465,421.952C551.63,420.081 531.107,421.556 511.319,425.631ZM601.68,427.644C602.51,425.553 603.324,423.492 604.12,421.464C607.54,413.381 609.716,407.784 611.271,404.675C617.489,367.677 624.64,337.519 632.724,314.201C637.387,301.765 642.984,292.127 649.513,285.287C655.731,278.447 662.26,274.716 668.167,273.783C674.385,272.85 679.049,275.338 682.78,280.934C686.511,286.53 687.754,295.858 686.821,308.294C681.388,366.831 676.543,423.209 672.13,477.117C669.698,473.667 667.083,470.309 664.283,467.064L664.275,467.055C647.251,447.35 625.554,434.595 601.68,427.644Z" style="fill:rgb(24,164,223);"/>
                    </g>
                    <g transform="matrix(0.282266,0,0,0.282266,629.361,269.266)">
                        <path d="M691.397,469.71C690.97,448.319 691.948,424.983 694.594,399.701C697.392,372.963 701.123,349.023 705.787,327.57C710.14,309.538 715.736,295.858 723.198,286.841C730.348,277.825 737.81,272.85 745.583,271.607C753.045,270.363 759.263,272.54 764.237,278.136C769.212,283.732 771.388,292.127 770.766,303.319L770.766,303.63C781.026,291.505 792.53,282.178 804.966,275.96C817.092,269.741 829.217,268.498 841.032,271.918C852.535,275.338 862.795,285.287 871.5,302.076C879.584,291.194 888.911,282.8 899.482,277.514C910.364,271.918 921.246,269.431 932.749,269.741C944.564,270.363 955.135,273.161 963.84,279.069C972.856,284.665 980.007,292.127 985.293,301.143C990.889,310.47 994.309,320.73 996.174,331.612C998.351,346.846 998.972,363.325 998.351,381.668C997.729,400.012 996.485,417.733 994.309,435.455C992.132,453.177 989.956,468.411 987.469,481.469C986.225,488.309 984.36,495.771 981.873,503.855C979.385,511.938 975.654,519.089 970.68,525.307C966.016,531.215 959.487,534.634 951.404,534.945C943.009,535.256 935.547,533.08 929.018,528.727C922.489,524.375 919.069,518.156 919.38,510.073C920.624,489.553 922.178,469.966 924.044,451C925.598,432.346 927.153,413.381 928.396,394.726C929.64,376.072 929.951,356.485 929.951,336.276C929.951,330.368 929.329,326.948 928.086,326.327C926.842,325.705 924.355,328.503 920.624,335.343C914.095,348.09 907.255,366.434 900.415,389.752C893.575,413.07 887.357,436.699 881.139,460.639C876.475,478.671 872.433,493.906 868.702,506.653C864.971,519.4 862.173,527.173 859.997,529.66C855.022,534.013 848.804,535.567 841.342,534.945C833.881,534.013 827.041,531.525 821.444,526.862C815.537,522.198 812.428,516.291 812.428,509.451C813.672,484.889 814.915,461.571 815.848,439.497C816.781,417.422 817.713,398.768 818.335,383.534C819.268,367.988 820.201,358.039 820.823,353.375C821.755,336.586 820.823,327.881 818.335,326.637C815.537,325.705 811.806,330.368 806.832,340.317C802.168,350.266 796.883,363.635 790.975,380.424C789.474,384.845 787.973,389.332 786.478,393.886C778.172,390.305 768.735,389.735 757.83,392.693C746.272,395.729 735.056,402.041 723.981,412.109C713.53,421.61 705.357,433.417 699.181,447.668C699.075,447.914 698.973,448.163 698.877,448.413C696.328,455.041 693.827,462.135 691.397,469.71Z" style="fill:rgb(24,164,223);"/>
                    </g>
                    <g transform="matrix(0.282266,0,0,0.282266,629.361,269.266)">
                        <path d="M1005.73,608.983C1005.04,600.4 1004.56,591.166 1004.26,581.271C1003.64,550.491 1004.57,517.224 1007.68,482.091C1010.48,446.648 1014.83,413.07 1020.43,381.357C1026.33,349.334 1033.17,323.528 1041.26,303.319C1045.3,293.992 1050.58,286.22 1057.42,280.001C1064.26,273.783 1071.1,269.741 1077.94,267.876C1085.09,266.011 1090.69,266.943 1095.04,270.674C1099.71,274.405 1101.57,281.245 1100.64,291.816L1099.4,307.361L1101.26,305.185C1111.52,294.303 1123.65,285.598 1137.33,278.758C1151.32,272.229 1165.62,269.12 1180.23,269.741C1194.53,270.363 1207.9,275.96 1220.34,286.841C1229.98,296.169 1237.13,308.916 1241.48,325.705C1245.83,342.494 1246.45,363.325 1243.04,387.886C1240.55,406.541 1235.26,424.884 1227.18,443.228C1219.1,461.26 1208.84,477.428 1196.71,491.729C1184.58,505.72 1170.59,516.602 1155.36,524.375C1138.57,532.769 1120.54,535.878 1101.57,533.702C1095.04,532.769 1088.83,531.215 1082.3,529.038C1080.82,548.745 1079.45,566.809 1078.19,583.23C1059.09,584.065 1040.74,588.849 1023.32,597.558C1023.26,597.589 1023.2,597.62 1023.14,597.651C1017.18,600.714 1011.36,604.491 1005.73,608.983ZM1177.74,326.948C1171.84,322.285 1165.31,322.907 1157.85,328.503C1150.38,334.099 1142.92,342.805 1135.15,354.619C1127.38,366.434 1120.23,379.181 1113.39,393.483C1106.55,407.473 1100.64,420.842 1095.98,433.59C1091.31,446.337 1088.51,456.286 1087.27,463.748C1092.25,471.52 1097.53,476.806 1102.82,479.604C1108.1,482.402 1114.01,482.402 1120.23,479.293C1132.04,473.697 1142.61,464.059 1151.94,449.757C1161.27,435.766 1168.73,420.531 1174.63,403.432C1180.23,386.643 1183.65,371.097 1184.58,357.106C1185.83,342.183 1183.34,332.234 1177.74,326.948Z" style="fill:rgb(24,164,223);"/>
                    </g>
                    <g transform="matrix(0.282266,0,0,0.282266,629.361,269.266)">
                        <path d="M1285.85,556.504C1281.63,554.32 1277.43,550.969 1273.82,546.449C1270.08,541.785 1266.98,535.567 1264.8,528.105C1259.51,509.762 1256.71,484.889 1256.09,454.109C1255.16,423.33 1256.4,390.063 1259.2,354.619C1262,319.487 1266.35,285.909 1272.26,253.885C1278.17,222.173 1285.01,196.367 1293.09,176.158C1296.82,166.831 1302.42,159.058 1308.95,152.84C1315.79,146.622 1322.63,142.58 1329.78,140.715C1336.62,138.849 1342.21,139.782 1346.88,143.513C1351.23,146.933 1353.1,154.084 1352.47,164.655C1351.54,174.915 1349.99,193.258 1347.81,219.374C1345.94,245.18 1343.46,275.027 1340.97,308.916C1348.43,301.765 1355.58,295.236 1362.73,289.329C1375.48,279.069 1386.67,273.161 1396.62,271.296C1406.57,269.741 1414.66,270.674 1420.56,274.716C1426.47,278.758 1429.89,284.665 1430.2,291.816C1430.82,299.278 1427.71,306.739 1421.5,314.823C1392.89,348.401 1368.02,378.559 1345.94,404.675C1366.78,404.364 1383.57,405.297 1396.31,407.162C1403.15,408.717 1409.06,411.204 1413.72,415.557C1418.7,419.91 1422.12,424.573 1423.98,429.548C1425.85,434.522 1425.85,439.186 1423.98,443.228C1421.81,446.959 1417.45,449.446 1410.3,450.068C1383.25,451.933 1356.52,454.109 1329.78,456.286C1327.29,489.553 1325.11,515.047 1323.87,533.391C1323.25,538.987 1322.63,543.962 1321.69,548.004C1321.21,549.569 1320.59,550.948 1319.81,552.176C1308.06,551.979 1296.81,553.484 1285.85,556.504Z" style="fill:rgb(24,164,223);"/>
                    </g>
                    <path d="M1038.5,364.8C1037.18,369.627 1036.04,374.98 1035.25,380.772C1034.37,386.652 1033.94,392.444 1033.85,397.973C1033.76,403.589 1034.29,408.328 1035.34,412.189C1036.13,414.91 1037.45,416.928 1039.2,418.245C1040.87,419.561 1042.71,420.351 1044.55,420.527C1046.49,420.702 1048.15,420.351 1049.56,419.561C1050.96,418.684 1051.66,417.455 1051.84,415.875C1052.54,405.608 1053.15,396.656 1053.68,388.933C1054.3,381.298 1054.91,372.523 1055.7,362.43C1055.79,359.798 1055.26,357.604 1053.94,356.024C1052.63,354.357 1051.05,353.567 1049.03,353.391C1047.1,353.303 1045.08,354.181 1043.15,355.936C1041.22,357.779 1039.64,360.675 1038.5,364.8Z" style="fill:rgb(24,164,223);fill-rule:nonzero;"/>
                    <g transform="matrix(0.197835,0,0,0.197835,665.822,264.035)">
                        <path d="M1996.01,364.583C2003.55,334.419 2004.88,310.908 1999.55,294.495C1994.23,277.638 1985.8,267.879 1974.27,264.774C1962.29,261.669 1950.32,265.661 1938.34,275.864C1926.36,286.067 1917.05,302.923 1910.39,326.434C1904.62,352.606 1904.18,373.011 1909.95,387.65C1915.72,402.289 1924.14,411.161 1935.68,414.709C1946.77,417.815 1958.3,415.153 1969.83,407.168C1981.37,398.74 1990.24,384.545 1996.01,364.583Z" style="fill:rgb(24,164,223);fill-rule:nonzero;"/>
                    </g>
                    <path d="M1107.21,419.298C1109.41,417.631 1111.16,414.296 1112.57,409.206C1113.97,404.203 1114.94,398.411 1115.55,392.005C1116.17,385.599 1116.34,379.456 1116.17,373.663C1115.99,367.959 1115.46,363.483 1114.59,360.412C1112.92,355.322 1110.29,351.46 1106.78,348.915C1103.27,346.37 1099.23,345.317 1094.66,345.668C1090.1,346.107 1085.45,348.126 1080.62,351.812C1080.18,349.705 1079.22,348.213 1077.82,347.16C1076.41,346.107 1074.83,345.668 1072.99,345.932C1071.23,346.107 1069.48,347.16 1067.72,349.003C1066.06,350.758 1064.74,353.567 1063.69,357.253C1062.37,362.079 1061.23,368.135 1060.26,375.155C1059.21,382.264 1058.68,389.197 1058.51,396.042C1058.33,402.799 1058.77,408.24 1059.82,412.189C1060.61,414.91 1061.93,416.928 1063.6,418.245C1065.35,419.561 1067.11,420.351 1069.04,420.527C1070.97,420.702 1072.64,420.351 1073.95,419.561C1075.36,418.684 1076.15,417.455 1076.32,415.875C1076.5,414.032 1076.94,410.961 1077.82,406.748C1078.69,402.536 1079.75,397.797 1081.06,392.532C1082.38,387.266 1083.78,382.176 1085.36,377.174C1086.85,372.259 1088.35,368.135 1089.84,364.888C1091.33,361.553 1092.65,359.798 1093.88,359.534C1095.02,359.271 1095.98,361.114 1096.6,365.239C1097.12,369.275 1097.21,374.98 1096.86,382.176C1096.51,389.46 1096.07,396.568 1095.54,403.414C1095.19,407.538 1094.93,411.136 1094.84,413.945C1094.75,416.314 1095.45,417.982 1096.77,418.859C1098.09,419.737 1099.67,420.176 1101.42,420.263C1104.06,420.527 1105.99,420.176 1107.21,419.298Z" style="fill:rgb(24,164,223);fill-rule:nonzero;"/>
                </g>
                <g id="Chaes-Text" serif:id="Chaes Text" transform="matrix(3.47399,0,0,3.06529,-2005.39,-423.616)">
                    <path d="M785.491,317.498C774.346,304.597 752.757,307.318 740.032,315.392C701.243,340.227 693.608,425.266 740.558,432.901C756.355,435.446 772.941,426.231 776.452,410.785C779.436,397.183 762.937,393.936 757.584,401.658C753.196,407.977 750.212,412.628 746.789,412.014C732.134,409.644 730.554,384.546 735.995,362.957C740.207,346.458 748.632,332.943 757.32,328.204C765.745,323.553 769.958,331.803 768.641,339.35C766.886,348.74 776.891,352.514 783.911,349.705C793.652,345.756 794.881,328.38 785.491,317.498Z" style="fill:white;fill-rule:nonzero;"/>
                    <path d="M828.054,414.296C828.054,416.051 828.668,417.367 830.072,418.42C831.389,419.561 833.056,420.176 834.987,420.263C837.093,420.439 839.111,419.824 841.042,418.508C843.061,417.104 844.552,414.559 845.781,410.873C846.922,406.748 847.887,401.395 848.589,394.813C849.379,388.231 849.642,381.649 849.467,375.068C849.379,368.486 848.589,363.045 847.097,358.832C845.342,354.093 842.797,350.583 839.375,348.301C835.952,346.107 832.091,345.23 827.703,345.756C823.315,346.283 818.839,348.389 814.188,352.075C814.89,341.983 815.592,333.031 816.206,325.133C816.821,317.322 817.26,311.794 817.523,308.722C817.786,305.738 817.26,303.72 816.031,302.754C814.715,301.701 813.135,301.438 811.204,301.965C809.186,302.491 807.255,303.632 805.324,305.387C803.394,307.142 801.902,309.336 800.761,311.969C798.567,317.673 796.548,324.957 794.969,333.997C793.301,342.948 792.073,352.426 791.283,362.343C790.493,372.347 790.142,381.737 790.318,390.425C790.581,399.113 791.371,406.134 792.775,411.312C793.477,413.506 794.355,415.173 795.408,416.49C796.461,417.806 797.689,418.771 798.918,419.386C800.147,419.912 801.463,420.176 802.955,420.263C804.447,420.351 805.851,420.088 806.992,419.473C807.343,419.298 807.606,419.035 807.869,418.771C808.922,417.894 809.449,416.753 809.625,415.261C810.063,409.469 811.467,402.185 813.837,393.409C816.206,384.633 818.751,377.086 821.56,370.68C822.35,368.837 823.315,367.257 824.368,365.765C825.509,364.273 826.562,363.22 827.615,362.606C828.756,361.992 829.633,362.167 830.248,363.045C830.95,363.922 831.301,365.765 831.213,368.749C831.038,373.576 830.687,379.28 830.248,386.037C829.721,392.707 829.282,398.85 828.844,404.379C828.405,409.381 828.142,412.716 828.054,414.296Z" style="fill:white;fill-rule:nonzero;"/>
                    <path d="M896.155,348.301C893.346,346.897 890.45,345.932 887.554,345.581C882.201,344.966 877.111,345.844 872.372,348.213C869.125,349.881 866.141,352.689 863.508,356.55C860.788,360.412 858.506,364.888 856.663,370.065C854.82,375.243 853.504,380.509 852.802,386.037C852.1,391.478 852.1,396.656 852.802,401.483C853.767,407.889 855.61,412.541 858.243,415.349C860.963,418.245 864.035,419.737 867.633,419.824C871.319,419.912 875.005,418.947 878.954,416.928C882.815,414.822 886.501,412.014 890.011,408.504C890.187,409.557 890.362,410.522 890.626,411.312C891.679,414.647 893.171,417.016 895.101,418.42C897.032,419.737 898.963,420.351 900.981,420.263C902.649,420.263 904.053,419.912 905.194,419.21C906.422,418.42 907.124,417.367 907.3,415.875C908.441,398.324 909.669,380.947 910.986,363.659C911.249,360.675 911.425,357.691 911.688,354.708C911.863,350.758 911.425,347.95 910.196,346.107C909.055,344.177 907.563,343.211 905.72,342.948C903.877,342.772 902.034,343.123 900.279,344.089C898.524,345.142 897.12,346.546 896.155,348.301ZM869.3,392.97C869.564,389.197 870.09,385.16 871.056,380.684C872.021,376.208 873.425,372.172 875.268,368.486C877.111,364.888 879.393,362.343 882.289,360.938C884.132,360.149 885.711,360.061 887.203,360.851C888.695,361.64 890.187,363.132 891.591,365.414C891.24,367.433 890.45,370.241 889.134,373.663C887.905,377.174 886.326,380.86 884.483,384.721C882.727,388.67 880.885,392.181 878.954,395.34C877.023,398.587 875.268,400.956 873.688,402.361C872.109,403.852 870.968,403.94 870.09,402.624C869.213,401.307 868.949,398.06 869.3,392.97Z" style="fill:white;fill-rule:nonzero;"/>
                    <path d="M912.302,394.901C910.986,400.167 911.249,404.818 913.004,409.03C914.847,413.33 917.743,416.665 921.605,419.122C925.466,421.58 929.766,422.721 934.505,422.633C939.156,422.545 943.808,420.702 948.195,417.279C951.706,414.383 954.075,410.785 955.392,406.573C956.708,402.448 956.971,398.148 956.181,393.76C955.392,389.372 953.636,385.511 950.74,382.088C949.336,380.509 947.493,378.753 945.124,376.647C942.93,374.629 940.736,372.523 938.63,370.329C936.436,368.135 934.681,365.941 933.364,363.747C931.872,360.938 931.521,358.744 932.223,356.989C933.013,355.234 934.242,354.181 935.997,353.742C937.752,353.391 939.42,353.742 940.999,354.971C942.491,356.112 943.369,358.218 943.544,361.377C943.544,362.781 943.456,364.537 943.105,366.555C942.842,368.837 943.544,370.416 945.124,371.469C946.704,372.523 948.634,372.786 951.004,372.435C953.285,371.996 955.304,370.68 957.059,368.486C958.814,366.379 959.692,363.132 959.692,359.008C959.604,354.62 958.551,350.934 956.533,347.95C954.514,344.879 951.881,342.597 948.722,340.929C945.475,339.35 942.052,338.472 938.454,338.384C934.768,338.209 931.346,338.911 928.011,340.315C924.15,342.07 921.166,344.44 919.06,347.599C916.866,350.671 915.549,354.093 915.023,357.867C914.584,361.64 914.935,365.414 916.164,369.1C917.304,372.786 919.411,376.121 922.307,379.017C923.623,380.333 925.203,381.737 927.046,383.229C929.942,385.599 932.662,388.144 935.207,390.864C936.26,392.093 937.226,393.497 938.103,394.989C938.893,396.481 939.332,398.148 939.332,399.816C939.244,401.746 938.542,403.238 937.313,404.203C936.085,405.257 934.768,405.695 933.189,405.608C931.872,405.52 930.731,404.993 929.678,404.028C928.625,403.063 928.011,401.658 927.748,399.816C927.484,397.885 927.835,395.603 928.801,392.883C929.591,390.162 929.503,388.056 928.362,386.564C927.221,385.072 925.641,384.282 923.535,384.194C921.429,384.194 919.323,384.984 917.217,386.739C915.11,388.407 913.443,391.127 912.302,394.901Z" style="fill:white;fill-rule:nonzero;"/>
                    <path d="M995.761,387.442C999.095,385.686 1001.99,383.492 1004.54,380.684C1007.17,377.964 1009.19,374.717 1010.59,370.855C1012,367.433 1012.61,364.01 1012.61,360.587C1012.52,357.253 1011.21,354.005 1008.75,351.022C1006.91,348.915 1004.62,347.424 1002.08,346.458C998.657,345.317 994.883,345.142 990.934,345.844C985.668,346.809 981.105,349.003 977.156,352.25C973.207,355.497 969.872,359.447 967.239,364.098C964.519,369.1 962.5,374.541 961.359,380.245C960.131,385.95 959.867,391.478 960.394,396.744C960.833,400.518 961.623,403.94 962.763,406.748C963.992,409.644 965.396,412.014 967.151,413.945C970.398,417.631 974.348,419.649 978.823,420.263C983.036,420.702 987.16,419.912 991.109,417.982C995.059,415.963 998.13,413.155 1000.32,409.469C1001.99,406.222 1002.69,403.589 1002.25,401.395C1001.82,399.201 1000.85,397.622 999.183,396.568C997.604,395.515 995.761,395.164 993.83,395.34C991.899,395.603 990.232,396.568 988.828,398.148C985.844,401.834 983.474,403.677 981.544,403.677C979.964,403.677 978.823,402.799 978.033,401.044C977.156,398.762 976.805,395.954 976.98,392.444C980.14,392.356 983.299,391.829 986.546,391.04C989.705,390.25 992.865,389.021 995.761,387.442ZM994.444,360.149C996.024,360.236 996.638,361.026 996.287,362.606C995.936,364.185 995.059,365.853 993.654,367.696C991.899,369.802 989.881,371.469 987.687,372.61C985.668,373.751 983.474,374.541 981.105,374.98C981.719,373.049 982.772,371.031 984.089,368.749C985.405,366.467 986.897,364.537 988.74,362.869C990.495,361.202 992.426,360.324 994.444,360.149Z" style="fill:white;fill-rule:nonzero;"/>
                </g>
            </g>
        </g>
    </g>
</svg>
