<?xml version="1.0" encoding="UTF-8" standalone="no"?>
<!DOCTYPE svg PUBLIC "-//W3C//DTD SVG 1.1//EN" "http://www.w3.org/Graphics/SVG/1.1/DTD/svg11.dtd">
<svg width="100%" height="100%" viewBox="0 0 2000 1500" version="1.1" xmlns="http://www.w3.org/2000/svg" xmlns:xlink="http://www.w3.org/1999/xlink" xml:space="preserve" xmlns:serif="http://www.serif.com/" style="fill-rule:evenodd;clip-rule:evenodd;stroke-linejoin:round;stroke-miterlimit:1.5;">
    <g transform="matrix(1.1876,0,0,1.1876,-206.57,-88.8453)">
        <g id="Logo">
            <g id="Text" transform="matrix(1.55861,0,0,1.55861,-912.918,-254.837)">
                <g transform="matrix(1,0,0,1,149.945,64.2071)">
                    <g transform="matrix(112.879,0,0,112.879,1046.26,273.297)">
                    </g>
                    <text x="890px" y="273.297px" style="font-family:'CottonButter', 'Cotton Butter';font-size:112.879px;fill:rgb(73,145,67);">Gr<tspan x="959.667px 991.745px " y="273.297px 273.297px ">ea</tspan>t</text>
                </g>
                <g transform="matrix(2.3315,0,0,2.3315,-1446.99,-1234.56)">
                    <g transform="matrix(36.4629,0,0,36.4629,1282.53,868)">
                    </g>
                    <text x="1226.25px" y="868px" style="font-family:'CottonButter', 'Cotton Butter';font-size:36.463px;fill:rgb(73,145,67);">2<tspan x="1240.64px 1255.7px 1269.05px " y="868px 868px 868px ">023</tspan></text>
                </g>
                <g transform="matrix(1.91396,0,0,1.91396,-507.249,-303.865)">
                    <path d="M719.409,433.603C721.164,433.515 722.568,433.164 723.709,432.462C724.937,431.672 725.639,430.619 725.727,429.127C726.693,416.577 727.57,404.642 728.536,393.321C737.75,391.215 745.648,387.88 752.23,383.317C758.812,378.666 764.166,373.312 768.115,367.257C772.152,361.114 774.872,354.883 776.364,348.477C777.856,342.07 778.119,335.927 777.066,330.311C776.101,324.606 773.819,319.78 770.396,315.918C766.974,312.145 762.41,309.775 756.618,308.81C750.826,307.932 743.893,309.073 735.732,312.145C735.381,309.073 734.152,307.406 732.046,306.967C730.027,306.616 727.658,307.406 725.113,309.424C722.656,311.355 720.549,314.251 718.882,318.112C716.337,324.431 714.231,332.68 712.476,342.86C710.633,353.04 709.229,363.747 708.351,374.98C707.386,386.125 706.947,396.305 707.035,405.432C707.035,414.647 707.737,421.316 709.053,425.617C710.106,428.6 711.598,430.707 713.529,431.847C715.459,433.076 717.39,433.69 719.409,433.603ZM733.889,332.68C740.471,328.731 745.561,326.713 749.247,326.625C752.932,326.625 755.39,327.941 756.706,330.662C757.935,333.382 758.11,336.893 757.32,341.105C756.531,345.317 754.863,349.618 752.318,354.005C749.861,358.481 746.702,362.43 742.928,365.765C739.154,369.188 734.942,371.469 730.203,372.523C731.344,359.71 732.572,346.37 733.889,332.68Z" style="fill:rgb(255,171,45);fill-rule:nonzero;"/>
                    <path d="M791.02,420.263C793.477,420.263 795.759,419.649 797.865,418.508C800.059,417.279 801.99,415.261 803.569,412.453C804.271,414.734 805.412,416.665 806.904,418.245C808.396,419.824 809.976,420.878 811.555,421.404C813.223,422.018 814.715,421.843 815.943,420.965C817.172,420.088 817.874,418.245 818.137,415.612C819.629,396.919 821.296,377.086 823.227,356.287C823.49,352.777 823.139,350.144 822.086,348.564C821.033,346.985 819.717,346.283 817.962,346.546C816.294,346.809 814.451,347.862 812.696,349.793C810.853,351.724 809.273,354.444 807.957,357.955C805.675,364.537 803.657,373.049 801.902,383.492C801.463,384.37 800.849,385.95 799.883,388.231C798.918,390.689 797.865,393.321 796.724,396.042C795.495,398.762 794.355,401.044 793.301,402.712C792.248,404.467 791.371,405.081 790.756,404.467C790.054,403.94 789.791,401.571 789.967,397.358C790.142,392.97 790.669,387.793 791.458,381.737C792.248,375.77 793.126,370.065 793.916,364.8C794.881,358.832 795.408,354.795 795.583,352.865C795.671,350.934 795.144,349.53 794.003,348.564C792.95,347.599 791.546,347.16 789.879,347.336C788.211,347.511 786.544,348.301 784.877,349.705C783.121,351.109 781.717,353.303 780.576,356.199C778.821,360.938 777.329,366.467 776.013,372.786C774.784,379.104 773.907,385.335 773.556,391.391C773.117,397.534 773.292,402.536 774.17,406.573C775.311,410.785 777.505,414.12 780.752,416.577C783.999,419.035 787.422,420.263 791.02,420.263Z" style="fill:rgb(255,171,45);fill-rule:nonzero;"/>
                    <path d="M846.922,354.971L846.922,354.883C847.097,351.724 846.483,349.354 845.079,347.775C843.675,346.195 841.92,345.581 839.814,345.932C837.62,346.283 835.513,347.687 833.495,350.232C831.389,352.777 829.809,356.638 828.58,361.728C827.264,367.784 826.211,374.541 825.421,382.088C824.631,389.636 824.368,396.568 824.543,402.887L824.543,403.063C824.719,406.748 825.158,409.82 825.86,412.189C826.65,414.91 827.966,416.928 829.633,418.245C831.389,419.561 833.144,420.351 835.075,420.527C837.005,420.702 838.673,420.351 839.989,419.561C841.393,418.684 842.183,417.455 842.359,415.875C842.534,413.506 843.148,410.171 844.114,405.783C845.167,401.395 846.483,396.568 847.975,391.391C849.467,386.213 851.047,381.298 852.626,376.647C854.294,371.908 855.786,368.135 857.102,365.326C858.506,362.518 859.559,361.202 860.349,361.465C861.051,361.816 861.314,364.273 861.051,369.012C860.876,370.329 860.612,373.137 860.349,377.525C860.174,381.825 859.91,387.091 859.647,393.321C859.384,399.552 859.033,406.134 858.682,413.067C858.682,414.998 859.559,416.665 861.227,417.982C862.806,419.298 864.737,420 866.843,420.263C868.949,420.439 870.705,420 872.109,418.771C872.723,418.069 873.513,415.875 874.566,412.277C875.619,408.679 876.76,404.379 878.076,399.289C879.831,392.532 881.587,385.862 883.517,379.28C885.448,372.698 887.379,367.52 889.222,363.922C890.275,361.992 890.977,361.202 891.328,361.377C891.679,361.553 891.854,362.518 891.854,364.185C891.854,369.89 891.767,375.419 891.416,380.684C891.065,385.95 890.626,391.303 890.187,396.568C889.66,401.922 889.222,407.451 888.871,413.243C888.783,415.524 889.748,417.279 891.591,418.508C893.434,419.737 895.54,420.351 897.91,420.263C900.191,420.176 902.034,419.21 903.351,417.543C904.755,415.788 905.808,413.769 906.51,411.487C907.212,409.206 907.739,407.099 908.09,405.169C908.792,401.483 909.406,397.183 910.02,392.181C910.635,387.178 910.986,382.176 911.161,376.998C911.337,371.82 911.161,367.169 910.547,362.869C910.02,359.798 909.055,356.902 907.475,354.269C905.984,351.724 903.965,349.618 901.42,348.038C898.963,346.37 895.979,345.581 892.644,345.405C889.397,345.317 886.326,346.019 883.254,347.599C880.27,349.091 877.637,351.46 875.356,354.532C872.899,349.793 870.002,346.985 866.755,346.019C863.421,345.054 859.998,345.405 856.575,347.16C853.065,348.915 849.818,351.548 846.922,354.971Z" style="fill:rgb(255,171,45);fill-rule:nonzero;"/>
                    <path d="M929.415,462.387C930.468,461.861 931.083,460.983 931.346,459.842C931.697,458.702 931.872,457.385 931.96,455.718C932.662,447.381 933.628,435.007 934.856,418.596C936.699,419.21 938.454,419.649 940.297,419.912C945.65,420.527 950.74,419.649 955.479,417.279C959.78,415.086 963.729,412.014 967.151,408.065C970.574,404.028 973.47,399.464 975.752,394.374C978.033,389.197 979.525,384.019 980.227,378.753C981.193,371.82 981.017,365.941 979.789,361.202C978.56,356.463 976.541,352.865 973.821,350.232C970.311,347.16 966.537,345.581 962.5,345.405C958.375,345.23 954.339,346.107 950.389,347.95C946.528,349.881 943.105,352.338 940.209,355.41L939.683,356.024L940.034,351.636C940.297,348.652 939.771,346.722 938.454,345.668C937.226,344.615 935.646,344.352 933.628,344.879C931.697,345.405 929.766,346.546 927.835,348.301C925.905,350.056 924.413,352.25 923.272,354.883C920.99,360.587 919.06,367.871 917.392,376.91C915.813,385.862 914.584,395.34 913.794,405.344C912.916,415.261 912.653,424.651 912.829,433.339C913.092,442.115 913.882,449.048 915.286,454.226C915.9,456.42 916.778,458.087 917.919,459.404C918.972,460.72 920.113,461.685 921.429,462.3C922.57,462.826 923.974,463.177 925.466,463.177C926.958,463.265 928.274,463.002 929.415,462.387ZM961.798,361.553C963.378,363.045 964.08,365.853 963.729,370.065C963.465,374.014 962.5,378.402 960.92,383.141C959.253,387.968 957.147,392.268 954.514,396.217C951.881,400.254 948.898,402.975 945.563,404.554C943.808,405.432 942.14,405.432 940.648,404.642C939.156,403.852 937.664,402.361 936.26,400.167C936.611,398.06 937.401,395.252 938.718,391.654C940.034,388.056 941.701,384.282 943.632,380.333C945.563,376.296 947.581,372.698 949.775,369.363C951.969,366.028 954.075,363.571 956.181,361.992C958.288,360.412 960.131,360.236 961.798,361.553Z" style="fill:rgb(255,171,45);fill-rule:nonzero;"/>
                    <path d="M994.356,318.99C992.075,324.694 990.144,331.978 988.477,340.929C986.809,349.969 985.581,359.447 984.791,369.363C984.001,379.368 983.65,388.758 983.913,397.446C984.089,406.134 984.879,413.155 986.37,418.333C986.985,420.439 987.862,422.194 988.915,423.51C989.969,424.827 991.197,425.792 992.426,426.406C993.654,426.933 994.971,427.196 996.463,427.284C997.955,427.372 999.359,427.108 1000.5,426.494C1001.47,425.88 1002.08,425.09 1002.43,423.949C1002.69,422.808 1002.87,421.404 1003.05,419.824C1003.4,414.647 1004.01,407.451 1004.71,398.06C1012.26,397.446 1019.81,396.832 1027.44,396.305C1029.46,396.13 1030.69,395.428 1031.3,394.374C1031.83,393.234 1031.83,391.917 1031.3,390.513C1030.78,389.109 1029.81,387.793 1028.41,386.564C1027.09,385.335 1025.42,384.633 1023.49,384.194C1019.89,383.668 1015.15,383.405 1009.27,383.492C1015.51,376.121 1022.53,367.608 1030.6,358.13C1032.36,355.848 1033.23,353.742 1033.06,351.636C1032.97,349.618 1032.01,347.95 1030.34,346.809C1028.67,345.668 1026.39,345.405 1023.58,345.844C1020.77,346.37 1017.61,348.038 1014.01,350.934C1012,352.601 1009.98,354.444 1007.87,356.463C1008.57,346.897 1009.27,338.472 1009.8,331.188C1010.42,323.817 1010.86,318.639 1011.12,315.743C1011.29,312.759 1010.77,310.74 1009.54,309.775C1008.22,308.722 1006.64,308.459 1004.71,308.985C1002.69,309.512 1000.76,310.653 998.832,312.408C996.989,314.163 995.41,316.357 994.356,318.99Z" style="fill:rgb(255,171,45);fill-rule:nonzero;"/>
                    <path d="M1038.5,364.8C1037.18,369.627 1036.04,374.98 1035.25,380.772C1034.37,386.652 1033.94,392.444 1033.85,397.973C1033.76,403.589 1034.29,408.328 1035.34,412.189C1036.13,414.91 1037.45,416.928 1039.2,418.245C1040.87,419.561 1042.71,420.351 1044.55,420.527C1046.49,420.702 1048.15,420.351 1049.56,419.561C1050.96,418.684 1051.66,417.455 1051.84,415.875C1052.54,405.608 1053.15,396.656 1053.68,388.933C1054.3,381.298 1054.91,372.523 1055.7,362.43C1055.79,359.798 1055.26,357.604 1053.94,356.024C1052.63,354.357 1051.05,353.567 1049.03,353.391C1047.1,353.303 1045.08,354.181 1043.15,355.936C1041.22,357.779 1039.64,360.675 1038.5,364.8Z" style="fill:rgb(255,171,45);fill-rule:nonzero;"/>
                    <path d="M1107.21,419.298C1109.41,417.631 1111.16,414.296 1112.57,409.206C1113.97,404.203 1114.94,398.411 1115.55,392.005C1116.17,385.599 1116.34,379.456 1116.17,373.663C1115.99,367.959 1115.46,363.483 1114.59,360.412C1112.92,355.322 1110.29,351.46 1106.78,348.915C1103.27,346.37 1099.23,345.317 1094.66,345.668C1090.1,346.107 1085.45,348.126 1080.62,351.812C1080.18,349.705 1079.22,348.213 1077.82,347.16C1076.41,346.107 1074.83,345.668 1072.99,345.932C1071.23,346.107 1069.48,347.16 1067.72,349.003C1066.06,350.758 1064.74,353.567 1063.69,357.253C1062.37,362.079 1061.23,368.135 1060.26,375.155C1059.21,382.264 1058.68,389.197 1058.51,396.042C1058.33,402.799 1058.77,408.24 1059.82,412.189C1060.61,414.91 1061.93,416.928 1063.6,418.245C1065.35,419.561 1067.11,420.351 1069.04,420.527C1070.97,420.702 1072.64,420.351 1073.95,419.561C1075.36,418.684 1076.15,417.455 1076.32,415.875C1076.5,414.032 1076.94,410.961 1077.82,406.748C1078.69,402.536 1079.75,397.797 1081.06,392.532C1082.38,387.266 1083.78,382.176 1085.36,377.174C1086.85,372.259 1088.35,368.135 1089.84,364.888C1091.33,361.553 1092.65,359.798 1093.88,359.534C1095.02,359.271 1095.98,361.114 1096.6,365.239C1097.12,369.275 1097.21,374.98 1096.86,382.176C1096.51,389.46 1096.07,396.568 1095.54,403.414C1095.19,407.538 1094.93,411.136 1094.84,413.945C1094.75,416.314 1095.45,417.982 1096.77,418.859C1098.09,419.737 1099.67,420.176 1101.42,420.263C1104.06,420.527 1105.99,420.176 1107.21,419.298Z" style="fill:rgb(255,171,45);fill-rule:nonzero;"/>
                </g>
                <g transform="matrix(2.37698,0,0,2.37698,-818.783,-284.052)">
                    <g transform="matrix(179.73,0,0,179.73,1015.16,420)">
                    </g>
                    <text x="708px" y="420px" style="font-family:'CottonButter', 'Cotton Butter';font-size:179.73px;fill:rgb(242,125,15);">C<tspan x="790.581px " y="420px ">h</tspan>as<tspan x="961.886px " y="420px ">e</tspan></text>
                </g>
                <g transform="matrix(1.91396,0,0,1.91396,-507.249,-303.865)">
                    <g transform="matrix(0.890607,0,0,0.890607,343.251,203.063)">
                        <path d="M806.429,145.442C806.189,146.983 805.695,148.901 805.575,149.381C804.294,153.816 803.323,157.969 800.761,159.841C795.668,163.367 787.248,161.048 785.459,156.505C784.178,153.254 784.959,148.617 786.24,142.803C787.565,138.122 790.653,127.473 794.125,126C799.625,123.667 805.794,127.633 807.067,132C807.671,134.069 807.364,138.277 806.928,141.859C806.822,142.989 806.656,144.183 806.429,145.442Z" style="fill:rgb(73,145,67);"/>
                    </g>
                    <g transform="matrix(0.890607,0,0,0.890607,343.241,204.227)">
                        <clipPath id="_clip1">
                            <path d="M806.441,144.134C806.202,145.675 805.707,147.593 805.587,148.074C804.306,152.508 803.336,156.661 800.774,158.533C795.68,162.06 787.261,159.74 785.471,155.198C784.19,151.946 784.971,147.309 786.252,141.495C787.577,136.814 790.665,126.165 794.137,124.692C799.637,122.359 805.806,126.325 807.079,130.692C807.683,132.761 807.377,136.97 806.94,140.551C806.834,141.681 806.668,142.876 806.441,144.134Z"/>
                        </clipPath>
                        <g clip-path="url(#_clip1)">
                            <path d="M800.636,124.001C803.253,128.576 802.889,136.568 801.466,144.157C799.963,152.172 797.164,159.7 791,160.797C781.128,172.915 803,168.787 803,168.787L823,141L809,115C809,115 794.592,113.431 800.636,124.001Z" style="fill:rgb(113,175,108);"/>
                        </g>
                    </g>
                    <g transform="matrix(0.890607,0,0,0.890607,343.251,203.063)">
                        <path d="M806.429,145.442C806.189,146.983 805.695,148.901 805.575,149.381C804.294,153.816 803.323,157.969 800.761,159.841C795.668,163.367 787.248,161.048 785.459,156.505C784.178,153.254 784.959,148.617 786.24,142.803C787.565,138.122 790.653,127.473 794.125,126C799.625,123.667 805.794,127.633 807.067,132C807.671,134.069 807.364,138.277 806.928,141.859C806.822,142.989 806.656,144.183 806.429,145.442Z" style="fill:none;"/>
                    </g>
                </g>
            </g>
            <g id="Car-and-Pumpkins" serif:id="Car and Pumpkins" transform="matrix(0.68475,0,0,0.68475,365.822,774.974)">
                <g id="Pumpkins">
                    <g id="Pumpkin" transform="matrix(0.583747,-0.337026,0.337026,0.583747,179.9,309.693)">
                        <g id="Stem" transform="matrix(1,0,0,1,131.945,10.2071)">
                            <g transform="matrix(0.996777,0.0802216,-0.0802216,0.996777,-152.723,-3.68332)">
                                <path d="M662.889,331.125C664,320 622.231,339.221 614.031,319.108C629.034,310.686 631.681,265.033 626.745,247.443C625.022,241.302 627.485,240.678 630.051,239.202C634.748,236.5 646.287,231.196 652.367,227.379C657.302,224.281 657.98,227.27 659.397,231.059C670.841,261.665 673.374,290.622 662.889,331.125Z" style="fill:rgb(73,145,67);"/>
                            </g>
                            <clipPath id="_clip2">
                                <path d="M481.466,379.552C483.466,368.552 440.29,384.361 433.73,363.655C449.36,356.463 455.661,311.17 452.152,293.241C450.927,286.981 453.432,286.556 456.108,285.291C461.008,282.975 472.934,278.614 479.301,275.297C484.469,272.604 484.905,275.639 486.013,279.529C494.965,310.954 495.166,340.021 481.466,379.552Z"/>
                            </clipPath>
                            <g clip-path="url(#_clip2)">
                                <path d="M471.622,274.272C480.706,290.428 486.194,334.143 471.134,368.317C454.041,407.102 495,393 495,393L505,265C505,265 462.539,258.117 471.622,274.272Z" style="fill:rgb(113,175,108);"/>
                            </g>
                        </g>
                        <g id="Main-Part" serif:id="Main Part" transform="matrix(1,0,0,1,50.945,60.2071)">
                            <g transform="matrix(1,0,0,1,-120.462,-4)">
                                <path d="M563.99,696C387.563,675.66 404.234,325.543 586.569,315.395C631.254,312.908 687.063,320.585 745.219,339.761C860.987,377.932 868.366,675.945 683.68,694C657.804,696.53 595.39,699.62 563.99,696Z" style="fill:rgb(242,125,15);"/>
                            </g>
                            <g>
                                <clipPath id="_clip3">
                                    <path d="M443.529,692C267.101,671.66 283.772,321.543 466.108,311.395C510.792,308.908 566.602,316.585 624.757,335.761C740.525,373.932 747.904,671.945 563.218,690C537.342,692.53 474.928,695.62 443.529,692Z"/>
                                </clipPath>
                                <g clip-path="url(#_clip3)">
                                    <path d="M605,685C563.816,710.504 533,732 533,732L551,283C551,283 582.151,300.531 611,331C708.798,434.288 652.634,655.501 605,685Z" style="fill:rgb(244,136,29);"/>
                                    <path d="M434,693.653C384.207,641.315 337.038,428.283 436,318.552C545.302,197.357 504,310.941 504,310.941L499.304,753C499.304,753 484.146,746.362 434,693.653Z" style="fill:rgb(248,144,41);"/>
                                    <path d="M557,693.653C494.11,764.322 499.304,749 499.304,749L526,292C526,292 550.278,296.675 572.218,324C628.443,394.026 625.525,616.651 557,693.653Z" style="fill:rgb(247,148,53);"/>
                                    <path d="M480,693.653C451.158,656.235 421.776,408.433 504,310.941C575.175,226.551 529.893,310.941 529.893,310.941C529.893,310.941 525.467,279.456 530,310.941C538.154,367.577 542.527,628.192 515.99,693.653C490.491,756.557 495.65,713.957 480,693.653Z" style="fill:rgb(252,158,65);"/>
                                </g>
                            </g>
                        </g>
                    </g>
                    <g id="Pumpkin1" serif:id="Pumpkin" transform="matrix(0.281403,0.162468,-0.162468,0.281403,78.4864,358.293)">
                        <g id="Stem1" serif:id="Stem" transform="matrix(1,0,0,1,131.945,10.2071)">
                            <g transform="matrix(0.996777,0.0802216,-0.0802216,0.996777,-152.723,-3.68332)">
                                <path d="M662.889,331.125C664,320 622.231,339.221 614.031,319.108C629.034,310.686 631.681,265.033 626.745,247.443C625.022,241.302 627.485,240.678 630.051,239.202C634.748,236.5 646.287,231.196 652.367,227.379C657.302,224.281 657.98,227.27 659.397,231.059C670.841,261.665 673.374,290.622 662.889,331.125Z" style="fill:rgb(73,145,67);"/>
                            </g>
                            <clipPath id="_clip4">
                                <path d="M481.466,379.552C483.466,368.552 440.29,384.361 433.73,363.655C449.36,356.463 455.661,311.17 452.152,293.241C450.927,286.981 453.432,286.556 456.108,285.291C461.008,282.975 472.934,278.614 479.301,275.297C484.469,272.604 484.905,275.639 486.013,279.529C494.965,310.954 495.166,340.021 481.466,379.552Z"/>
                            </clipPath>
                            <g clip-path="url(#_clip4)">
                                <path d="M471.622,274.272C480.706,290.428 486.194,334.143 471.134,368.317C454.041,407.102 495,393 495,393L505,265C505,265 462.539,258.117 471.622,274.272Z" style="fill:rgb(113,175,108);"/>
                            </g>
                        </g>
                        <g id="Main-Part1" serif:id="Main Part" transform="matrix(1,0,0,1,50.945,60.2071)">
                            <g transform="matrix(1,0,0,1,-120.462,-4)">
                                <path d="M563.99,696C387.563,675.66 404.234,325.543 586.569,315.395C631.254,312.908 687.063,320.585 745.219,339.761C860.987,377.932 868.366,675.945 683.68,694C657.804,696.53 595.39,699.62 563.99,696Z" style="fill:rgb(242,125,15);"/>
                            </g>
                            <g>
                                <clipPath id="_clip5">
                                    <path d="M443.529,692C267.101,671.66 283.772,321.543 466.108,311.395C510.792,308.908 566.602,316.585 624.757,335.761C740.525,373.932 747.904,671.945 563.218,690C537.342,692.53 474.928,695.62 443.529,692Z"/>
                                </clipPath>
                                <g clip-path="url(#_clip5)">
                                    <path d="M605,685C563.816,710.504 533,732 533,732L551,283C551,283 582.151,300.531 611,331C708.798,434.288 652.634,655.501 605,685Z" style="fill:rgb(244,136,29);"/>
                                    <path d="M434,693.653C384.207,641.315 337.038,428.283 436,318.552C545.302,197.357 504,310.941 504,310.941L499.304,753C499.304,753 484.146,746.362 434,693.653Z" style="fill:rgb(248,144,41);"/>
                                    <path d="M557,693.653C494.11,764.322 499.304,749 499.304,749L526,292C526,292 550.278,296.675 572.218,324C628.443,394.026 625.525,616.651 557,693.653Z" style="fill:rgb(247,148,53);"/>
                                    <path d="M480,693.653C451.158,656.235 421.776,408.433 504,310.941C575.175,226.551 529.893,310.941 529.893,310.941C529.893,310.941 525.467,279.456 530,310.941C538.154,367.577 542.527,628.192 515.99,693.653C490.491,756.557 495.65,713.957 480,693.653Z" style="fill:rgb(252,158,65);"/>
                                </g>
                            </g>
                        </g>
                    </g>
                    <g id="Pumpkin2" serif:id="Pumpkin" transform="matrix(-0.35583,0.312062,0.312062,0.35583,694.467,133.289)">
                        <g id="Stem2" serif:id="Stem" transform="matrix(1,0,0,1,131.945,10.2071)">
                            <g transform="matrix(0.996777,0.0802216,-0.0802216,0.996777,-152.723,-3.68332)">
                                <path d="M662.889,331.125C664,320 622.231,339.221 614.031,319.108C629.034,310.686 631.681,265.033 626.745,247.443C625.022,241.302 627.485,240.678 630.051,239.202C634.748,236.5 646.287,231.196 652.367,227.379C657.302,224.281 657.98,227.27 659.397,231.059C670.841,261.665 673.374,290.622 662.889,331.125Z" style="fill:rgb(73,145,67);"/>
                            </g>
                            <clipPath id="_clip6">
                                <path d="M481.466,379.552C483.466,368.552 440.29,384.361 433.73,363.655C449.36,356.463 455.661,311.17 452.152,293.241C450.927,286.981 453.432,286.556 456.108,285.291C461.008,282.975 472.934,278.614 479.301,275.297C484.469,272.604 484.905,275.639 486.013,279.529C494.965,310.954 495.166,340.021 481.466,379.552Z"/>
                            </clipPath>
                            <g clip-path="url(#_clip6)">
                                <path d="M471.622,274.272C480.706,290.428 486.194,334.143 471.134,368.317C454.041,407.102 495,393 495,393L505,265C505,265 462.539,258.117 471.622,274.272Z" style="fill:rgb(113,175,108);"/>
                            </g>
                        </g>
                        <g id="Main-Part2" serif:id="Main Part" transform="matrix(1,0,0,1,50.945,60.2071)">
                            <g transform="matrix(1,0,0,1,-120.462,-4)">
                                <path d="M563.99,696C387.563,675.66 404.234,325.543 586.569,315.395C631.254,312.908 687.063,320.585 745.219,339.761C860.987,377.932 868.366,675.945 683.68,694C657.804,696.53 595.39,699.62 563.99,696Z" style="fill:rgb(242,125,15);"/>
                            </g>
                            <g>
                                <clipPath id="_clip7">
                                    <path d="M443.529,692C267.101,671.66 283.772,321.543 466.108,311.395C510.792,308.908 566.602,316.585 624.757,335.761C740.525,373.932 747.904,671.945 563.218,690C537.342,692.53 474.928,695.62 443.529,692Z"/>
                                </clipPath>
                                <g clip-path="url(#_clip7)">
                                    <path d="M605,685C563.816,710.504 533,732 533,732L551,283C551,283 582.151,300.531 611,331C708.798,434.288 652.634,655.501 605,685Z" style="fill:rgb(244,136,29);"/>
                                    <path d="M434,693.653C384.207,641.315 337.038,428.283 436,318.552C545.302,197.357 504,310.941 504,310.941L499.304,753C499.304,753 484.146,746.362 434,693.653Z" style="fill:rgb(248,144,41);"/>
                                    <path d="M557,693.653C494.11,764.322 499.304,749 499.304,749L526,292C526,292 550.278,296.675 572.218,324C628.443,394.026 625.525,616.651 557,693.653Z" style="fill:rgb(247,148,53);"/>
                                    <path d="M480,693.653C451.158,656.235 421.776,408.433 504,310.941C575.175,226.551 529.893,310.941 529.893,310.941C529.893,310.941 525.467,279.456 530,310.941C538.154,367.577 542.527,628.192 515.99,693.653C490.491,756.557 495.65,713.957 480,693.653Z" style="fill:rgb(252,158,65);"/>
                                </g>
                            </g>
                        </g>
                    </g>
                    <g id="Pumpkin3" serif:id="Pumpkin" transform="matrix(-0.403252,-0.0918046,-0.0898148,0.394512,1036.94,246.643)">
                        <g id="Stem3" serif:id="Stem" transform="matrix(1,0,0,1,131.945,10.2071)">
                            <g transform="matrix(0.996777,0.0802216,-0.0802216,0.996777,-152.723,-3.68332)">
                                <path d="M662.889,331.125C664,320 622.231,339.221 614.031,319.108C629.034,310.686 631.681,265.033 626.745,247.443C625.022,241.302 627.485,240.678 630.051,239.202C634.748,236.5 646.287,231.196 652.367,227.379C657.302,224.281 657.98,227.27 659.397,231.059C670.841,261.665 673.374,290.622 662.889,331.125Z" style="fill:rgb(73,145,67);"/>
                            </g>
                            <clipPath id="_clip8">
                                <path d="M481.466,379.552C483.466,368.552 440.29,384.361 433.73,363.655C449.36,356.463 455.661,311.17 452.152,293.241C450.927,286.981 453.432,286.556 456.108,285.291C461.008,282.975 472.934,278.614 479.301,275.297C484.469,272.604 484.905,275.639 486.013,279.529C494.965,310.954 495.166,340.021 481.466,379.552Z"/>
                            </clipPath>
                            <g clip-path="url(#_clip8)">
                                <path d="M471.622,274.272C480.706,290.428 486.194,334.143 471.134,368.317C454.041,407.102 495,393 495,393L505,265C505,265 462.539,258.117 471.622,274.272Z" style="fill:rgb(113,175,108);"/>
                            </g>
                        </g>
                        <g id="Main-Part3" serif:id="Main Part" transform="matrix(1,0,0,1,50.945,60.2071)">
                            <g transform="matrix(1,0,0,1,-120.462,-4)">
                                <path d="M563.99,696C387.563,675.66 404.234,325.543 586.569,315.395C631.254,312.908 687.063,320.585 745.219,339.761C860.987,377.932 868.366,675.945 683.68,694C657.804,696.53 595.39,699.62 563.99,696Z" style="fill:rgb(242,125,15);"/>
                            </g>
                            <g>
                                <clipPath id="_clip9">
                                    <path d="M443.529,692C267.101,671.66 283.772,321.543 466.108,311.395C510.792,308.908 566.602,316.585 624.757,335.761C740.525,373.932 747.904,671.945 563.218,690C537.342,692.53 474.928,695.62 443.529,692Z"/>
                                </clipPath>
                                <g clip-path="url(#_clip9)">
                                    <path d="M605,685C563.816,710.504 533,732 533,732L551,283C551,283 582.151,300.531 611,331C708.798,434.288 652.634,655.501 605,685Z" style="fill:rgb(244,136,29);"/>
                                    <path d="M434,693.653C384.207,641.315 337.038,428.283 436,318.552C545.302,197.357 504,310.941 504,310.941L499.304,753C499.304,753 484.146,746.362 434,693.653Z" style="fill:rgb(248,144,41);"/>
                                    <path d="M557,693.653C494.11,764.322 499.304,749 499.304,749L526,292C526,292 550.278,296.675 572.218,324C628.443,394.026 625.525,616.651 557,693.653Z" style="fill:rgb(247,148,53);"/>
                                    <path d="M480,693.653C451.158,656.235 421.776,408.433 504,310.941C575.175,226.551 529.893,310.941 529.893,310.941C529.893,310.941 525.467,279.456 530,310.941C538.154,367.577 542.527,628.192 515.99,693.653C490.491,756.557 495.65,713.957 480,693.653Z" style="fill:rgb(252,158,65);"/>
                                </g>
                            </g>
                        </g>
                    </g>
                </g>
                <g id="Car" transform="matrix(1,0,0,1,229.569,0)">
                    <g id="Lower-Fill" serif:id="Lower Fill">
                        <clipPath id="_clip10">
                            <path d="M1451.43,649.956L1471.52,647.771L1477.02,667.42C1477.02,667.42 1532.76,661.946 1547.67,659.242C1562.59,656.539 1582.83,655.141 1587.59,644.789C1592.36,634.438 1588.45,635.649 1588.04,621.914C1587.63,608.18 1595.76,578.946 1587,556.235C1578.24,533.524 1560.56,493.836 1529.24,477.612C1466.88,445.304 1411.99,425.253 1308.5,415.034C1286.29,412.841 1282.33,410.876 1281.01,410.474C1264.74,405.5 1105.34,296.362 979.826,283.011C875.931,271.959 663.311,281.586 592.364,296.036C592.343,295.792 600.338,166.408 596.402,170.166C595.336,171.185 485.236,158.581 394.178,180.916C326.301,197.564 270.83,248.364 269.195,259.616C266.018,281.481 333.817,314.963 415.821,322.901C487.614,329.851 579.598,308.784 579.598,308.784C579.598,308.784 478.428,390.465 471.441,398.579C464.454,406.694 464.327,407.022 459.591,407.671C449.927,408.995 434.607,410.19 429.326,439.219C424.045,468.248 429.199,486.539 429.199,486.539C429.199,486.539 403.4,506.782 399.654,527.698C395.666,549.969 401.539,602.926 402.756,611.873C406.787,622.722 408.295,624.552 419.824,627.724C431.352,630.896 493.615,640.795 493.615,640.795L506.204,627.922L513.034,627.75L503.996,733.035L688.198,740.267L696.901,646.005L720.917,646.852L721.964,660.267L1247.3,667.033L1254.58,655.33L1271,655.365L1279.31,728.45L1433.04,738.658L1451.43,649.956Z"/>
                        </clipPath>
                        <g clip-path="url(#_clip10)">
                            <g id="Hatch-Outline" serif:id="Hatch Outline" transform="matrix(0.512837,0.858486,-0.858486,0.512837,539.669,-368.195)">
                                <path d="M598.016,295.472C598.016,295.472 566.057,289.004 564.456,299.4C563.09,308.27 561.889,310.765 561.889,310.765L473.541,383.363C473.541,383.363 456.133,397.182 448.788,406.923C413.362,453.908 427.151,512.48 427.151,512.48C428.043,517.774 447.481,517.958 447.158,511.928C447.045,509.82 434.707,446.373 468.969,415.74C498.411,389.416 568.689,331.47 596.359,315.579C620.963,303.519 616.707,298.016 598.016,295.472Z" style="fill:rgb(89,189,252);"/>
                            </g>
                            <path id="Main-Body-Color" serif:id="Main Body Color" d="M1451.43,649.956L1471.52,647.771L1477.02,667.42C1477.02,667.42 1532.76,661.946 1547.67,659.242C1562.59,656.539 1582.83,655.141 1587.59,644.789C1592.36,634.438 1588.45,635.649 1588.04,621.914C1587.63,608.18 1595.76,578.946 1587,556.235C1578.24,533.524 1560.56,493.836 1529.24,477.612C1466.88,445.304 1425.77,422.34 1322.3,411.908C1276.53,407.293 1273.83,398.051 1257.58,393.02C1241.32,387.989 1105.34,296.362 979.826,283.011C875.931,271.959 663.311,281.586 592.364,296.036C592.318,295.498 574.8,312.58 574.8,312.58C574.8,312.58 471.838,394.199 464.851,402.313C457.864,410.428 447.795,411.421 447.795,411.421C447.795,411.421 434.607,410.19 429.326,439.219C424.045,468.248 429.199,486.539 429.199,486.539C429.199,486.539 403.4,506.782 399.654,527.698C395.666,549.969 401.539,602.926 402.756,611.873C406.787,622.722 408.295,624.552 419.824,627.724C431.352,630.896 493.615,640.795 493.615,640.795L506.204,627.922L513.034,627.75L696.901,646.005L720.917,646.852L721.964,660.267L1247.3,667.033L1254.58,655.33L1269.15,655.036L1451.43,649.956Z" style="fill:rgb(89,189,252);"/>
                            <path d="M495.777,634.193C492.727,590.679 511.635,559.542 545.096,536.607C576.291,519.189 608.745,516.526 641.998,523.244C671.481,532.472 692.25,550.74 705.723,576.577C716.104,599.801 721.016,623.754 722.053,648.222L697.811,646.64L516.199,628.426L505.83,627.172L495.777,634.193Z"/>
                            <path d="M1271.65,655.322L1254.21,656.002L1246.77,667.42C1246.69,658.313 1246.52,576.369 1302.92,542.066C1339.74,519.672 1394.61,525.611 1428.88,551.787C1472.48,585.089 1473.62,645.599 1473.57,652.803L1442.19,652.451C1442.76,626.84 1438.78,610.972 1426.35,593.178C1409.08,572.65 1399.27,565.415 1374.5,563.143C1346.57,560.366 1328.6,561.144 1311.67,574.659C1292.57,587.005 1281.58,602.743 1278.93,631.131L1271.65,655.322Z"/>
                            <g transform="matrix(1.02045,0,0,1.02045,-11.5117,-16.4959)">
                                <circle cx="604.27" cy="637.735" r="89.911" style="fill:rgb(39,39,39);"/>
                            </g>
                            <g transform="matrix(0.708418,0,0,0.708418,177.037,182.495)">
                                <path d="M604.27,547.824C653.893,547.824 694.181,588.111 694.181,637.735C694.181,687.358 655.128,723.664 606.387,727.811C556.943,732.017 514.359,687.358 514.359,637.735C514.359,588.111 554.647,547.824 604.27,547.824Z" style="fill:rgb(223,223,223);"/>
                            </g>
                            <g transform="matrix(1.02045,0,0,1.02045,744.885,-10.9724)">
                                <circle cx="604.27" cy="637.735" r="89.911" style="fill:rgb(39,39,39);"/>
                            </g>
                            <g transform="matrix(0.70277,0,0,0.70277,936.847,191.62)">
                                <path d="M604.27,547.824C653.868,549.401 694.181,588.111 694.181,637.735C694.181,687.358 653.893,727.646 604.27,727.646C554.647,727.646 514.359,687.358 514.359,637.735C514.359,588.111 548.938,546.064 604.27,547.824Z" style="fill:rgb(223,223,223);"/>
                            </g>
                            <path d="M440.655,410.91C457.917,402.933 511.669,410.82 511.132,422.289C511.591,434.248 501.166,449.695 470.844,471.518C455.905,481.393 440.813,486.782 425.511,486.036L425.84,459.536L430.393,429.046L440.655,410.91Z" style="fill:rgb(255,235,153);"/>
                            <path d="M1559.64,531.519C1559.64,531.519 1526.01,526.332 1496.35,512.857C1466.7,499.383 1450.38,486.881 1449.63,478.777C1448.89,470.672 1474.82,470.079 1506.09,478.777C1539.64,488.108 1557.41,520.898 1559.64,531.519Z" style="fill:rgb(255,235,153);"/>
                            <path d="M481.45,386.083C487.544,395.946 532.308,389.433 566.539,369.486C596.698,351.911 628.227,328.379 615.685,319.785C606.562,313.533 572.816,309.861 570.751,313.885L481.45,386.083Z" style="fill:rgb(40,54,62);"/>
                        </g>
                    </g>
                    <g id="Stroke">
                        <g id="Door-Handle" serif:id="Door Handle">
                            <path d="M682.679,434.543C689.251,422.761 705.116,425.633 707.52,437.646" style="fill:none;stroke:rgb(72,156,209);stroke-width:2.92px;"/>
                            <path d="M663.462,434.546C673.846,434.758 713.875,438.079 723.02,439.332C732.166,440.585 732.394,448.886 720.052,448.15C707.709,447.414 667.999,444.814 660.801,442.804C653.602,440.795 655.697,434.386 663.462,434.546Z" style="fill:none;stroke:rgb(72,156,209);stroke-width:2.92px;"/>
                            <path d="M682.679,446.342C685.122,459.453 702.866,460.041 707.52,448.196" style="fill:none;stroke:rgb(72,156,209);stroke-width:2.92px;"/>
                        </g>
                        <g id="Door-Handle1" serif:id="Door Handle" transform="matrix(1,0,0,1,287.465,24.4643)">
                            <path d="M682.679,434.543C689.251,422.761 705.116,425.633 707.52,437.646" style="fill:none;stroke:rgb(72,156,209);stroke-width:2.92px;"/>
                            <path d="M663.462,434.546C673.846,434.758 713.875,438.079 723.02,439.332C732.166,440.585 732.394,448.886 720.052,448.15C707.709,447.414 667.999,444.814 660.801,442.804C653.602,440.795 655.697,434.386 663.462,434.546Z" style="fill:none;stroke:rgb(72,156,209);stroke-width:2.92px;"/>
                            <path d="M682.679,446.342C685.122,459.453 702.866,460.041 707.52,448.196" style="fill:none;stroke:rgb(72,156,209);stroke-width:2.92px;"/>
                        </g>
                        <path d="M733.567,609.056C755.727,610.882 885.784,617.479 1005.43,619.933C1104.93,621.973 1195.71,634.007 1211.55,644.795" style="fill:none;stroke:rgb(72,156,209);stroke-width:2.92px;"/>
                        <path d="M924.365,646.573C924.365,646.573 937.261,595.121 935.695,530.205C934.741,490.614 931.138,449.14 927.063,413.2" style="fill:none;stroke:rgb(72,156,209);stroke-width:2.92px;"/>
                        <path d="M1565.5,621.512C1565.5,621.512 1543.91,627.742 1533.01,621.324C1522.1,614.906 1526.78,598.951 1529.73,593.144C1532.69,587.338 1547.55,585.635 1559.64,594.189C1571.74,602.744 1574.6,619.695 1565.5,621.512Z" style="fill:none;stroke:rgb(72,156,209);stroke-width:2.92px;"/>
                        <path d="M465.229,472.957C465.229,472.957 461.834,494.72 475.399,500C482.645,502.821 506.485,509.181 525.75,516.658C542.55,523.178 555.517,531.104 555.517,531.104" style="fill:none;stroke:rgb(72,156,209);stroke-width:2.92px;"/>
                        <g transform="matrix(0.945058,0,0,1,24.6074,1.25999)">
                            <path d="M605.948,436.386C605.948,430.007 601.181,427.032 594.802,427.032L551.009,425.772C540.114,425.597 535.76,432.211 535.76,438.59L535.76,461.882C535.76,468.261 540.939,473.44 547.318,473.44L594.802,473.44C601.181,473.44 606.36,468.261 606.36,461.882L605.948,436.386Z" style="fill:none;stroke:rgb(72,156,209);stroke-width:3px;"/>
                        </g>
                        <path d="M666.828,364.825C660.33,380.841 607.767,461.532 662.078,510.133C691.583,536.536 710.191,529.322 729.498,597.074C740.028,634.027 743.773,634.605 757.592,637.916C790.912,645.898 1191.32,651.87 1210.17,646.573C1238.03,638.746 1253.29,575.723 1255.58,517.364C1257.37,472.026 1251.82,438.102 1233.2,421.19" style="fill:none;stroke:rgb(72,156,209);stroke-width:2.92px;"/>
                        <g transform="matrix(1,0,0,1,-229.569,0)">
                            <path d="M1463.28,421.115C1481.87,421.379 1502.41,421.302 1516.14,414.566" style="fill:none;stroke:rgb(72,156,209);stroke-width:2.92px;"/>
                        </g>
                    </g>
                    <g id="Windows">
                        <clipPath id="_clip11">
                            <path d="M651.816,392.42C651.816,392.42 870.031,405.705 927.287,414.055C958.532,418.611 1032.03,426.47 1097.33,430.819C1209.46,438.289 1234.12,421.19 1234.12,421.19C1234.12,421.19 1173.57,373.749 1098.23,341.72C1044.9,319.046 985.695,307.673 919.398,305.907C815.153,303.13 734.436,305.895 706.873,315.631C679.309,325.367 651.816,392.42 651.816,392.42Z"/>
                        </clipPath>
                        <g clip-path="url(#_clip11)">
                            <g id="Windows1" serif:id="Windows">
                                <path d="M662.474,395.687L679.381,368.809C684.773,352.911 710.274,323.115 719.904,322.249C756.594,318.952 857.813,307.759 887.953,312.201C907.799,310.859 911.476,402.363 909.707,426.342L662.474,395.687Z" style="fill:rgb(40,54,62);"/>
                                <path d="M943.566,416.967L923.991,315.117C923.991,315.117 993.37,315.229 1039.14,328.232C1085.61,341.433 1187.99,399.13 1186.82,401.107L1224.03,430.153C1193.21,437.655 1174.03,461.226 1140.12,459.026C1101.76,456.41 1034.12,448.583 994.684,441.397L943.566,416.967Z" style="fill:rgb(40,54,62);"/>
                            </g>
                            <path id="Pillars" d="M632.921,396.111C632.921,396.111 689.905,307.435 699.099,304.548C704.056,303.987 708.954,303.457 713.803,302.957C774.747,296.673 827.78,295.138 889.339,297.223L994.684,302.702C1069.01,311.995 1152.72,360.542 1234.12,421.482L1223.39,441.397C1223.39,441.397 1162.9,385.098 1086.64,352.01C1027.05,326.155 950.89,321.63 932.096,322.072C935.79,346.798 945.254,386.286 951.583,423.772L903.692,427.373C901.773,395.343 896.832,346.382 893.408,322.072C827.651,318.621 733.505,320.847 712.742,332.651C699.881,339.962 679.995,371.686 671.093,395.908L632.921,396.111Z" style="fill:rgb(31,39,49);"/>
                        </g>
                    </g>
                </g>
                <g transform="matrix(1.46039,0,0,1.46039,-510.913,-1198.99)">
                    <path d="M830.64,1100.47C843.871,1101.56 857.266,1105.42 857.043,1110.17C857.357,1118.36 850.219,1128.93 829.456,1143.88C823.895,1147.55 818.303,1150.32 812.674,1152C812.984,1149.06 813.375,1146.12 813.955,1143.21C814.714,1139.41 814.822,1135.44 815.84,1131.69C816.689,1128.56 817.441,1125.38 818.397,1122.28C819.579,1118.45 821.205,1114.73 822.752,1111.03C824.437,1107.01 826.457,1102.57 830.527,1100.53C830.564,1100.51 830.601,1100.49 830.64,1100.47Z" style="fill:rgb(255,235,153);"/>
                </g>
                <path d="M546.777,466.188C507.836,447.378 472.594,455.343 447.906,484.892C441.5,492.559 435.953,501.671 430.997,512.062C426.627,521.225 422.942,531.406 419.731,542.527C411.836,569.871 407.559,602.98 409.385,641.199C409.628,646.403 406.215,651.075 401.184,652.425C396.152,653.775 390.859,651.44 388.464,646.813C376.322,622.429 364.53,603.149 353.723,587.804C344.567,574.801 336.207,564.673 327.981,557.312C320.539,550.652 313.615,546.063 306.806,543.602C292.195,538.322 279.116,542.134 267.607,551.222C256.719,559.819 247.246,572.635 239.352,587.342C246.697,567.291 257.104,549.867 270.583,539.68C281.814,531.192 295.109,527.866 310.375,531.39C327.547,535.353 347.734,548.515 369.702,575.8C375.536,583.046 381.406,591.378 387.403,600.804C388.818,576.683 392.628,554.987 398.715,536.106C402.699,523.749 407.66,512.6 413.387,502.759C420.058,491.296 427.673,481.572 436.052,473.681C449.061,461.429 463.561,453.346 479.128,450.212C500.648,445.879 523.821,450.601 546.777,466.188Z" style="fill:rgb(115,109,101);"/>
            </g>
        </g>
    </g>
</svg>
