<?xml version="1.0" encoding="UTF-8" standalone="no"?>
<!DOCTYPE svg PUBLIC "-//W3C//DTD SVG 1.1//EN" "http://www.w3.org/Graphics/SVG/1.1/DTD/svg11.dtd">
<svg width="100%" height="100%" viewBox="0 0 2000 1500" version="1.1" xmlns="http://www.w3.org/2000/svg" xmlns:xlink="http://www.w3.org/1999/xlink" xml:space="preserve" xmlns:serif="http://www.serif.com/" style="fill-rule:evenodd;clip-rule:evenodd;stroke-linejoin:round;stroke-miterlimit:2;">
    <g transform="matrix(2.24181,0,0,2.24181,-1774.4,-405.338)">
        <g id="Logo">
            <g id="Text">
                <g transform="matrix(1,0,0,1,149.945,64.2071)">
                    <g transform="matrix(112.879,0,0,112.879,890,273.297)">
                        <path d="M0.157,0.075C0.19,0.076 0.221,0.07 0.248,0.057C0.274,0.044 0.297,0.026 0.315,0.003C0.333,-0.02 0.347,-0.045 0.356,-0.074C0.361,-0.09 0.365,-0.109 0.366,-0.129C0.368,-0.15 0.366,-0.169 0.361,-0.188C0.356,-0.208 0.347,-0.224 0.334,-0.236C0.32,-0.249 0.301,-0.256 0.277,-0.257C0.257,-0.257 0.239,-0.253 0.223,-0.245C0.206,-0.236 0.195,-0.224 0.188,-0.208C0.185,-0.199 0.185,-0.19 0.189,-0.182C0.192,-0.173 0.198,-0.167 0.206,-0.163C0.214,-0.158 0.223,-0.157 0.231,-0.16C0.243,-0.164 0.25,-0.164 0.255,-0.161C0.259,-0.158 0.261,-0.151 0.26,-0.14C0.26,-0.123 0.254,-0.104 0.243,-0.083C0.231,-0.063 0.217,-0.048 0.201,-0.036C0.185,-0.025 0.17,-0.023 0.157,-0.032C0.144,-0.04 0.133,-0.055 0.125,-0.077C0.118,-0.098 0.115,-0.125 0.115,-0.154C0.116,-0.183 0.12,-0.216 0.126,-0.253C0.132,-0.291 0.142,-0.329 0.155,-0.366C0.167,-0.403 0.184,-0.436 0.205,-0.464C0.214,-0.477 0.225,-0.488 0.235,-0.497C0.246,-0.506 0.255,-0.512 0.264,-0.514C0.273,-0.516 0.28,-0.513 0.285,-0.505C0.29,-0.497 0.292,-0.482 0.29,-0.461C0.289,-0.451 0.293,-0.443 0.302,-0.437C0.312,-0.431 0.322,-0.427 0.335,-0.427C0.348,-0.427 0.359,-0.431 0.371,-0.438C0.382,-0.445 0.389,-0.457 0.394,-0.473C0.397,-0.489 0.395,-0.511 0.386,-0.537C0.377,-0.563 0.361,-0.582 0.34,-0.595C0.318,-0.607 0.293,-0.613 0.264,-0.611C0.225,-0.608 0.189,-0.594 0.157,-0.568C0.124,-0.543 0.096,-0.51 0.072,-0.47C0.049,-0.43 0.03,-0.386 0.016,-0.338C0.002,-0.291 -0.005,-0.243 -0.008,-0.195C-0.01,-0.148 -0.006,-0.104 0.005,-0.064C0.016,-0.024 0.033,0.008 0.059,0.034C0.083,0.059 0.116,0.072 0.157,0.075Z" style="fill:rgb(73,145,67);fill-rule:nonzero;"/>
                    </g>
                    <g transform="matrix(112.879,0,0,112.879,934.534,273.297)">
                        <path d="M0.177,-0.409C0.165,-0.405 0.153,-0.397 0.141,-0.385C0.129,-0.373 0.118,-0.355 0.107,-0.333L0.108,-0.356C0.109,-0.378 0.105,-0.393 0.096,-0.403C0.086,-0.413 0.075,-0.417 0.062,-0.415C0.048,-0.413 0.037,-0.405 0.027,-0.391C0.02,-0.378 0.013,-0.356 0.008,-0.324C0.002,-0.292 -0.001,-0.257 -0.004,-0.219C-0.007,-0.181 -0.008,-0.146 -0.007,-0.113C-0.007,-0.081 -0.005,-0.058 -0.001,-0.043C0.003,-0.029 0.011,-0.018 0.021,-0.01C0.032,-0.002 0.042,0.001 0.054,0.002C0.066,0.003 0.076,0.001 0.084,-0.003C0.093,-0.007 0.098,-0.014 0.099,-0.023C0.1,-0.047 0.102,-0.074 0.104,-0.102C0.107,-0.13 0.112,-0.158 0.118,-0.185C0.125,-0.213 0.135,-0.237 0.148,-0.258C0.156,-0.272 0.165,-0.282 0.172,-0.288C0.179,-0.293 0.188,-0.299 0.197,-0.303C0.204,-0.307 0.211,-0.311 0.219,-0.316C0.232,-0.324 0.24,-0.334 0.243,-0.346C0.246,-0.358 0.245,-0.37 0.24,-0.381C0.235,-0.392 0.228,-0.401 0.216,-0.406C0.206,-0.412 0.192,-0.413 0.177,-0.409Z" style="fill:rgb(73,145,67);fill-rule:nonzero;"/>
                    </g>
                    <g transform="matrix(112.879,0,0,112.879,959.667,273.297)">
                        <path d="M0.188,-0.181C0.207,-0.191 0.223,-0.203 0.237,-0.219C0.252,-0.234 0.263,-0.252 0.271,-0.273C0.279,-0.292 0.282,-0.312 0.282,-0.331C0.282,-0.349 0.274,-0.367 0.261,-0.384C0.25,-0.396 0.238,-0.404 0.224,-0.409C0.205,-0.416 0.184,-0.417 0.162,-0.413C0.132,-0.407 0.107,-0.395 0.085,-0.377C0.063,-0.359 0.044,-0.337 0.03,-0.311C0.015,-0.283 0.003,-0.253 -0.003,-0.221C-0.01,-0.189 -0.011,-0.159 -0.008,-0.129C-0.006,-0.108 -0.001,-0.089 0.005,-0.074C0.012,-0.058 0.02,-0.044 0.029,-0.034C0.047,-0.013 0.069,-0.002 0.094,0.001C0.118,0.004 0.141,-0 0.163,-0.011C0.185,-0.022 0.202,-0.038 0.214,-0.059C0.223,-0.077 0.227,-0.091 0.225,-0.104C0.222,-0.116 0.217,-0.125 0.208,-0.13C0.199,-0.136 0.188,-0.138 0.178,-0.137C0.167,-0.136 0.158,-0.13 0.15,-0.122C0.133,-0.101 0.12,-0.091 0.109,-0.091C0.101,-0.091 0.094,-0.096 0.09,-0.105C0.085,-0.118 0.083,-0.134 0.084,-0.153C0.102,-0.154 0.119,-0.157 0.137,-0.161C0.155,-0.166 0.172,-0.172 0.188,-0.181ZM0.181,-0.333C0.19,-0.333 0.193,-0.328 0.191,-0.319C0.189,-0.311 0.185,-0.301 0.177,-0.291C0.167,-0.279 0.156,-0.27 0.144,-0.264C0.132,-0.257 0.12,-0.253 0.107,-0.25C0.11,-0.261 0.116,-0.272 0.124,-0.285C0.131,-0.298 0.139,-0.309 0.149,-0.318C0.159,-0.327 0.17,-0.332 0.181,-0.333Z" style="fill:rgb(73,145,67);fill-rule:nonzero;"/>
                    </g>
                    <g transform="matrix(112.879,0,0,112.879,991.745,273.297)">
                        <path d="M0.232,-0.399C0.216,-0.407 0.2,-0.412 0.184,-0.414C0.154,-0.417 0.126,-0.413 0.1,-0.399C0.082,-0.39 0.065,-0.375 0.05,-0.353C0.035,-0.332 0.022,-0.307 0.012,-0.278C0.002,-0.249 -0.005,-0.22 -0.009,-0.189C-0.013,-0.159 -0.013,-0.13 -0.009,-0.103C-0.004,-0.067 0.006,-0.042 0.021,-0.026C0.036,-0.01 0.053,-0.001 0.073,-0.001C0.094,-0 0.114,-0.006 0.136,-0.017C0.158,-0.029 0.178,-0.044 0.198,-0.064C0.199,-0.058 0.2,-0.053 0.201,-0.048C0.207,-0.03 0.215,-0.017 0.226,-0.009C0.237,-0.001 0.248,0.002 0.259,0.001C0.268,0.001 0.276,-0 0.282,-0.004C0.289,-0.009 0.293,-0.015 0.294,-0.023C0.3,-0.121 0.307,-0.217 0.314,-0.313C0.316,-0.33 0.317,-0.347 0.318,-0.363C0.319,-0.385 0.317,-0.401 0.31,-0.411C0.304,-0.422 0.295,-0.427 0.285,-0.429C0.275,-0.43 0.265,-0.428 0.255,-0.422C0.245,-0.417 0.237,-0.409 0.232,-0.399ZM0.083,-0.15C0.084,-0.171 0.087,-0.194 0.092,-0.219C0.098,-0.244 0.105,-0.266 0.116,-0.287C0.126,-0.307 0.139,-0.321 0.155,-0.329C0.165,-0.333 0.174,-0.333 0.182,-0.329C0.19,-0.325 0.199,-0.316 0.207,-0.304C0.205,-0.292 0.2,-0.277 0.193,-0.258C0.186,-0.238 0.177,-0.218 0.167,-0.196C0.157,-0.174 0.147,-0.155 0.136,-0.137C0.125,-0.119 0.116,-0.106 0.107,-0.098C0.098,-0.09 0.092,-0.089 0.087,-0.097C0.082,-0.104 0.081,-0.122 0.083,-0.15Z" style="fill:rgb(73,145,67);fill-rule:nonzero;"/>
                    </g>
                    <g transform="matrix(112.879,0,0,112.879,1029.78,273.297)">
                        <path d="M0.068,-0.577C0.06,-0.561 0.053,-0.542 0.046,-0.519C0.021,-0.516 0.001,-0.512 -0.012,-0.507C-0.023,-0.502 -0.03,-0.496 -0.034,-0.489C-0.038,-0.481 -0.04,-0.475 -0.039,-0.467C-0.039,-0.462 -0.037,-0.457 -0.035,-0.453C-0.032,-0.449 -0.028,-0.447 -0.023,-0.447L0.028,-0.448C0.019,-0.402 0.012,-0.364 0.009,-0.333C0.002,-0.275 -0.001,-0.221 -0.001,-0.169C-0.002,-0.117 0.002,-0.076 0.01,-0.046C0.016,-0.027 0.024,-0.014 0.035,-0.007C0.045,0.001 0.057,0.004 0.067,0.004C0.077,0.004 0.085,0.001 0.092,-0.003C0.098,-0.008 0.102,-0.015 0.103,-0.024C0.106,-0.076 0.109,-0.12 0.111,-0.157C0.115,-0.211 0.118,-0.259 0.121,-0.302C0.124,-0.344 0.128,-0.394 0.133,-0.45L0.184,-0.451C0.196,-0.451 0.206,-0.455 0.212,-0.46C0.218,-0.466 0.221,-0.473 0.22,-0.481C0.219,-0.49 0.214,-0.497 0.206,-0.504C0.197,-0.511 0.184,-0.516 0.167,-0.518C0.158,-0.519 0.149,-0.52 0.139,-0.521L0.143,-0.568C0.145,-0.591 0.142,-0.607 0.134,-0.614C0.125,-0.622 0.115,-0.623 0.103,-0.616C0.091,-0.609 0.079,-0.596 0.068,-0.577Z" style="fill:rgb(73,145,67);fill-rule:nonzero;"/>
                    </g>
                </g>
                <g transform="matrix(2.3315,0,0,2.3315,-1446.99,-1234.56)">
                    <g transform="matrix(36.4629,0,0,36.4629,1226.25,868)">
                        <path d="M0.232,-0.632C0.199,-0.639 0.167,-0.639 0.138,-0.63C0.113,-0.623 0.093,-0.61 0.078,-0.593C0.063,-0.576 0.053,-0.557 0.049,-0.535C0.045,-0.514 0.047,-0.498 0.053,-0.486C0.059,-0.474 0.066,-0.466 0.077,-0.461C0.086,-0.458 0.096,-0.458 0.105,-0.462C0.114,-0.466 0.12,-0.475 0.123,-0.488C0.126,-0.509 0.134,-0.524 0.145,-0.534C0.156,-0.543 0.168,-0.548 0.181,-0.547C0.193,-0.545 0.204,-0.539 0.211,-0.527C0.22,-0.514 0.223,-0.497 0.221,-0.473C0.217,-0.439 0.206,-0.4 0.187,-0.355C0.167,-0.31 0.144,-0.263 0.118,-0.216C0.091,-0.169 0.065,-0.126 0.04,-0.086C0.015,-0.047 -0.005,-0.017 -0.021,0.004C-0.031,0.014 -0.036,0.024 -0.037,0.035C-0.038,0.046 -0.035,0.055 -0.027,0.063C-0.02,0.071 -0.008,0.075 0.007,0.075C0.091,0.075 0.175,0.075 0.261,0.075C0.267,0.075 0.271,0.072 0.274,0.066C0.278,0.06 0.28,0.053 0.28,0.045C0.281,0.035 0.279,0.025 0.274,0.015C0.27,0.005 0.261,-0.003 0.248,-0.01C0.223,-0.021 0.188,-0.027 0.144,-0.026C0.169,-0.059 0.194,-0.097 0.22,-0.14C0.245,-0.184 0.268,-0.229 0.289,-0.277C0.309,-0.325 0.323,-0.373 0.333,-0.42C0.336,-0.441 0.338,-0.462 0.336,-0.484C0.335,-0.506 0.331,-0.527 0.324,-0.548C0.316,-0.568 0.305,-0.585 0.29,-0.601C0.275,-0.615 0.256,-0.626 0.232,-0.632Z" style="fill:rgb(73,145,67);fill-rule:nonzero;"/>
                    </g>
                    <g transform="matrix(36.4629,0,0,36.4629,1240.65,868)">
                        <path d="M0.381,-0.236C0.393,-0.311 0.396,-0.375 0.388,-0.428C0.381,-0.482 0.367,-0.525 0.346,-0.558C0.325,-0.59 0.3,-0.612 0.271,-0.624C0.243,-0.635 0.213,-0.636 0.182,-0.626C0.15,-0.616 0.12,-0.596 0.092,-0.564C0.064,-0.533 0.04,-0.491 0.021,-0.438C0,-0.386 -0.012,-0.322 -0.017,-0.248C-0.02,-0.21 -0.019,-0.173 -0.015,-0.138C-0.01,-0.102 -0.001,-0.069 0.011,-0.041C0.023,-0.011 0.04,0.013 0.061,0.032C0.081,0.051 0.106,0.063 0.136,0.069C0.177,0.076 0.213,0.067 0.247,0.044C0.279,0.021 0.307,-0.014 0.33,-0.062C0.353,-0.11 0.37,-0.168 0.381,-0.236ZM0.152,-0.021C0.139,-0.024 0.129,-0.036 0.122,-0.057C0.115,-0.078 0.11,-0.104 0.109,-0.136C0.108,-0.168 0.109,-0.203 0.112,-0.241C0.116,-0.278 0.122,-0.314 0.129,-0.35C0.137,-0.386 0.146,-0.418 0.157,-0.446C0.17,-0.478 0.186,-0.499 0.202,-0.509C0.218,-0.52 0.233,-0.519 0.246,-0.506C0.26,-0.494 0.269,-0.47 0.273,-0.433C0.278,-0.391 0.276,-0.333 0.268,-0.26C0.261,-0.208 0.251,-0.164 0.238,-0.128C0.225,-0.091 0.211,-0.064 0.196,-0.045C0.181,-0.027 0.166,-0.019 0.152,-0.021Z" style="fill:rgb(73,145,67);fill-rule:nonzero;"/>
                    </g>
                    <g transform="matrix(36.4629,0,0,36.4629,1255.7,868)">
                        <path d="M0.232,-0.632C0.199,-0.639 0.167,-0.639 0.138,-0.63C0.113,-0.623 0.093,-0.61 0.078,-0.593C0.063,-0.576 0.053,-0.557 0.049,-0.535C0.045,-0.514 0.047,-0.498 0.053,-0.486C0.059,-0.474 0.066,-0.466 0.077,-0.461C0.086,-0.458 0.096,-0.458 0.105,-0.462C0.114,-0.466 0.12,-0.475 0.123,-0.488C0.126,-0.509 0.134,-0.524 0.145,-0.534C0.156,-0.543 0.168,-0.548 0.181,-0.547C0.193,-0.545 0.204,-0.539 0.211,-0.527C0.22,-0.514 0.223,-0.497 0.221,-0.473C0.217,-0.439 0.206,-0.4 0.187,-0.355C0.167,-0.31 0.144,-0.263 0.118,-0.216C0.091,-0.169 0.065,-0.126 0.04,-0.086C0.015,-0.047 -0.005,-0.017 -0.021,0.004C-0.031,0.014 -0.036,0.024 -0.037,0.035C-0.038,0.046 -0.035,0.055 -0.027,0.063C-0.02,0.071 -0.008,0.075 0.007,0.075C0.091,0.075 0.175,0.075 0.261,0.075C0.267,0.075 0.271,0.072 0.274,0.066C0.278,0.06 0.28,0.053 0.28,0.045C0.281,0.035 0.279,0.025 0.274,0.015C0.27,0.005 0.261,-0.003 0.248,-0.01C0.223,-0.021 0.188,-0.027 0.144,-0.026C0.169,-0.059 0.194,-0.097 0.22,-0.14C0.245,-0.184 0.268,-0.229 0.289,-0.277C0.309,-0.325 0.323,-0.373 0.333,-0.42C0.336,-0.441 0.338,-0.462 0.336,-0.484C0.335,-0.506 0.331,-0.527 0.324,-0.548C0.316,-0.568 0.305,-0.585 0.29,-0.601C0.275,-0.615 0.256,-0.626 0.232,-0.632Z" style="fill:rgb(73,145,67);fill-rule:nonzero;"/>
                    </g>
                    <g transform="matrix(36.4629,0,0,36.4629,1269.05,868)">
                        <path d="M0.114,0.073C0.155,0.074 0.192,0.066 0.223,0.05C0.254,0.034 0.28,0.012 0.3,-0.016C0.321,-0.044 0.335,-0.075 0.343,-0.109C0.348,-0.128 0.35,-0.149 0.351,-0.171C0.351,-0.193 0.348,-0.215 0.342,-0.236C0.337,-0.257 0.327,-0.276 0.313,-0.292C0.299,-0.308 0.28,-0.32 0.256,-0.327C0.278,-0.346 0.295,-0.367 0.308,-0.391C0.321,-0.416 0.33,-0.44 0.333,-0.466C0.336,-0.491 0.335,-0.515 0.328,-0.538C0.32,-0.564 0.305,-0.586 0.282,-0.604C0.259,-0.621 0.228,-0.629 0.189,-0.63C0.173,-0.631 0.157,-0.629 0.141,-0.625C0.125,-0.622 0.11,-0.616 0.096,-0.607C0.074,-0.593 0.057,-0.576 0.045,-0.557C0.033,-0.538 0.027,-0.519 0.027,-0.501C0.028,-0.484 0.035,-0.471 0.049,-0.462C0.061,-0.457 0.072,-0.456 0.084,-0.46C0.097,-0.464 0.106,-0.473 0.111,-0.487C0.118,-0.504 0.126,-0.516 0.138,-0.524C0.15,-0.531 0.162,-0.535 0.175,-0.534C0.188,-0.534 0.198,-0.53 0.207,-0.522C0.216,-0.514 0.221,-0.503 0.221,-0.489C0.222,-0.475 0.216,-0.458 0.204,-0.439C0.187,-0.416 0.167,-0.394 0.144,-0.375C0.121,-0.355 0.101,-0.342 0.083,-0.335C0.068,-0.328 0.057,-0.318 0.051,-0.306C0.046,-0.294 0.044,-0.281 0.047,-0.269C0.05,-0.256 0.057,-0.247 0.067,-0.239C0.078,-0.232 0.091,-0.229 0.107,-0.232C0.11,-0.233 0.114,-0.234 0.118,-0.235C0.129,-0.238 0.141,-0.24 0.155,-0.242C0.169,-0.244 0.182,-0.243 0.192,-0.237C0.202,-0.232 0.21,-0.225 0.215,-0.215C0.221,-0.205 0.224,-0.194 0.225,-0.183C0.226,-0.168 0.225,-0.154 0.221,-0.139C0.218,-0.124 0.212,-0.108 0.206,-0.094C0.197,-0.076 0.188,-0.061 0.176,-0.048C0.165,-0.035 0.153,-0.026 0.141,-0.021C0.128,-0.017 0.117,-0.02 0.105,-0.028C0.094,-0.037 0.084,-0.055 0.075,-0.081C0.074,-0.085 0.072,-0.09 0.07,-0.095C0.067,-0.099 0.064,-0.103 0.061,-0.105C0.052,-0.111 0.041,-0.112 0.029,-0.109C0.018,-0.105 0.007,-0.098 -0.002,-0.087C-0.011,-0.077 -0.016,-0.064 -0.018,-0.049C-0.018,-0.027 -0.013,-0.007 -0.001,0.011C0.011,0.029 0.026,0.044 0.047,0.055C0.067,0.066 0.089,0.072 0.114,0.073Z" style="fill:rgb(73,145,67);fill-rule:nonzero;"/>
                    </g>
                </g>
                <g transform="matrix(1.91396,0,0,1.91396,-507.249,-303.865)">
                    <path d="M719.409,433.603C721.164,433.515 722.568,433.164 723.709,432.462C724.937,431.672 725.639,430.619 725.727,429.127C726.693,416.577 727.57,404.642 728.536,393.321C737.75,391.215 745.648,387.88 752.23,383.317C758.812,378.666 764.166,373.312 768.115,367.257C772.152,361.114 774.872,354.883 776.364,348.477C777.856,342.07 778.119,335.927 777.066,330.311C776.101,324.606 773.819,319.78 770.396,315.918C766.974,312.145 762.41,309.775 756.618,308.81C750.826,307.932 743.893,309.073 735.732,312.145C735.381,309.073 734.152,307.406 732.046,306.967C730.027,306.616 727.658,307.406 725.113,309.424C722.656,311.355 720.549,314.251 718.882,318.112C716.337,324.431 714.231,332.68 712.476,342.86C710.633,353.04 709.229,363.747 708.351,374.98C707.386,386.125 706.947,396.305 707.035,405.432C707.035,414.647 707.737,421.316 709.053,425.617C710.106,428.6 711.598,430.707 713.529,431.847C715.459,433.076 717.39,433.69 719.409,433.603ZM733.889,332.68C740.471,328.731 745.561,326.713 749.247,326.625C752.932,326.625 755.39,327.941 756.706,330.662C757.935,333.382 758.11,336.893 757.32,341.105C756.531,345.317 754.863,349.618 752.318,354.005C749.861,358.481 746.702,362.43 742.928,365.765C739.154,369.188 734.942,371.469 730.203,372.523C731.344,359.71 732.572,346.37 733.889,332.68Z" style="fill:rgb(255,171,45);fill-rule:nonzero;"/>
                    <path d="M791.02,420.263C793.477,420.263 795.759,419.649 797.865,418.508C800.059,417.279 801.99,415.261 803.569,412.453C804.271,414.734 805.412,416.665 806.904,418.245C808.396,419.824 809.976,420.878 811.555,421.404C813.223,422.018 814.715,421.843 815.943,420.965C817.172,420.088 817.874,418.245 818.137,415.612C819.629,396.919 821.296,377.086 823.227,356.287C823.49,352.777 823.139,350.144 822.086,348.564C821.033,346.985 819.717,346.283 817.962,346.546C816.294,346.809 814.451,347.862 812.696,349.793C810.853,351.724 809.273,354.444 807.957,357.955C805.675,364.537 803.657,373.049 801.902,383.492C801.463,384.37 800.849,385.95 799.883,388.231C798.918,390.689 797.865,393.321 796.724,396.042C795.495,398.762 794.355,401.044 793.301,402.712C792.248,404.467 791.371,405.081 790.756,404.467C790.054,403.94 789.791,401.571 789.967,397.358C790.142,392.97 790.669,387.793 791.458,381.737C792.248,375.77 793.126,370.065 793.916,364.8C794.881,358.832 795.408,354.795 795.583,352.865C795.671,350.934 795.144,349.53 794.003,348.564C792.95,347.599 791.546,347.16 789.879,347.336C788.211,347.511 786.544,348.301 784.877,349.705C783.121,351.109 781.717,353.303 780.576,356.199C778.821,360.938 777.329,366.467 776.013,372.786C774.784,379.104 773.907,385.335 773.556,391.391C773.117,397.534 773.292,402.536 774.17,406.573C775.311,410.785 777.505,414.12 780.752,416.577C783.999,419.035 787.422,420.263 791.02,420.263Z" style="fill:rgb(255,171,45);fill-rule:nonzero;"/>
                    <path d="M846.922,354.971L846.922,354.883C847.097,351.724 846.483,349.354 845.079,347.775C843.675,346.195 841.92,345.581 839.814,345.932C837.62,346.283 835.513,347.687 833.495,350.232C831.389,352.777 829.809,356.638 828.58,361.728C827.264,367.784 826.211,374.541 825.421,382.088C824.631,389.636 824.368,396.568 824.543,402.887L824.543,403.063C824.719,406.748 825.158,409.82 825.86,412.189C826.65,414.91 827.966,416.928 829.633,418.245C831.389,419.561 833.144,420.351 835.075,420.527C837.005,420.702 838.673,420.351 839.989,419.561C841.393,418.684 842.183,417.455 842.359,415.875C842.534,413.506 843.148,410.171 844.114,405.783C845.167,401.395 846.483,396.568 847.975,391.391C849.467,386.213 851.047,381.298 852.626,376.647C854.294,371.908 855.786,368.135 857.102,365.326C858.506,362.518 859.559,361.202 860.349,361.465C861.051,361.816 861.314,364.273 861.051,369.012C860.876,370.329 860.612,373.137 860.349,377.525C860.174,381.825 859.91,387.091 859.647,393.321C859.384,399.552 859.033,406.134 858.682,413.067C858.682,414.998 859.559,416.665 861.227,417.982C862.806,419.298 864.737,420 866.843,420.263C868.949,420.439 870.705,420 872.109,418.771C872.723,418.069 873.513,415.875 874.566,412.277C875.619,408.679 876.76,404.379 878.076,399.289C879.831,392.532 881.587,385.862 883.517,379.28C885.448,372.698 887.379,367.52 889.222,363.922C890.275,361.992 890.977,361.202 891.328,361.377C891.679,361.553 891.854,362.518 891.854,364.185C891.854,369.89 891.767,375.419 891.416,380.684C891.065,385.95 890.626,391.303 890.187,396.568C889.66,401.922 889.222,407.451 888.871,413.243C888.783,415.524 889.748,417.279 891.591,418.508C893.434,419.737 895.54,420.351 897.91,420.263C900.191,420.176 902.034,419.21 903.351,417.543C904.755,415.788 905.808,413.769 906.51,411.487C907.212,409.206 907.739,407.099 908.09,405.169C908.792,401.483 909.406,397.183 910.02,392.181C910.635,387.178 910.986,382.176 911.161,376.998C911.337,371.82 911.161,367.169 910.547,362.869C910.02,359.798 909.055,356.902 907.475,354.269C905.984,351.724 903.965,349.618 901.42,348.038C898.963,346.37 895.979,345.581 892.644,345.405C889.397,345.317 886.326,346.019 883.254,347.599C880.27,349.091 877.637,351.46 875.356,354.532C872.899,349.793 870.002,346.985 866.755,346.019C863.421,345.054 859.998,345.405 856.575,347.16C853.065,348.915 849.818,351.548 846.922,354.971Z" style="fill:rgb(255,171,45);fill-rule:nonzero;"/>
                    <path d="M929.415,462.387C930.468,461.861 931.083,460.983 931.346,459.842C931.697,458.702 931.872,457.385 931.96,455.718C932.662,447.381 933.628,435.007 934.856,418.596C936.699,419.21 938.454,419.649 940.297,419.912C945.65,420.527 950.74,419.649 955.479,417.279C959.78,415.086 963.729,412.014 967.151,408.065C970.574,404.028 973.47,399.464 975.752,394.374C978.033,389.197 979.525,384.019 980.227,378.753C981.193,371.82 981.017,365.941 979.789,361.202C978.56,356.463 976.541,352.865 973.821,350.232C970.311,347.16 966.537,345.581 962.5,345.405C958.375,345.23 954.339,346.107 950.389,347.95C946.528,349.881 943.105,352.338 940.209,355.41L939.683,356.024L940.034,351.636C940.297,348.652 939.771,346.722 938.454,345.668C937.226,344.615 935.646,344.352 933.628,344.879C931.697,345.405 929.766,346.546 927.835,348.301C925.905,350.056 924.413,352.25 923.272,354.883C920.99,360.587 919.06,367.871 917.392,376.91C915.813,385.862 914.584,395.34 913.794,405.344C912.916,415.261 912.653,424.651 912.829,433.339C913.092,442.115 913.882,449.048 915.286,454.226C915.9,456.42 916.778,458.087 917.919,459.404C918.972,460.72 920.113,461.685 921.429,462.3C922.57,462.826 923.974,463.177 925.466,463.177C926.958,463.265 928.274,463.002 929.415,462.387ZM961.798,361.553C963.378,363.045 964.08,365.853 963.729,370.065C963.465,374.014 962.5,378.402 960.92,383.141C959.253,387.968 957.147,392.268 954.514,396.217C951.881,400.254 948.898,402.975 945.563,404.554C943.808,405.432 942.14,405.432 940.648,404.642C939.156,403.852 937.664,402.361 936.26,400.167C936.611,398.06 937.401,395.252 938.718,391.654C940.034,388.056 941.701,384.282 943.632,380.333C945.563,376.296 947.581,372.698 949.775,369.363C951.969,366.028 954.075,363.571 956.181,361.992C958.288,360.412 960.131,360.236 961.798,361.553Z" style="fill:rgb(255,171,45);fill-rule:nonzero;"/>
                    <path d="M994.356,318.99C992.075,324.694 990.144,331.978 988.477,340.929C986.809,349.969 985.581,359.447 984.791,369.363C984.001,379.368 983.65,388.758 983.913,397.446C984.089,406.134 984.879,413.155 986.37,418.333C986.985,420.439 987.862,422.194 988.915,423.51C989.969,424.827 991.197,425.792 992.426,426.406C993.654,426.933 994.971,427.196 996.463,427.284C997.955,427.372 999.359,427.108 1000.5,426.494C1001.47,425.88 1002.08,425.09 1002.43,423.949C1002.69,422.808 1002.87,421.404 1003.05,419.824C1003.4,414.647 1004.01,407.451 1004.71,398.06C1012.26,397.446 1019.81,396.832 1027.44,396.305C1029.46,396.13 1030.69,395.428 1031.3,394.374C1031.83,393.234 1031.83,391.917 1031.3,390.513C1030.78,389.109 1029.81,387.793 1028.41,386.564C1027.09,385.335 1025.42,384.633 1023.49,384.194C1019.89,383.668 1015.15,383.405 1009.27,383.492C1015.51,376.121 1022.53,367.608 1030.6,358.13C1032.36,355.848 1033.23,353.742 1033.06,351.636C1032.97,349.618 1032.01,347.95 1030.34,346.809C1028.67,345.668 1026.39,345.405 1023.58,345.844C1020.77,346.37 1017.61,348.038 1014.01,350.934C1012,352.601 1009.98,354.444 1007.87,356.463C1008.57,346.897 1009.27,338.472 1009.8,331.188C1010.42,323.817 1010.86,318.639 1011.12,315.743C1011.29,312.759 1010.77,310.74 1009.54,309.775C1008.22,308.722 1006.64,308.459 1004.71,308.985C1002.69,309.512 1000.76,310.653 998.832,312.408C996.989,314.163 995.41,316.357 994.356,318.99Z" style="fill:rgb(255,171,45);fill-rule:nonzero;"/>
                    <path d="M1038.5,364.8C1037.18,369.627 1036.04,374.98 1035.25,380.772C1034.37,386.652 1033.94,392.444 1033.85,397.973C1033.76,403.589 1034.29,408.328 1035.34,412.189C1036.13,414.91 1037.45,416.928 1039.2,418.245C1040.87,419.561 1042.71,420.351 1044.55,420.527C1046.49,420.702 1048.15,420.351 1049.56,419.561C1050.96,418.684 1051.66,417.455 1051.84,415.875C1052.54,405.608 1053.15,396.656 1053.68,388.933C1054.3,381.298 1054.91,372.523 1055.7,362.43C1055.79,359.798 1055.26,357.604 1053.94,356.024C1052.63,354.357 1051.05,353.567 1049.03,353.391C1047.1,353.303 1045.08,354.181 1043.15,355.936C1041.22,357.779 1039.64,360.675 1038.5,364.8Z" style="fill:rgb(255,171,45);fill-rule:nonzero;"/>
                    <path d="M1107.21,419.298C1109.41,417.631 1111.16,414.296 1112.57,409.206C1113.97,404.203 1114.94,398.411 1115.55,392.005C1116.17,385.599 1116.34,379.456 1116.17,373.663C1115.99,367.959 1115.46,363.483 1114.59,360.412C1112.92,355.322 1110.29,351.46 1106.78,348.915C1103.27,346.37 1099.23,345.317 1094.66,345.668C1090.1,346.107 1085.45,348.126 1080.62,351.812C1080.18,349.705 1079.22,348.213 1077.82,347.16C1076.41,346.107 1074.83,345.668 1072.99,345.932C1071.23,346.107 1069.48,347.16 1067.72,349.003C1066.06,350.758 1064.74,353.567 1063.69,357.253C1062.37,362.079 1061.23,368.135 1060.26,375.155C1059.21,382.264 1058.68,389.197 1058.51,396.042C1058.33,402.799 1058.77,408.24 1059.82,412.189C1060.61,414.91 1061.93,416.928 1063.6,418.245C1065.35,419.561 1067.11,420.351 1069.04,420.527C1070.97,420.702 1072.64,420.351 1073.95,419.561C1075.36,418.684 1076.15,417.455 1076.32,415.875C1076.5,414.032 1076.94,410.961 1077.82,406.748C1078.69,402.536 1079.75,397.797 1081.06,392.532C1082.38,387.266 1083.78,382.176 1085.36,377.174C1086.85,372.259 1088.35,368.135 1089.84,364.888C1091.33,361.553 1092.65,359.798 1093.88,359.534C1095.02,359.271 1095.98,361.114 1096.6,365.239C1097.12,369.275 1097.21,374.98 1096.86,382.176C1096.51,389.46 1096.07,396.568 1095.54,403.414C1095.19,407.538 1094.93,411.136 1094.84,413.945C1094.75,416.314 1095.45,417.982 1096.77,418.859C1098.09,419.737 1099.67,420.176 1101.42,420.263C1104.06,420.527 1105.99,420.176 1107.21,419.298Z" style="fill:rgb(255,171,45);fill-rule:nonzero;"/>
                </g>
                <g transform="matrix(2.37698,0,0,2.37698,-818.783,-284.052)">
                    <g transform="matrix(179.73,0,0,179.73,708,420)">
                        <path d="M0.431,-0.57C0.369,-0.642 0.249,-0.627 0.178,-0.582C-0.038,-0.444 -0.08,0.029 0.181,0.072C0.269,0.086 0.361,0.035 0.381,-0.051C0.397,-0.127 0.306,-0.145 0.276,-0.102C0.251,-0.067 0.235,-0.041 0.216,-0.044C0.134,-0.058 0.125,-0.197 0.156,-0.317C0.179,-0.409 0.226,-0.484 0.274,-0.511C0.321,-0.537 0.345,-0.491 0.337,-0.449C0.328,-0.396 0.383,-0.375 0.422,-0.391C0.477,-0.413 0.483,-0.51 0.431,-0.57Z" style="fill:rgb(242,125,15);fill-rule:nonzero;"/>
                    </g>
                    <g transform="matrix(179.73,0,0,179.73,790.581,420)">
                        <path d="M0.208,-0.032C0.208,-0.022 0.212,-0.015 0.22,-0.009C0.227,-0.002 0.236,0.001 0.247,0.001C0.259,0.002 0.27,-0.001 0.281,-0.008C0.292,-0.016 0.3,-0.03 0.307,-0.051C0.313,-0.074 0.319,-0.104 0.323,-0.14C0.327,-0.177 0.329,-0.213 0.328,-0.25C0.327,-0.287 0.323,-0.317 0.314,-0.34C0.305,-0.367 0.291,-0.386 0.271,-0.399C0.252,-0.411 0.231,-0.416 0.207,-0.413C0.182,-0.41 0.157,-0.398 0.131,-0.378C0.135,-0.434 0.139,-0.484 0.143,-0.528C0.146,-0.571 0.148,-0.602 0.15,-0.619C0.151,-0.636 0.148,-0.647 0.142,-0.652C0.134,-0.658 0.125,-0.66 0.115,-0.657C0.104,-0.654 0.093,-0.647 0.082,-0.638C0.071,-0.628 0.063,-0.616 0.057,-0.601C0.044,-0.569 0.033,-0.529 0.024,-0.479C0.015,-0.429 0.008,-0.376 0.004,-0.321C-0,-0.265 -0.002,-0.213 -0.001,-0.165C0,-0.116 0.004,-0.077 0.012,-0.048C0.016,-0.036 0.021,-0.027 0.027,-0.02C0.033,-0.012 0.04,-0.007 0.046,-0.003C0.053,-0 0.061,0.001 0.069,0.001C0.077,0.002 0.085,0 0.091,-0.003C0.093,-0.004 0.095,-0.005 0.096,-0.007C0.102,-0.012 0.105,-0.018 0.106,-0.026C0.108,-0.059 0.116,-0.099 0.129,-0.148C0.143,-0.197 0.157,-0.239 0.172,-0.274C0.177,-0.285 0.182,-0.293 0.188,-0.302C0.194,-0.31 0.2,-0.316 0.206,-0.319C0.212,-0.323 0.217,-0.322 0.221,-0.317C0.225,-0.312 0.227,-0.302 0.226,-0.285C0.225,-0.258 0.223,-0.227 0.221,-0.189C0.218,-0.152 0.215,-0.118 0.213,-0.087C0.21,-0.059 0.209,-0.041 0.208,-0.032Z" style="fill:rgb(242,125,15);fill-rule:nonzero;"/>
                    </g>
                    <g transform="matrix(179.73,0,0,179.73,854.469,420)">
                        <path d="M0.232,-0.399C0.216,-0.407 0.2,-0.412 0.184,-0.414C0.154,-0.417 0.126,-0.413 0.1,-0.399C0.082,-0.39 0.065,-0.375 0.05,-0.353C0.035,-0.332 0.022,-0.307 0.012,-0.278C0.002,-0.249 -0.005,-0.22 -0.009,-0.189C-0.013,-0.159 -0.013,-0.13 -0.009,-0.103C-0.004,-0.067 0.006,-0.042 0.021,-0.026C0.036,-0.01 0.053,-0.001 0.073,-0.001C0.094,-0 0.114,-0.006 0.136,-0.017C0.158,-0.029 0.178,-0.044 0.198,-0.064C0.199,-0.058 0.2,-0.053 0.201,-0.048C0.207,-0.03 0.215,-0.017 0.226,-0.009C0.237,-0.001 0.248,0.002 0.259,0.001C0.268,0.001 0.276,-0 0.282,-0.004C0.289,-0.009 0.293,-0.015 0.294,-0.023C0.3,-0.121 0.307,-0.217 0.314,-0.313C0.316,-0.33 0.317,-0.347 0.318,-0.363C0.319,-0.385 0.317,-0.401 0.31,-0.411C0.304,-0.422 0.295,-0.427 0.285,-0.429C0.275,-0.43 0.265,-0.428 0.255,-0.422C0.245,-0.417 0.237,-0.409 0.232,-0.399ZM0.083,-0.15C0.084,-0.171 0.087,-0.194 0.092,-0.219C0.098,-0.244 0.105,-0.266 0.116,-0.287C0.126,-0.307 0.139,-0.321 0.155,-0.329C0.165,-0.333 0.174,-0.333 0.182,-0.329C0.19,-0.325 0.199,-0.316 0.207,-0.304C0.205,-0.292 0.2,-0.277 0.193,-0.258C0.186,-0.238 0.177,-0.218 0.167,-0.196C0.157,-0.174 0.147,-0.155 0.136,-0.137C0.125,-0.119 0.116,-0.106 0.107,-0.098C0.098,-0.09 0.092,-0.089 0.087,-0.097C0.082,-0.104 0.081,-0.122 0.083,-0.15Z" style="fill:rgb(242,125,15);fill-rule:nonzero;"/>
                    </g>
                    <g transform="matrix(179.73,0,0,179.73,915.023,420)">
                        <path d="M-0.015,-0.14C-0.022,-0.11 -0.021,-0.084 -0.011,-0.061C-0.001,-0.037 0.015,-0.019 0.037,-0.005C0.058,0.009 0.082,0.015 0.108,0.015C0.134,0.014 0.16,0.004 0.185,-0.015C0.204,-0.031 0.217,-0.051 0.225,-0.075C0.232,-0.098 0.233,-0.122 0.229,-0.146C0.225,-0.17 0.215,-0.192 0.199,-0.211C0.191,-0.22 0.181,-0.229 0.167,-0.241C0.155,-0.252 0.143,-0.264 0.131,-0.276C0.119,-0.289 0.109,-0.301 0.102,-0.313C0.094,-0.329 0.092,-0.341 0.096,-0.351C0.1,-0.36 0.107,-0.366 0.117,-0.369C0.126,-0.371 0.136,-0.369 0.145,-0.362C0.153,-0.355 0.158,-0.344 0.159,-0.326C0.159,-0.318 0.158,-0.309 0.156,-0.297C0.155,-0.285 0.159,-0.276 0.167,-0.27C0.176,-0.264 0.187,-0.263 0.2,-0.265C0.213,-0.267 0.224,-0.274 0.234,-0.287C0.244,-0.298 0.249,-0.316 0.249,-0.339C0.248,-0.364 0.242,-0.384 0.231,-0.401C0.22,-0.418 0.205,-0.431 0.188,-0.44C0.169,-0.449 0.15,-0.454 0.13,-0.454C0.11,-0.455 0.091,-0.451 0.072,-0.443C0.051,-0.434 0.034,-0.42 0.022,-0.403C0.01,-0.386 0.003,-0.367 0,-0.346C-0.002,-0.325 -0,-0.304 0.006,-0.283C0.013,-0.263 0.024,-0.244 0.041,-0.228C0.048,-0.221 0.057,-0.213 0.067,-0.205C0.083,-0.191 0.098,-0.177 0.112,-0.162C0.118,-0.155 0.124,-0.147 0.128,-0.139C0.133,-0.131 0.135,-0.122 0.135,-0.112C0.135,-0.102 0.131,-0.093 0.124,-0.088C0.117,-0.082 0.11,-0.08 0.101,-0.08C0.094,-0.081 0.087,-0.083 0.082,-0.089C0.076,-0.094 0.072,-0.102 0.071,-0.112C0.069,-0.123 0.071,-0.136 0.077,-0.151C0.081,-0.166 0.081,-0.178 0.074,-0.186C0.068,-0.194 0.059,-0.199 0.047,-0.199C0.036,-0.199 0.024,-0.195 0.012,-0.185C0,-0.176 -0.009,-0.161 -0.015,-0.14Z" style="fill:rgb(242,125,15);fill-rule:nonzero;"/>
                    </g>
                    <g transform="matrix(179.73,0,0,179.73,961.886,420)">
                        <path d="M0.188,-0.181C0.207,-0.191 0.223,-0.203 0.237,-0.219C0.252,-0.234 0.263,-0.252 0.271,-0.273C0.279,-0.292 0.282,-0.312 0.282,-0.331C0.282,-0.349 0.274,-0.367 0.261,-0.384C0.25,-0.396 0.238,-0.404 0.224,-0.409C0.205,-0.416 0.184,-0.417 0.162,-0.413C0.132,-0.407 0.107,-0.395 0.085,-0.377C0.063,-0.359 0.044,-0.337 0.03,-0.311C0.015,-0.283 0.003,-0.253 -0.003,-0.221C-0.01,-0.189 -0.011,-0.159 -0.008,-0.129C-0.006,-0.108 -0.001,-0.089 0.005,-0.074C0.012,-0.058 0.02,-0.044 0.029,-0.034C0.047,-0.013 0.069,-0.002 0.094,0.001C0.118,0.004 0.141,-0 0.163,-0.011C0.185,-0.022 0.202,-0.038 0.214,-0.059C0.223,-0.077 0.227,-0.091 0.225,-0.104C0.222,-0.116 0.217,-0.125 0.208,-0.13C0.199,-0.136 0.188,-0.138 0.178,-0.137C0.167,-0.136 0.158,-0.13 0.15,-0.122C0.133,-0.101 0.12,-0.091 0.109,-0.091C0.101,-0.091 0.094,-0.096 0.09,-0.105C0.085,-0.118 0.083,-0.134 0.084,-0.153C0.102,-0.154 0.119,-0.157 0.137,-0.161C0.155,-0.166 0.172,-0.172 0.188,-0.181ZM0.181,-0.333C0.19,-0.333 0.193,-0.328 0.191,-0.319C0.189,-0.311 0.185,-0.301 0.177,-0.291C0.167,-0.279 0.156,-0.27 0.144,-0.264C0.132,-0.257 0.12,-0.253 0.107,-0.25C0.11,-0.261 0.116,-0.272 0.124,-0.285C0.131,-0.298 0.139,-0.309 0.149,-0.318C0.159,-0.327 0.17,-0.332 0.181,-0.333Z" style="fill:rgb(242,125,15);fill-rule:nonzero;"/>
                    </g>
                </g>
                <g transform="matrix(1.91396,0,0,1.91396,-507.249,-303.865)">
                    <g transform="matrix(0.890607,0,0,0.890607,343.251,203.063)">
                        <path d="M806.429,145.442C806.189,146.983 805.695,148.901 805.575,149.381C804.294,153.816 803.323,157.969 800.761,159.841C795.668,163.367 787.248,161.048 785.459,156.505C784.178,153.254 784.959,148.617 786.24,142.803C787.565,138.122 790.653,127.473 794.125,126C799.625,123.667 805.794,127.633 807.067,132C807.671,134.069 807.364,138.277 806.928,141.859C806.822,142.989 806.656,144.183 806.429,145.442Z" style="fill:rgb(73,145,67);"/>
                    </g>
                    <g transform="matrix(0.890607,0,0,0.890607,343.241,204.227)">
                        <clipPath id="_clip1">
                            <path d="M806.441,144.134C806.202,145.675 805.707,147.593 805.587,148.074C804.306,152.508 803.336,156.661 800.774,158.533C795.68,162.06 787.261,159.74 785.471,155.198C784.19,151.946 784.971,147.309 786.252,141.495C787.577,136.814 790.665,126.165 794.137,124.692C799.637,122.359 805.806,126.325 807.079,130.692C807.683,132.761 807.377,136.97 806.94,140.551C806.834,141.681 806.668,142.876 806.441,144.134Z"/>
                        </clipPath>
                        <g clip-path="url(#_clip1)">
                            <path d="M800.636,124.001C803.253,128.576 802.889,136.568 801.466,144.157C799.963,152.172 797.164,159.7 791,160.797C781.128,172.915 803,168.787 803,168.787L823,141L809,115C809,115 794.592,113.431 800.636,124.001Z" style="fill:rgb(113,175,108);"/>
                        </g>
                    </g>
                    <g transform="matrix(0.890607,0,0,0.890607,343.251,203.063)">
                        <path d="M806.429,145.442C806.189,146.983 805.695,148.901 805.575,149.381C804.294,153.816 803.323,157.969 800.761,159.841C795.668,163.367 787.248,161.048 785.459,156.505C784.178,153.254 784.959,148.617 786.24,142.803C787.565,138.122 790.653,127.473 794.125,126C799.625,123.667 805.794,127.633 807.067,132C807.671,134.069 807.364,138.277 806.928,141.859C806.822,142.989 806.656,144.183 806.429,145.442Z" style="fill:none;"/>
                    </g>
                </g>
            </g>
        </g>
    </g>
</svg>
